<svg width="630" height="553" viewBox="0 0 630 553" fill="none" xmlns="http://www.w3.org/2000/svg">
<g clip-path="url(#clip0)">
<path d="M268.054 190.149C263.859 187.359 259.564 184.716 255.427 181.854C254.672 181.329 253.997 179.977 254.077 179.089C254.577 173.283 255.415 167.493 255.877 161.67C256.013 159.977 256.389 159.09 258.01 158.443C263.712 156.17 269.348 153.742 275.015 151.367C275.933 150.983 276.838 150.565 278.42 149.866C275.654 141.173 272.911 132.576 270.103 123.764C262.805 125.263 256.148 126.529 249.552 128.044C247.229 128.597 245.957 128.321 244.444 126.175C241.35 121.784 237.647 117.825 234.32 113.592C233.808 112.942 233.584 111.629 233.872 110.865C236.084 105.042 238.277 99.2027 240.83 93.5289C242.055 90.8054 241.424 89.3482 238.982 88.1012C238.045 87.6229 237.279 86.8044 236.435 86.1408L223.791 79.4357C223.255 79.3786 222.726 79.2722 222.209 79.1177C217.071 77.0578 218.061 77.0938 215.179 81.3878C211.667 86.622 208.248 91.9142 205.242 96.4985L182.465 94.5243C179.553 87.5842 176.505 80.3316 173.441 73.032C164.204 74.3371 155.741 77.3039 147.417 81.327C148.905 88.48 150.34 95.4755 151.831 102.465C152.107 103.721 152.027 104.481 150.802 105.41C146.006 109.046 141.296 112.812 136.761 116.766C135.456 117.908 134.609 117.919 133.193 117.336C127.35 114.922 121.448 112.635 115.59 110.26C114.136 109.665 113.198 109.707 112.133 111.142C107.357 117.537 104.113 124.69 101.475 132.156C100.949 133.632 101.663 134.266 102.783 134.982C107.955 138.3 113.046 141.731 118.243 145.008C119.739 145.951 120.201 146.769 119.916 148.696C118.931 155.357 118.334 162.073 117.529 169.309L96.9005 177.966C98.192 187.367 100.772 196.08 105.006 204.364L127.327 199.605C131.667 204.538 135.58 209.228 139.773 213.643C141.36 215.302 141.648 216.574 140.741 218.656C138.321 224.2 136.119 229.835 133.885 235.459C133.445 236.565 132.568 237.865 134.305 238.777C141.368 242.445 148.43 246.115 155.489 249.785C156.991 250.564 157.931 250.061 158.827 248.64C162.163 243.386 165.728 238.255 168.972 232.935C170.222 230.883 171.582 230.797 173.706 231.068C178.961 231.737 184.232 232.304 189.509 232.39C191.782 232.426 192.62 233.012 193.4 235.028C195.911 241.509 198.674 247.888 201.285 254.173C206.921 254.134 222.24 249.221 227.749 245.748C226.252 238.835 224.814 231.845 223.18 224.891C222.771 223.152 223.282 222.403 224.607 221.344C228.885 217.932 232.92 214.218 237.165 210.765C237.879 210.182 239.334 209.855 240.155 210.17C245.374 212.172 250.523 214.357 255.673 216.53C258.549 217.749 259.705 218.255 260.803 217.509L272.687 195.076C272.7 193.257 271.448 192.408 268.054 190.149ZM223.329 182.612C218.234 192.24 209.522 199.45 199.11 202.656C188.697 205.862 177.438 204.802 167.807 199.708C163.039 197.186 158.814 193.749 155.374 189.594C151.933 185.44 149.345 180.648 147.758 175.494C146.17 170.339 145.613 164.922 146.119 159.552C146.625 154.182 148.185 148.965 150.708 144.198C155.803 134.569 164.515 127.359 174.927 124.153C185.34 120.947 196.599 122.008 206.23 127.102C215.86 132.196 223.071 140.906 226.278 151.316C229.485 161.726 228.424 172.984 223.329 182.612Z" fill="#6198D1"/>
<path opacity="0.5" d="M436.348 161.498C434.811 160.472 433.234 159.502 431.713 158.457C431.561 158.333 431.438 158.178 431.352 158.001C431.267 157.825 431.221 157.632 431.218 157.436C431.403 155.305 431.71 153.181 431.879 151.046C431.929 150.424 432.067 150.098 432.662 149.86C434.755 149.031 436.827 148.135 438.904 147.264C439.241 147.123 439.573 146.968 440.154 146.711C439.139 143.52 438.132 140.351 437.112 137.13C434.432 137.683 431.987 138.142 429.567 138.701C428.713 138.9 428.248 138.803 427.692 138.015C426.555 136.403 425.203 134.951 423.975 133.397C423.877 133.252 423.811 133.088 423.783 132.915C423.754 132.742 423.763 132.565 423.809 132.396C424.619 130.256 425.427 128.113 426.365 126.037C426.815 125.036 426.583 124.502 425.687 124.043C425.353 123.835 425.04 123.594 424.752 123.325L420.092 120.855C419.895 120.835 419.701 120.796 419.511 120.739C417.628 119.982 417.99 119.995 416.931 121.569C415.642 123.49 414.387 125.44 413.283 127.113L404.923 126.388L401.604 118.497C398.214 118.978 395.102 120.067 392.052 121.538C392.605 124.173 393.125 126.742 393.67 129.308C393.769 129.767 393.742 130.046 393.291 130.386C391.532 131.722 389.803 133.104 388.139 134.556C387.657 134.976 387.348 134.979 386.828 134.766C384.682 133.879 382.516 133.043 380.367 132.167C379.834 131.951 379.488 131.968 379.098 132.493C377.344 134.841 376.155 137.47 375.185 140.199C374.994 140.752 375.254 140.976 375.666 141.239C377.563 142.453 379.433 143.727 381.341 144.919C381.894 145.265 382.06 145.566 381.955 146.271C381.592 148.718 381.374 151.182 381.078 153.839L373.506 157.016C373.942 160.387 374.949 163.66 376.482 166.694L384.679 164.952C386.269 166.763 387.721 168.483 389.25 170.106C389.831 170.717 389.939 171.181 389.604 171.944C388.717 173.979 387.909 176.05 387.088 178.113C386.927 178.519 386.606 178.995 387.243 179.327L395.019 183.369C395.572 183.646 395.915 183.466 396.245 182.946C397.47 181.011 398.778 179.136 399.967 177.184C400.426 176.429 400.927 176.399 401.707 176.498C403.632 176.766 405.571 176.927 407.514 176.982C408.344 176.996 408.656 177.212 408.944 177.95C409.865 180.331 410.88 182.672 411.84 184.978C413.908 184.978 419.531 183.162 421.552 181.887C420.999 179.352 420.474 176.783 419.876 174.231C419.724 173.592 419.912 173.316 420.399 172.929C421.97 171.676 423.441 170.313 425.009 169.044C425.166 168.928 425.347 168.849 425.538 168.811C425.729 168.774 425.926 168.778 426.116 168.825C428.032 169.561 429.921 170.363 431.81 171.165C432.866 171.612 433.292 171.798 433.693 171.524L438.052 163.29C438.068 162.637 437.596 162.325 436.348 161.498ZM419.932 158.733C418.061 162.268 414.863 164.915 411.041 166.092C407.218 167.269 403.085 166.88 399.549 165.01C397.799 164.084 396.248 162.822 394.985 161.297C393.722 159.772 392.772 158.013 392.19 156.12C391.607 154.228 391.403 152.239 391.589 150.268C391.775 148.297 392.348 146.382 393.274 144.632C394.2 142.882 395.462 141.331 396.987 140.068C398.512 138.806 400.271 137.856 402.164 137.273C404.056 136.69 406.045 136.486 408.016 136.672C409.988 136.857 411.904 137.429 413.654 138.355C417.189 140.225 419.837 143.423 421.014 147.244C422.191 151.066 421.802 155.198 419.932 158.733Z" fill="#6198D1"/>
<path d="M169.635 446.841C169.635 446.841 90.8329 407.995 77.2787 387.733C63.7246 367.471 83.6396 366.324 83.6396 366.324C83.6396 366.324 48.4835 332.132 53.4311 317.735C58.3787 303.337 76.5956 316.543 76.5956 316.543C76.5956 316.543 53.9842 266.22 64.6456 261.16C84.5024 251.737 112.363 305.884 112.363 305.884C112.363 305.884 106.375 282.362 120.051 283.125C140.674 284.278 139.822 337.485 139.822 337.485C139.822 337.485 142.151 317.085 154.58 323.712C176.881 335.602 169.635 446.841 169.635 446.841Z" fill="#3C8F7C"/>
<path d="M159.068 315.486C149.361 310.103 139.709 325.841 139.709 325.841C139.709 325.841 140.688 284.283 120.073 283.13C106.398 282.367 112.385 305.889 112.385 305.889C112.385 305.889 84.5024 251.737 64.6455 261.16L169.738 445.978C170.468 433.071 178.294 326.148 159.068 315.486Z" fill="#50BFA5"/>
<path d="M167.594 447.322C167.594 447.322 103.156 455.34 86.4577 448.193C69.7591 441.045 81.7285 432.252 81.7285 432.252C81.7285 432.252 45.9087 425.21 43.1431 414.222C40.3775 403.234 56.9102 404.11 56.9102 404.11C56.9102 404.11 22.5423 381.866 27.1359 374.381C35.6926 360.437 75.0773 382.892 75.0773 382.892C75.0773 382.892 61.7831 370.651 70.6219 365.574C83.9548 357.915 105.048 391.446 105.048 391.446C105.048 391.446 103.737 383.182 114.174 382.267C132.928 380.619 167.594 447.322 167.594 447.322Z" fill="#3C8F7C"/>
<path d="M114.606 376.258C104.16 377.174 105.048 391.444 105.048 391.444C105.048 391.444 83.5732 351.708 70.2458 359.353C61.396 364.432 71.8637 381.114 71.8637 381.114C71.8637 381.114 35.6926 360.434 27.1359 374.381L167.794 446.968C163.012 438.615 132.115 374.721 114.606 376.258Z" fill="#50BFA5"/>
<path d="M538.183 353.218L541.645 344.854C544.331 338.701 551.203 335.765 556.997 338.292C571.594 344.652 577.938 362.395 571.171 377.895L566.223 389.232C564.055 394.209 564.81 399.659 567.733 403.51C570.388 407.008 570.822 411.872 568.98 416.088L566.369 422.063C564.999 425.21 562.964 428.023 560.402 430.308C557.841 432.593 554.815 434.296 551.532 435.3C549.542 435.921 547.711 436.966 546.165 438.363C544.618 439.76 543.393 441.476 542.574 443.393L538.88 451.854C534.795 461.208 524.346 465.679 515.538 461.83L510.513 459.637C501.707 455.794 497.877 445.096 501.962 435.742C508.566 424.558 508.046 416.21 505.698 410.547C503.977 406.345 503.119 401.84 503.175 397.3C503.231 392.76 504.199 388.278 506.022 384.119L506.542 382.925C508.449 378.544 511.269 374.619 514.813 371.413C518.356 368.207 522.543 365.792 527.093 364.33C531.094 363.061 535.251 359.959 538.183 353.218Z" fill="#50BFA5"/>
<path d="M310.155 518.437C300.801 506.313 249.503 441.346 216.053 430.51C179.132 418.56 213.929 466.021 213.929 466.021C213.929 466.021 148.432 394.408 124.396 400.872C102.365 406.79 124.396 451.173 124.396 451.173C124.396 451.173 99.5831 426.595 69.4881 426.595C40.2005 426.595 89.9534 513.762 92.6332 518.426L310.155 518.437Z" fill="#96D9C9"/>
<path d="M586.478 258.362C586.478 258.362 577.036 270.55 571.475 275.33C565.913 280.111 560.617 284.693 553.529 299.908C546.441 315.124 546.645 316.866 544.762 320.784C542.879 324.702 532.989 340.048 532.242 343.109C531.495 346.17 515.344 360.838 510.347 368.298C505.35 375.758 497.15 386.168 496.074 392.188L497.534 392.157C497.534 392.157 501.882 378.548 514.681 366.752C527.48 354.957 526.741 351.99 539.264 347.312C551.787 342.633 563.416 324.362 563.416 324.362C563.416 324.362 579.476 305.322 581.575 293.972C583.674 282.622 588.973 273.182 586.478 258.362Z" fill="#256653"/>
<path d="M576.677 233.96C576.677 233.96 574.229 242.839 570.097 247.492C565.966 252.146 562.724 254.8 560.858 260.438C558.991 266.076 553.722 280.506 543.988 285.876C534.253 291.246 528.152 312.738 520.48 317.884C512.808 323.029 510.914 327.561 509.418 339.102C507.922 350.643 508.148 367.153 494.5 385.474L493.671 379.944C493.671 379.944 503.942 364.648 504.686 354.467C505.43 344.287 503.513 328.2 507.133 321.536C510.754 314.873 503.773 311.787 510.673 302.043C517.574 292.299 516.639 288.138 524.778 280.222C524.778 280.222 525.494 279.929 528.899 272.419C532.303 264.909 548.354 253.423 555.346 249.859C562.337 246.295 572.614 240.356 576.677 233.96Z" fill="#256653"/>
<path d="M542.536 272.803C542.536 272.803 532.745 283.161 530.851 290.853C528.957 298.545 528.332 305.015 522.333 314.759C516.334 324.503 521.81 332.815 518.425 338.176C515.04 343.537 513.279 350.408 512.123 355.662C510.966 360.915 498.848 376.366 495.579 384.858C492.31 393.349 493.875 393.742 493.875 393.742C493.875 393.742 497.91 382.466 500.659 379.068C503.408 375.669 512.139 363.774 514.647 358.969C517.156 354.163 521.503 351.719 526.606 343.781C531.708 335.842 537.795 329.574 540.315 317.215C542.834 304.855 550.796 293.043 542.536 272.803Z" fill="#3C8F7C"/>
<path d="M500.396 386.782C500.396 386.782 507.203 372.327 521.326 374.011C535.45 375.694 542.898 380.295 555.219 371.442C567.539 362.588 577.285 346.28 581.102 343.952C581.102 343.952 576.798 340.3 566.903 346.007C557.008 351.714 549.964 356.149 544.225 359.478C538.487 362.807 535.342 359.033 529.695 360.794C524.966 362.27 517.939 368.08 514.708 371.229C513.663 372.254 512.488 373.14 511.215 373.864C510.057 374.525 508.668 375.338 507.756 375.963C505.928 377.212 499.315 386.589 499.315 386.589L500.396 386.782Z" fill="#3C8F7C"/>
<path d="M496.168 382.969C496.168 382.969 505.35 365.492 504.216 355.632C503.082 345.772 494.473 336.666 496.212 331.042C497.952 325.418 508.079 311.48 505.43 298.733C505.43 298.733 501.005 308.53 498.491 310.346C495.977 312.163 480.116 318.188 479.718 330.915C479.32 343.643 491.978 349.582 494.428 353.926C496.879 358.269 501.306 359.292 500.789 361.668C500.272 364.043 499.113 372.91 495.656 381.111L496.168 382.969Z" fill="#3C8F7C"/>
<path d="M504.371 371.751L515.756 353.702C515.756 353.702 523.434 338.84 528.818 326.209C534.203 313.579 542.536 272.803 542.536 272.803C542.536 272.803 532.745 283.161 530.851 290.853C528.957 298.545 528.332 305.015 522.333 314.759C516.334 324.503 521.81 332.815 518.425 338.176C515.04 343.537 513.279 350.408 512.123 355.662C510.966 360.915 498.848 376.366 495.579 384.858C493.787 389.508 493.449 391.726 493.507 392.785C494.21 384.855 504.371 371.751 504.371 371.751Z" fill="#327F6B"/>
<path d="M540.672 367.864C534.311 367.662 528.965 365.984 520.483 369.678C515.445 371.858 510.72 374.699 506.431 378.125C506.431 378.125 501.837 383.168 499.794 385.914L499.315 386.588L500.391 386.782C500.391 386.782 507.197 372.327 521.321 374.01C535.445 375.694 542.892 380.295 555.213 371.442C567.534 362.588 577.28 346.28 581.096 343.952C581.096 343.952 568.875 349.593 560.824 355.231C552.774 360.868 547.032 368.063 540.672 367.864Z" fill="#327F6B"/>
<path d="M498.491 310.349C495.963 312.168 480.116 318.191 479.718 330.918C479.32 343.645 491.978 349.584 494.428 353.928C496.879 358.272 501.306 359.295 500.789 361.67C500.272 364.045 499.113 372.913 495.656 381.114L495.883 381.918C497.376 378.75 499.556 373.9 500.778 370.128C502.764 363.99 502.352 361.164 501.519 355.623C500.687 350.082 490.584 336.849 488.712 330.688C486.84 324.528 498.129 317.585 501.185 313.675C504.241 309.766 505.438 298.719 505.438 298.719C505.438 298.719 501.019 308.53 498.491 310.349Z" fill="#327F6B"/>
<path d="M329.074 518.437C338.427 506.313 389.726 441.346 423.176 430.51C460.096 418.56 425.297 466.021 425.297 466.021C425.297 466.021 490.797 394.408 514.83 400.872C536.863 406.79 514.83 451.173 514.83 451.173C514.83 451.173 539.646 426.595 569.741 426.595C599.028 426.595 549.275 513.762 546.595 518.426L329.074 518.437Z" fill="#96D9C9"/>
<path d="M164.483 518.073C133.552 475.996 96.6712 438.635 54.9964 407.16C54.565 406.834 53.9814 407.586 54.4156 407.918C95.4849 439.467 131.79 476.772 162.21 518.681L164.483 518.073Z" fill="#256653"/>
<path d="M79.1206 443.556C80.119 442.848 82.7159 440.158 86.1646 439.317C89.4363 438.211 93.5736 438.952 93.4325 439.041C93.5183 439.237 90.7057 436.041 86.3167 435.114C82.0992 433.881 76.3025 434.915 74.4108 436.588C70.1104 439.497 69.7674 444.438 71.8969 445.353C74.0154 446.332 76.8418 444.985 79.1206 443.556Z" fill="#256653"/>
<path d="M61.5121 428.047C62.5133 427.339 65.1074 424.652 68.5588 423.808C71.8305 422.702 75.9678 423.443 75.824 423.532C75.9097 423.728 73.0999 420.534 68.7109 419.605C64.4934 418.375 58.6968 419.409 56.8023 421.082C52.5046 423.988 52.1617 428.929 54.2912 429.847C56.4179 430.823 59.236 429.479 61.5121 428.047Z" fill="#256653"/>
<path d="M108.754 436.668C107.816 437.252 104.484 438.424 102.946 441.092C101.171 443.489 101.196 447.374 101.317 447.288C101.511 447.441 98.6346 443.724 98.4548 439.546C97.9211 435.399 100.087 430.781 102.213 429.805C106.085 427.239 111.403 428.915 111.987 431.13C112.64 433.347 110.693 435.263 108.754 436.668Z" fill="#256653"/>
<path d="M113.311 381.246C140.296 423.408 159.738 469.942 170.769 518.766L172.603 518.274C161.458 469.883 142.095 423.762 115.355 381.916C109.147 372.216 102.443 360.705 90.8162 356.923C90.5922 356.848 90.5065 357.199 90.7222 357.271C101.35 361.272 107.501 372.169 113.311 381.246Z" fill="#256653"/>
<path d="M110.864 355.333C110.175 356.348 107.545 358.988 106.763 362.458C105.723 365.751 106.544 369.874 106.633 369.73C106.832 369.81 103.591 367.065 102.567 362.693C101.254 358.504 102.172 352.69 103.806 350.762C106.63 346.41 111.55 345.968 112.523 348.08C113.538 350.176 112.25 353.03 110.864 355.333Z" fill="#256653"/>
<path d="M104.462 392.63C105.463 391.922 108.057 389.232 111.508 388.389C114.78 387.283 118.917 388.026 118.774 388.112C118.859 388.311 116.049 385.115 111.66 384.186C107.443 382.955 101.646 383.989 99.7518 385.662C95.4541 388.571 95.1111 393.512 97.2406 394.427C99.3591 395.409 102.186 394.062 104.462 392.63Z" fill="#256653"/>
<path d="M114.125 408.979C115.123 408.272 117.72 405.581 121.169 404.741C124.44 403.635 128.578 404.376 128.437 404.464C128.522 404.661 125.71 401.467 121.321 400.538C117.103 399.305 111.309 400.339 109.415 402.012C105.117 404.92 104.771 409.861 106.901 410.777C109.019 411.756 111.849 410.409 114.125 408.979Z" fill="#256653"/>
<path d="M124.382 373.828C123.552 374.721 120.51 376.914 119.21 380.218C117.662 383.306 117.828 387.506 117.935 387.376C118.118 387.49 115.341 384.263 115.029 379.789C114.39 375.443 116.215 369.835 118.135 368.204C121.608 364.35 126.55 364.69 127.164 366.927C127.839 369.161 126.111 371.774 124.382 373.828Z" fill="#256653"/>
<path d="M138.589 392.37C137.394 393.003 133.218 394.154 131.122 397.278C128.743 400.06 128.442 404.815 128.6 404.719C128.824 404.923 125.624 400.131 125.762 395.002C125.466 389.879 128.508 384.418 131.191 383.406C136.169 380.597 142.513 383.102 143.036 385.861C143.631 388.64 141.081 390.819 138.589 392.37Z" fill="#256653"/>
<path d="M153.542 420.449C152.256 420.872 147.948 421.303 145.351 424.043C142.538 426.385 141.44 431.022 141.612 430.956C141.8 431.193 139.449 425.932 140.447 420.899C141.02 415.798 144.939 410.926 147.751 410.392C153.122 408.457 158.963 411.999 159.016 414.816C159.137 417.62 156.255 419.337 153.542 420.449Z" fill="#256653"/>
<path d="M86.2614 361.908C86.8145 361.446 88.236 359.74 90.2411 359.093C92.1299 358.294 94.6107 358.54 94.5305 358.612C94.5886 358.726 92.7854 356.953 90.147 356.599C87.5999 356.046 84.2176 356.923 83.1695 357.982C80.7551 359.892 80.7662 362.829 82.0632 363.277C83.3603 363.725 84.9754 362.854 86.2614 361.908Z" fill="#256653"/>
<path d="M91.6266 349.977C91.6017 350.701 91.1149 352.861 91.8257 354.849C92.3456 356.829 94.0631 358.637 94.0631 358.535C94.1875 358.515 91.6874 358.164 89.7958 356.295C87.8073 354.608 86.4273 351.401 86.6375 349.919C86.6762 346.839 89.0103 345.055 90.158 345.813C91.3058 346.571 91.5906 348.39 91.6266 349.977Z" fill="#256653"/>
<path d="M48.8347 412.262C49.3878 411.8 50.8093 410.097 52.8144 409.447C54.7032 408.65 57.184 408.894 57.1038 408.966C57.1619 409.079 55.3587 407.307 52.7231 406.956C50.1732 406.403 46.7909 407.276 45.7428 408.338C43.3284 410.246 43.3395 413.185 44.6365 413.633C45.9336 414.081 47.5487 413.196 48.8347 412.262Z" fill="#256653"/>
<path d="M55.3116 400.217C55.2287 400.939 54.5649 403.051 55.1125 405.089C55.4693 407.105 57.0318 409.048 57.0484 408.96C57.1756 408.96 54.7115 408.407 52.9775 406.377C51.1356 404.536 50.0239 401.226 50.353 399.764C50.6295 396.7 53.1185 395.113 54.1999 395.962C55.2812 396.811 55.4029 398.624 55.3116 400.217Z" fill="#256653"/>
<path d="M61.0641 480.493C88.3881 483.488 113.84 495.546 138.337 507.314C154.859 515.244 154.026 517.503 157.392 518.684C157.517 518.726 157.652 518.731 157.78 518.698C157.908 518.665 158.024 518.594 158.112 518.496C158.201 518.398 158.258 518.275 158.278 518.145C158.297 518.014 158.278 517.88 158.222 517.76C156.928 515.194 153.52 513.461 151.172 511.987C148.411 510.286 145.562 508.735 142.635 507.339C136.401 504.311 130.002 501.588 123.644 498.825C110.715 493.21 97.5726 487.926 83.9106 484.348C76.4264 482.362 68.7902 481.002 61.0807 480.281C61.0534 480.282 61.0276 480.294 61.0082 480.313C60.9887 480.332 60.9769 480.358 60.9749 480.385C60.9728 480.413 60.9808 480.44 60.9972 480.462C61.0136 480.483 61.0373 480.499 61.0641 480.504V480.493Z" fill="#256653"/>
<path d="M83.3519 471.668C83.1749 472.787 82.0079 476.042 82.7269 479.257C83.1556 482.429 85.4704 485.559 85.4925 485.401C85.6916 485.401 81.8834 484.373 79.3087 481.11C76.5431 478.116 75.0275 472.881 75.6387 470.62C76.2886 465.858 80.249 463.541 81.8862 464.935C83.5234 466.328 83.6036 469.19 83.3519 471.668Z" fill="#256653"/>
<path d="M107.426 480.28C107.247 481.386 106.079 484.655 106.801 487.87C107.227 491.039 109.542 494.169 109.567 494.014C109.766 494.014 105.972 492.983 103.383 489.723C100.617 486.728 99.1047 481.491 99.7159 479.232C100.363 474.468 104.323 472.154 105.961 473.545C107.598 474.936 107.678 477.808 107.426 480.28Z" fill="#256653"/>
<path d="M131.885 491.186C131.708 492.292 130.541 495.56 131.26 498.776C131.686 501.947 134.004 505.077 134.026 504.919C134.225 504.919 130.417 503.891 127.842 500.628C125.076 497.634 123.561 492.399 124.172 490.138C124.822 485.376 128.782 483.059 130.419 484.45C132.057 485.841 132.137 488.708 131.885 491.186Z" fill="#256653"/>
<path d="M76.167 494.156C76.6592 493.229 77.6161 490.179 79.942 488.213C82.0272 486.115 85.4731 485.1 85.4068 485.225C85.5478 485.343 82.171 483.969 78.4513 484.948C74.751 485.617 70.7077 488.625 69.8946 490.63C67.7126 494.501 69.3415 498.419 71.3216 498.306C73.3156 498.234 74.9695 496.121 76.167 494.156Z" fill="#256653"/>
<path d="M101.22 503.014C101.715 502.091 102.67 499.041 104.995 497.072C107.081 494.976 110.527 493.962 110.46 494.086C110.601 494.202 107.224 492.831 103.505 493.81C99.8044 494.479 95.7611 497.487 94.948 499.494C92.766 503.365 94.3949 507.283 96.3751 507.17C98.3552 507.101 100.009 504.983 101.22 503.014Z" fill="#256653"/>
<path d="M57.0955 485.034C57.5297 484.517 58.5336 482.728 60.2538 481.801C61.8385 480.759 64.1422 480.576 64.0786 480.646C64.1505 480.74 62.2118 479.432 59.7505 479.54C57.3361 479.473 54.3991 480.828 53.6247 481.978C51.7441 484.121 52.2419 486.798 53.5058 486.988C54.7697 487.179 56.0833 486.109 57.0955 485.034Z" fill="#256653"/>
<path d="M59.9855 473.263C60.0851 473.929 60.0049 475.978 60.9839 477.668C61.7915 479.388 63.6582 480.745 63.6389 480.654C63.7495 480.612 61.4264 480.715 59.3771 479.327C57.2836 478.124 55.4887 475.434 55.4334 474.046C54.9494 471.236 56.7802 469.221 57.9528 469.716C59.1254 470.21 59.6868 471.817 59.9855 473.263Z" fill="#256653"/>
<path d="M455.985 462.04C531.542 386.499 531.542 264.024 455.985 188.483C380.429 112.943 257.927 112.943 182.371 188.483C106.814 264.024 106.814 386.499 182.371 462.04C257.927 537.581 380.429 537.581 455.985 462.04Z" fill="#FE9187"/>
<path d="M443.935 449.993C512.837 381.106 512.837 269.418 443.935 200.531C375.034 131.644 263.322 131.644 194.421 200.531C125.519 269.418 125.519 381.106 194.421 449.992C263.322 518.879 375.034 518.879 443.935 449.993Z" fill="#F9C8C0"/>
<path d="M424.088 430.15C482.028 372.222 482.028 278.302 424.088 220.374C366.148 162.446 272.208 162.446 214.268 220.374C156.328 278.302 156.328 372.222 214.268 430.15C272.208 488.078 366.148 488.078 424.088 430.15Z" fill="white"/>
<path d="M398.038 404.105C441.591 360.561 441.591 289.962 398.038 246.418C354.485 202.874 283.871 202.874 240.318 246.418C196.765 289.962 196.765 360.561 240.318 404.105C283.871 447.649 354.485 447.649 398.038 404.105Z" fill="#F47458"/>
<path d="M375.177 381.249C406.105 350.328 406.105 300.195 375.177 269.274C344.25 238.353 294.106 238.353 263.178 269.274C232.251 300.195 232.251 350.328 263.178 381.249C294.106 412.171 344.25 412.171 375.177 381.249Z" fill="white"/>
<path d="M339.373 325.261C339.373 329.253 338.189 333.155 335.971 336.475C333.752 339.794 330.599 342.381 326.91 343.909C323.221 345.436 319.162 345.836 315.246 345.057C311.329 344.278 307.732 342.356 304.909 339.533C302.085 336.71 300.162 333.114 299.384 329.198C298.605 325.283 299.004 321.225 300.532 317.536C302.06 313.848 304.648 310.696 307.968 308.478C311.288 306.26 315.191 305.076 319.184 305.076C321.836 305.076 324.461 305.598 326.91 306.613C329.36 307.627 331.585 309.114 333.46 310.988C335.335 312.862 336.822 315.087 337.836 317.536C338.851 319.985 339.373 322.61 339.373 325.261Z" fill="#FE9187"/>
<path d="M443.168 225.041L442.452 211.923L486.867 177.189L484.547 196.182L441.017 230.222L443.168 225.041Z" fill="#184655"/>
<path d="M446.454 229.459L459.012 233.313L503.43 198.579L484.434 196.257L440.906 230.297L446.454 229.459Z" fill="#12353D"/>
<path d="M317.661 326.934C317.901 327.241 318.199 327.498 318.538 327.689C318.878 327.881 319.252 328.004 319.639 328.052C320.026 328.099 320.419 328.069 320.794 327.965C321.17 327.86 321.521 327.683 321.828 327.442L446.965 229.586L443.306 224.913L318.172 322.769C317.552 323.254 317.15 323.965 317.054 324.746C316.958 325.527 317.176 326.314 317.661 326.934Z" fill="#184655"/>
<path d="M504.373 363.266C504.373 364.521 504.844 365.536 505.422 365.536C506 365.536 506.47 364.521 506.47 363.266C506.47 362.01 506 360.996 505.422 360.996C504.844 360.996 504.373 362.013 504.373 363.266Z" fill="#F7A491"/>
<path d="M494.509 510.483C494.785 508.528 494.868 505.525 494.838 502.061H501.677C500.966 506.968 500.408 510.787 500.408 510.787L500.579 512.338V516.917H485.601C488.231 515.67 490.778 514.254 493.225 512.678C493.584 512.425 493.884 512.099 494.105 511.72C494.327 511.341 494.464 510.919 494.509 510.483Z" fill="#F7A491"/>
<path d="M523.713 509.332L521.722 503.628H526.935C527.212 507.289 527.306 509.761 527.306 509.761L528.63 513.51L529.977 517.968C529.977 517.968 525.552 519.109 523.218 517.827L523.475 513.403L523.713 509.332Z" fill="#F7A491"/>
<path d="M496.674 385.369C498.48 382.897 505.939 375.741 506.768 375.755C509.183 375.797 517.112 375.799 518.66 376.585L518.586 390.208C518.334 391.353 512.861 409.165 513.179 413.066L513.14 413.102C512.062 414.151 510.78 414.967 509.374 415.499C507.967 416.031 506.466 416.268 504.964 416.196C503.461 416.124 501.99 415.743 500.641 415.078C499.292 414.413 498.094 413.478 497.122 412.331C497.112 408.877 496.902 405.427 496.494 401.998C495.482 394.289 492.183 391.505 496.674 385.369Z" fill="#F7CC7F"/>
<path d="M509.199 368.085C509.199 368.085 508.989 373.112 509.44 375.017C509.891 376.922 510.494 377.069 506.619 377.646C505.095 377.876 503.627 378.216 503.627 378.216C503.627 378.216 504.025 375.415 504.086 374.234C504.183 372.299 503.638 366.282 503.638 366.282L509.199 368.085Z" fill="#F7A491"/>
<path d="M506.246 370.587C505.554 370.977 504.799 371.245 504.016 371.378C503.884 369.006 503.638 366.282 503.638 366.282L508.942 368.002C508.295 369.093 507.363 369.987 506.246 370.587Z" fill="#F47458"/>
<path d="M523.478 513.372C525.522 514.282 527.726 513.734 528.611 513.441L528.907 514.235L530.032 517.995C530.032 517.995 525.544 519.101 523.218 517.826L523.478 513.372Z" fill="#E25A44"/>
<path d="M500.745 518.056H485.172C484.597 518.003 484.456 517.531 484.655 517.243C485.067 516.646 486.884 516.206 488.925 515.255C492.506 515.631 500.023 513.159 500.59 512.33C500.916 513.991 501.066 517.984 500.745 518.056Z" fill="#E25A44"/>
<path d="M501.926 413.329L511.052 478.243L519.349 508.171H528.392C528.392 508.171 526.293 484.057 521.797 475.516C521.797 475.516 519.83 452.625 517.867 438.626C517.574 436.533 519.025 431.102 518.647 429.698C515.732 418.914 513.165 413.069 513.165 413.069L501.926 413.329Z" fill="#355389"/>
<path d="M507.568 441.396L505.455 466.331C505.455 466.331 507.615 480.582 506.132 490.038C504.65 499.495 502.686 508.171 502.686 508.171H494.376L492.716 461.083C492.716 461.083 489.519 435.496 490.626 428.556C491.732 421.616 497.114 412.333 497.114 412.333L510.189 412.931C510.189 412.931 513.735 425.633 513.135 429.897C512.698 433.063 507.568 441.396 507.568 441.396Z" fill="#466EB6"/>
<path d="M520.422 398.627C530.304 395.663 527.66 386.954 527.613 387.291C527.64 387.014 528.572 385.925 529.031 384.988C530.951 381.081 528.42 376.38 525.519 374.757C527.455 369.78 525.519 365.03 521.924 363.045C520.117 362.029 518.548 360.639 517.322 358.969C514.581 355.311 509.595 351.631 503.599 352.831C497.667 354.349 505.61 357.786 504.824 363.49C504.426 366.382 505.571 365.978 507.357 368.293C504.785 372.813 506.271 380.401 510.217 383.843C508.265 391.978 510.339 401.655 520.422 398.627Z" fill="#184655"/>
<path d="M513.079 358.814C514.249 363.628 507.93 367.109 502.927 367.25C499.675 367.333 498.181 366.998 497.656 363.573C496.804 358.018 499.091 354.631 502.299 353.229C506.439 351.432 512.117 354.844 513.079 358.814Z" fill="#184655"/>
<path d="M505.734 355.579C507.17 356.139 508.364 357.186 509.105 358.538C510.278 360.75 509.694 367.87 504.816 370.214C499.937 372.559 497.697 367.234 498.051 363.302C498.405 359.37 499.819 354.233 505.734 355.579Z" fill="#F7A491"/>
<path d="M502.686 366.52L499.224 366.468C499.224 366.468 499.285 367.806 500.806 367.875C502.661 367.958 502.686 366.52 502.686 366.52Z" fill="white"/>
<path d="M510.839 363.916C511.561 360.244 511.276 357.456 508.666 356.113C506.055 354.769 503.823 353.436 501.475 355.853L500.947 356.149C500.947 356.149 505.358 357.368 505.604 359.71C505.85 362.052 508.193 364.834 507.833 365.984C507.474 367.134 507.056 369.426 507.056 369.426L508.021 368.633C508.021 368.633 510.117 367.59 510.839 363.916Z" fill="#184655"/>
<path d="M506.293 362.511C505.93 363.526 506.204 364.543 506.909 364.787C507.615 365.03 508.477 364.402 508.845 363.387C509.213 362.373 508.934 361.352 508.231 361.112C507.529 360.871 506.655 361.496 506.293 362.511Z" fill="#F7A491"/>
<path d="M135.478 450.031H180.393L169.674 518.208H174.306L234.762 133.682H230.13L229.217 139.475H184.213L185.12 133.682H180.487L119.974 518.208H124.606L135.478 450.031ZM212.53 245.62L205.115 292.78H160.155L167.556 245.62H212.53ZM168.172 241.68L175.573 194.518H220.564L213.149 241.68H168.172ZM204.496 296.723L197.081 343.883H152.135L159.535 296.723H204.496ZM196.475 347.826L189.061 394.986H144.117L151.518 347.837L196.475 347.826ZM228.611 143.418L221.183 190.578H176.193L183.593 143.418H228.611ZM136.097 446.088L143.498 398.929H188.427L181.013 446.088H136.097Z" fill="#F7CC7F"/>
<path d="M326.82 70.231C326.773 70.4052 326.397 71.5886 325.824 73.3499L331.831 74.561C331.895 73.5794 331.956 72.7582 332.028 72.161C332.52 67.9969 334.478 66.866 335.485 64.5517C336.491 62.2374 340.402 60.772 339.91 59.9867C339.417 59.2014 335.789 62.3812 334.915 62.0383C334.041 61.6955 338.029 56.9203 337.548 56.2816C336.666 55.1092 332.874 61.2945 332.429 60.783C331.983 60.2715 335.587 53.7433 334.143 53.6604C332.7 53.5774 331.101 60.7277 330.346 60.4125C329.591 60.0973 332.443 53.8263 330.991 52.8889C330.216 52.3885 327.462 64.0512 326.237 64.7259C325.011 65.4006 323.277 60.7996 322.108 61.1895C320.938 61.5793 327.025 69.5066 326.82 70.231Z" fill="#F79C8D"/>
<path d="M270.894 45.4372C270.867 45.6141 270.72 46.8473 270.513 48.6888L264.542 47.3063C264.89 46.3855 265.172 45.6113 265.355 45.0418C266.622 41.0408 265.305 39.2048 265.355 36.6804C265.405 34.156 262.435 31.2112 263.198 30.6942C263.961 30.1771 265.963 34.5652 266.904 34.626C267.844 34.6868 266.179 28.6757 266.879 28.2942C268.168 27.5891 269.069 34.7891 269.686 34.5071C270.303 34.2251 269.714 26.79 271.069 27.3181C272.424 27.8462 270.925 35.0103 271.746 35.0352C272.568 35.0601 272.551 28.1697 274.26 27.9153C275.173 27.7799 272.877 39.5283 273.707 40.6592C274.537 41.7901 278.021 38.3035 278.926 39.1412C279.83 39.979 271.005 44.6961 270.894 45.4372Z" fill="#F79C8D"/>
<path d="M332.55 72.7804C332.55 72.7804 325.396 71.0689 325.327 71.644C323.822 84.2303 323.147 88.787 322.893 88.9115C322.025 89.3594 310.528 78.8469 308.479 78.128C307.497 77.7851 306.432 77.8515 305.409 77.8736C302.97 77.9455 302.488 77.9538 302.488 77.9538H302.4V80.2487C305.149 82.7179 311.438 120.153 311.969 120.128C312.561 120.101 324.992 123.228 324.774 122.18C324.738 122.011 316.344 115.146 313.963 105.236C313.164 101.918 312.771 98.3235 312.337 95.1908C315.102 96.5733 325.888 101.885 327.597 101.183C332.926 99.0148 332.55 72.7804 332.55 72.7804Z" fill="black"/>
<path d="M353.959 139.245C353.959 139.245 365.527 148.303 365.912 149.91C366.465 152.221 377.06 149.183 374.504 148.71C373.918 148.602 372.037 148.126 371.882 148.044C371.053 147.601 360.762 135.203 360.762 135.203L353.959 139.245Z" fill="#F7A491"/>
<path d="M379.471 148.71L372.087 148.11C372.087 148.11 369.977 149.858 365.92 149.938C365.518 151.237 365.402 152.607 365.58 153.955C365.632 154.331 365.696 155.46 366.072 155.435C367.435 155.341 371.072 154.436 375.198 153.61C375.198 153.61 380.766 152.429 383.979 150.507C387.193 148.586 379.471 148.71 379.471 148.71Z" fill="#F7CC7F"/>
<path d="M302.137 116.525C308.081 117.328 314.12 117.068 319.973 115.757C330.814 113.221 342.797 110.877 346.309 112.917C349.136 114.562 366.775 141.228 366.775 141.228L359.957 146.205L340.521 124.444C340.521 124.444 315.725 133.591 310.155 132.579C297.486 130.267 297.3 120.139 302.137 116.525Z" fill="#355389"/>
<path d="M328.618 157.135C328.618 157.135 328.103 171.123 327.788 173.49C327.473 175.857 333.726 182.952 332.927 180.48C332.741 179.913 332.268 178.03 332.268 177.856C332.268 176.919 334.589 160.965 334.589 160.965L328.618 157.135Z" fill="#F7A491"/>
<path d="M336.92 185.576L332.301 178.066C332.301 178.066 329.763 177.037 327.76 173.509C326.427 173.774 325.166 174.323 324.063 175.119C323.759 175.342 321.693 176.855 321.85 177.203C322.379 178.489 325.197 181.24 328.278 184.243C328.278 184.243 332.642 187.766 335.864 189.679C339.085 191.592 336.92 185.576 336.92 185.576Z" fill="#F7CC7F"/>
<path d="M342.346 129.562C339.384 125.614 315.481 121.865 315.481 121.865L308.816 109.054L294.078 118.143C294.078 118.143 295.552 129.867 296.659 132.999C298.13 137.174 308.036 137.387 314.082 137.327C319.649 137.269 329.815 138.405 329.815 138.405L326.378 168.734C326.378 168.734 333.137 170.272 335.037 170.023C335.252 169.995 346.03 134.473 342.346 129.562Z" fill="#466EB6"/>
<path d="M302.48 77.9895L294.167 78.454C294.167 78.454 293.976 78.5121 293.918 78.5231C293.24 78.6476 293.854 102.875 294.471 111.924C295.088 120.974 296.299 124.773 296.299 124.773C296.299 124.773 307.577 122.771 311.04 121.428C312.475 120.875 315.951 116.525 315.951 116.525C315.951 116.525 312.4 111.753 310.611 103.997C309.228 98.0164 307.53 87.4071 306.557 85.1951C304.308 80.1213 302.48 77.9895 302.48 77.9895Z" fill="#184655"/>
<path d="M294.402 71.1132L294.167 78.4542C294.167 78.4542 299.549 87.7253 302.311 86.434C304.632 85.3502 302.588 78.2966 302.588 78.2966C302.588 78.2966 302.184 76.6791 301.628 74.821C301.238 73.5215 300.915 72.1169 300.94 71.0855C300.984 68.5721 294.402 71.1132 294.402 71.1132Z" fill="#F7A491"/>
<path d="M300.926 71.0855C300.984 68.5749 294.402 71.1132 294.402 71.1132L294.38 71.8293C294.58 72.1423 294.829 72.4222 295.115 72.6588C296.938 74.0674 299.23 74.7279 301.523 74.5058C301.172 73.303 300.896 72.0339 300.926 71.0855Z" fill="#F47458"/>
<path d="M300.832 54.3711C300.832 54.3711 303.575 58.5186 303.78 61.9859C303.924 63.953 303.744 65.9303 303.249 67.8394L294.446 57.3324L300.832 54.3711Z" fill="black"/>
<path d="M304.693 61.2725C304.817 62.4918 304.341 63.537 303.633 63.6089C302.925 63.6808 302.251 62.7518 302.129 61.5352C302.007 60.3186 302.477 59.2706 303.185 59.1987C303.893 59.1268 304.568 60.0559 304.693 61.2725Z" fill="#F48C7F"/>
<path d="M291.598 59.0052C291.396 58.961 291.418 69.0892 294.363 71.4726C297.309 73.8561 302.408 74.0634 303.902 71.6634C305.561 69.009 303.982 58.3361 299.615 56.0716C295.248 53.807 291.598 59.0052 291.598 59.0052Z" fill="#F7A491"/>
<path d="M290.854 52.723C288.614 54.6889 287.535 56.1239 286.011 59.6161C284.147 63.9129 287.845 68.3618 290.948 70.1231C294.051 71.8844 294.308 74.0301 294.308 74.0301L294.435 72.7112C294.498 72.3077 294.485 71.8959 294.396 71.4973C294.287 71.1273 294.14 70.7696 293.957 70.43C293.68 69.8632 292.85 67.9415 292.513 67.4189C291.639 66.0752 291.468 65.7821 291.899 64.5046C292.231 63.5203 291.847 61.347 292.358 59.7239L296.534 58.8253C296.534 58.8253 299.148 58.1977 300.467 56.6742C304.256 52.3137 296.766 47.439 290.854 52.723Z" fill="black"/>
<path d="M292.892 65.6218C293.406 66.7278 293.298 67.8753 292.654 68.1739C292.01 68.4725 291.067 67.8144 290.552 66.7029C290.038 65.5914 290.143 64.4494 290.79 64.1508C291.437 63.8522 292.378 64.5103 292.892 65.6218Z" fill="#F7A491"/>
<path d="M294.167 78.4541C294.167 78.4541 285.923 78.0698 283.796 77.1075C282.507 76.5241 271.904 67.983 271.904 67.983L272.023 45.1331L264.575 44.5801C264.575 44.5801 260.703 69.8356 262.05 72.6006C263.433 75.4541 278.937 87.2081 282.037 92.3067C283.824 95.2459 287.549 135.206 288.121 135.565C292.134 137.653 304.524 139.738 304.231 138.471C296.166 103.469 294.167 78.4541 294.167 78.4541Z" fill="black"/>
<path d="M297.685 68.2567L302.483 66.7332C302.483 66.7332 302.95 68.5912 300.86 69.3212C298.31 70.2143 297.685 68.2567 297.685 68.2567Z" fill="white"/>
<path d="M502.446 157.174C502.592 157.136 502.727 157.065 502.841 156.967C502.955 156.868 503.045 156.745 503.105 156.607C503.164 156.468 503.191 156.318 503.183 156.168C503.175 156.017 503.133 155.87 503.06 155.739C502.554 154.909 502.059 154.08 501.561 153.25C500.455 151.414 500.36 151.376 500.455 151.165C500.67 150.665 501.611 150.889 501.951 151.011C502.703 151.268 503.394 151.718 504.194 151.821C505.753 152.017 506.89 150.825 506.196 149.316C505.56 147.933 504.843 146.576 504.116 145.229C505.775 145.572 507.454 145.962 509.13 146.28C509.256 146.312 509.39 146.307 509.513 146.265C509.636 146.223 509.745 146.146 509.826 146.043C509.907 145.941 509.956 145.818 509.968 145.688C509.98 145.558 509.954 145.427 509.893 145.312C509.36 144.09 507.786 140.468 507.266 139.273C507.131 138.963 506.334 137.598 506.611 137.338C506.887 137.078 507.993 137.421 508.27 137.459C509.725 137.669 510.242 137.736 514.988 138.305C515.541 138.375 516.025 137.6 515.687 137.13C512.369 132.502 512.952 132.079 511.771 131.429C511.716 131.399 511.653 131.384 511.59 131.384C511.527 131.385 511.465 131.401 511.41 131.432C511.355 131.463 511.308 131.507 511.275 131.561C511.241 131.614 511.222 131.675 511.218 131.739C511.113 132.435 511.138 132.607 512.385 134.816C512.708 135.387 513.045 135.95 513.397 136.503C507.645 135.69 506.207 135.347 505.438 136.638C504.885 137.534 505.161 137.777 508.159 144.626C506.425 144.176 504.672 143.833 502.905 143.457C502.76 143.418 502.607 143.422 502.465 143.47C502.323 143.517 502.197 143.605 502.105 143.723C502.012 143.84 501.956 143.983 501.943 144.132C501.931 144.281 501.962 144.431 502.034 144.563C504.332 149.506 504.595 149.54 504.678 150.032C504.678 150.032 504.982 150.112 504.531 150.073C503.768 150.004 502.36 148.893 500.897 149.064C499.611 149.213 498.386 150.264 498.685 151.666C498.853 152.479 499.157 152.772 500.69 155.49C499.143 155.8 497.638 156.292 496.207 156.955C495.614 157.188 495.108 157.599 494.757 158.13C494.687 158.254 494.649 158.393 494.647 158.535C494.646 158.677 494.681 158.817 494.749 158.942C494.818 159.067 494.917 159.172 495.037 159.247C495.158 159.322 495.296 159.365 495.438 159.372C497.13 159.264 497.871 157.945 502.446 157.174Z" fill="#F7CC7F"/>
<path d="M532.651 170.841C532.431 169.399 532.338 167.941 532.375 166.483C532.375 166.207 532.331 165.654 532.621 165.482C533.321 165.048 534.363 166.248 537.046 166.834C538.21 167.089 540.597 167.717 541.106 166.154C541.382 165.352 541.197 164.34 541.194 163.508C541.194 162.878 541.217 162.247 541.225 161.617C545.581 162.845 545.332 163.099 546.319 162.67C546.384 162.637 546.441 162.591 546.488 162.536C546.535 162.48 546.571 162.416 546.593 162.347C546.615 162.277 546.623 162.204 546.617 162.132C546.611 162.059 546.59 161.988 546.557 161.924C546.004 161.028 546.106 161.285 540.63 159.679C540.506 159.642 540.376 159.633 540.248 159.654C540.12 159.675 539.999 159.724 539.892 159.797C539.786 159.871 539.698 159.968 539.634 160.08C539.57 160.193 539.533 160.318 539.524 160.447C539.524 161.302 539.751 165.17 539.704 165.648C539.659 165.618 539.449 165.648 539.405 165.648C537.585 165.585 536.056 164.927 534.408 164.246C533.055 163.693 531.219 163.677 530.796 165.408C530.563 166.348 530.66 168.283 530.796 169.776C528.144 168.928 525.497 168.059 522.842 167.23C522.322 167.067 521.575 167.451 521.617 168.076C521.733 169.804 521.794 171.532 521.838 173.266C520.275 172.75 518.802 171.996 517.468 171.032C516.484 170.321 515.231 171.701 517.839 173.324C519.271 174.279 520.854 174.988 522.521 175.42C523.074 175.566 523.749 175.21 523.749 174.571C523.749 172.857 523.683 171.14 523.578 169.425C526.227 170.238 528.89 171.023 531.542 171.836C531.686 171.878 531.837 171.883 531.983 171.85C532.128 171.817 532.263 171.747 532.374 171.647C532.485 171.548 532.569 171.421 532.617 171.28C532.666 171.139 532.678 170.988 532.651 170.841Z" fill="#F47458"/>
<path d="M541.833 205.578C541.831 205.813 541.916 206.041 542.073 206.218C542.229 206.394 542.445 206.506 542.679 206.532C545.113 206.971 547.525 207.195 549.972 206.781C551.244 206.562 550.802 204.668 549.546 204.804C547.578 205.059 545.586 205.082 543.611 204.873C543.653 203.413 543.852 201.962 544.206 200.546C544.344 200.009 543.988 199.285 543.357 199.301C541.783 199.346 535.835 199.691 535.782 199.755C535.797 199.703 535.797 199.649 535.782 199.597C535.666 198.964 536.131 196.816 536.084 195.831C536.028 194.725 534.563 194.33 533.675 194.244C531.874 194.073 529.878 195.369 528.124 194.673C526.437 193.998 528.334 191.355 526.974 189.286C525.926 187.694 524.122 188.18 521.279 188.72C520.58 188.855 519.897 188.996 519.548 189.682C519.499 189.769 519.479 189.868 519.489 189.967C519.498 190.066 519.539 190.16 519.604 190.235C520.461 191.031 521.487 190.672 524.087 190.235C524.418 190.18 524.977 189.983 525.273 190.235C526.255 191.048 524.817 193.276 525.978 195.176C526.885 196.647 528.697 196.918 530.234 196.733C531.44 196.586 532.928 195.887 534.15 196.321C534.084 197.366 533.987 198.422 534.001 199.467C534.015 200.609 534.598 201.403 535.749 201.497C537.018 201.602 538.34 201.428 539.621 201.37C540.475 201.331 541.327 201.295 542.182 201.248C541.929 202.677 541.812 204.127 541.833 205.578Z" fill="#3CB4C5"/>
<path d="M471.759 139.135C464.955 133.558 461.49 138.582 463.462 140.893C464.292 141.886 465.791 141.966 466.543 140.844C466.886 140.329 466.38 139.478 465.738 139.68C465.207 139.845 465.083 139.243 465.647 139.01C466.405 138.695 467.326 139.251 467.978 139.599C469.502 140.404 471.491 141.43 471.75 143.34C472.135 146.191 469.237 149.208 464.939 147.546C458.741 145.149 459.034 135.009 465.608 133.326C469.187 132.41 473.028 133.928 475.224 136.87C475.653 137.445 476.419 136.771 476.186 136.196C474.433 131.83 468.858 130.165 464.629 131.644C460.293 133.162 458.133 137.727 458.78 142.151C459.46 146.786 463.421 150.64 468.255 150.145C473.543 149.6 476.51 143.036 471.759 139.135Z" fill="#3CB4C5"/>
<path d="M538.763 221.023C537.657 220.246 535.364 219.771 534.615 221.28C534.269 221.983 534.463 222.848 535.279 223.116C536.095 223.384 536.825 222.95 537.441 223.689C537.97 224.322 537.652 225.231 537.165 225.798C535.694 227.532 532.555 227.001 530.804 226.039C528.011 224.512 527.524 220.509 530.527 218.604C531.471 218.006 532.566 217.877 533.63 217.628C534.217 217.489 534.502 216.558 533.879 216.245C531.487 215.037 528.536 216.585 527.12 218.62C525.632 220.755 525.69 223.796 527.07 225.97C528.611 228.4 531.719 229.611 534.515 229.581C540.331 229.514 542.361 223.536 538.763 221.023Z" fill="#3C8F7C"/>
<path d="M424.005 400.278C423.892 400.708 423.722 401.121 423.499 401.506C422.039 404.163 418.649 407.956 418.649 407.956L416.03 402.053C416.03 402.053 416.455 400.198 417.197 397.549C419.727 398.21 422.139 398.591 424.005 400.278Z" fill="#F8A492"/>
<path d="M408.977 395.157C408.977 395.157 423.596 401.45 424.069 401.331C424.373 401.254 430.065 391.729 430.126 382.77C430.153 378.622 425.858 373.645 421.063 374.641C418.649 375.136 418.687 375.808 415.114 381C411.541 386.193 408.977 395.157 408.977 395.157Z" fill="#466EB6"/>
<path d="M396.499 507.997C396.499 507.997 396.847 513.737 396.847 513.751C396.975 514.478 397.478 516.278 397.478 516.942C397.478 519.43 385.658 514.829 388.307 513.726C388.545 513.626 389.804 512.872 389.881 512.023C390.003 510.718 390.31 508.077 390.31 508.077L396.499 507.997Z" fill="#F7A491"/>
<path d="M388.335 513.701C388.335 513.701 391.101 514.464 392.533 514.655C393.966 514.846 395.827 513.242 396.834 513.674C397.94 514.152 397.896 518.44 397.896 518.44C397.896 518.44 383.014 519.66 378.83 518.399C377.17 517.898 382.663 515.476 388.335 513.701Z" fill="#3C8F7C"/>
<path d="M420.681 507.997C420.681 507.997 421.027 513.737 421.03 513.751C421.157 514.478 421.66 516.278 421.66 516.942C421.66 519.43 409.837 514.829 412.487 513.726C412.727 513.626 414.356 512.307 414.423 511.461C414.544 510.154 414.481 508.077 414.481 508.077L420.681 507.997Z" fill="#F7A491"/>
<path d="M412.517 513.701C412.517 513.701 415.283 514.464 416.713 514.655C418.142 514.846 420.009 513.242 421.013 513.674C422.119 514.152 422.166 518.44 422.166 518.44C422.166 518.44 407.216 519.864 403.009 518.399C401.377 517.829 406.842 515.476 412.517 513.701Z" fill="#3C8F7C"/>
<path d="M419.583 365.276L420.925 373.751C420.925 373.751 415.817 377.848 412.841 376.986C410.352 376.258 412.055 372.993 412.055 372.993C412.055 372.993 413.386 368.469 412.976 366.1C412.567 363.73 419.583 365.276 419.583 365.276Z" fill="#F7A491"/>
<path d="M418.621 367.836C416.783 368.656 414.836 369.204 412.841 369.465C413.029 368.282 413.137 367.026 412.976 366.1C412.788 364.994 414.182 364.745 415.742 364.784C417.775 364.958 419.589 365.276 419.589 365.276L419.846 366.905C419.499 367.288 419.083 367.604 418.621 367.836Z" fill="#FE875E"/>
<path d="M426.027 355.502C426.237 355.502 424.008 364.969 420.56 366.597C417.111 368.226 411.964 367.377 410.999 364.828C409.931 362.008 413.825 352.349 418.679 351.122C423.533 349.894 426.027 355.502 426.027 355.502Z" fill="#F7A491"/>
<path d="M422.028 346.803C423.987 347.934 425.544 349.649 426.481 351.708C427.775 352.322 429.34 353.643 430.093 357.238C431.016 361.634 427.731 365.024 424.249 366.044C420.767 367.065 420.23 369.362 420.23 369.362L419.835 366.874C419.835 366.874 420.609 364.717 421.771 363.636C422.932 362.555 421.218 360.982 421.068 359.696C420.952 358.709 421.68 356.787 421.522 355.167C421.522 355.167 419.586 352.233 417.681 351.509C414.434 350.284 418.499 344.765 422.028 346.803Z" fill="#13375B"/>
<path d="M420.568 361.352C420.117 362.458 420.291 363.531 420.98 363.777C421.669 364.023 422.576 363.338 423.026 362.243C423.477 361.148 423.303 360.064 422.614 359.818C421.926 359.572 421.019 360.26 420.568 361.352Z" fill="#F7A491"/>
<path d="M407.716 403.69L387.635 400.416C387.635 400.416 389.92 394.665 390.738 394.665C391.557 394.665 405.921 400.936 405.921 400.936L407.064 403.231L407.716 403.69Z" fill="#F8A492"/>
<path d="M418.004 417.46C418.004 417.46 420.006 427.137 419.191 434.484C418.375 441.83 418.311 467.907 418.311 467.907L421.425 509.634L414.033 509.797C414.033 509.797 405.269 468.087 405.432 469.151C405.595 470.216 402.492 439.784 402.492 439.784L412.943 416.536L418.004 417.46Z" fill="#184655"/>
<path d="M416.043 417.001C416.043 417.001 417.352 425.719 415.717 429.543C414.083 433.367 401.715 470.88 401.563 473.943C401.411 477.007 397.284 510.817 397.284 510.817L388.689 510.574L386.831 472.97L390.722 425.722L394.502 413.777L416.043 417.001Z" fill="#13375B"/>
<path d="M420.922 373.751C420.922 373.751 418.801 375.133 416.823 374.978C414.846 374.823 412.053 372.993 412.053 372.993L412.44 371.677C412.44 371.677 417.556 370.933 417.694 371.013C417.833 371.093 420.922 373.751 420.922 373.751Z" fill="#F7A491"/>
<path d="M398.333 394.383C398.333 394.383 390.738 401.55 387.309 400.328C383.88 399.106 382.461 394.922 390.827 388.801C398.313 383.326 398.333 394.383 398.333 394.383Z" fill="#F8A492"/>
<path d="M393.186 403.234C394.314 397.095 402.492 377.995 403.142 374.478C403.46 372.766 407.871 372.73 412.075 372.951C416.5 373.189 420.925 373.751 420.925 373.751C420.925 373.751 424.852 374.395 426.58 376.015C428.309 377.635 428.771 382.098 426.284 390.614C424.324 397.325 421.89 401.011 420.687 405.899C420.443 407.539 420.236 409.156 419.957 411.048C419.517 418.356 419.957 428.014 419.957 428.014C419.957 428.014 398.568 432.438 390.567 425.719C390.572 425.719 392.03 409.521 393.186 403.234Z" fill="#50BFA5"/>
<path d="M387.735 390.036C387.735 390.036 396.128 396.963 396.618 396.963C396.933 396.963 408.596 388.391 411.276 381.341C412.763 377.445 409.641 373.087 406.076 373.101C403.607 373.101 402.506 373.748 397.608 377.879C392.71 382.01 387.735 390.036 387.735 390.036Z" fill="#466EB6"/>
<path d="M411.596 360.733L414.746 362.458C414.746 362.458 413.917 363.783 412.512 363.069C410.791 362.198 411.596 360.733 411.596 360.733Z" fill="white"/>
<path d="M212.12 397.646C211.874 396.941 215.309 396.371 215.494 395.655C215.68 394.939 211.155 394.886 210.992 394.256C210.693 393.1 215.948 394.013 215.846 393.473C215.743 392.934 210.37 391.723 210.95 390.797C211.531 389.871 216.39 392.63 216.537 392C216.683 391.369 211.786 389.837 211.874 388.458C211.921 387.719 219.911 392.138 220.837 391.737C221.764 391.336 219.842 387.866 220.58 387.352C221.319 386.837 223.434 394.4 223.943 394.654C224.452 394.908 235.249 401.066 239.087 402.045C239.555 400.759 245.056 392.796 245.468 391.579C247.622 393.114 249.835 393.324 252.058 394.72C250.446 398.757 243.051 409.967 241.928 410.481C238.509 412.027 225.287 401.063 222.649 399.186C220.01 397.308 218.5 397.917 216.711 397.325C214.922 396.733 212.369 398.354 212.12 397.646Z" fill="#F7A491"/>
<path d="M285.475 368.398C283.497 363.128 278.326 359.937 272.944 360.932C272.121 359.606 271.042 358.456 269.772 357.549C268.501 356.642 267.063 355.996 265.54 355.648C259.63 354.382 251.638 356.716 251.853 362.973C249.561 367.176 249.472 373.187 252.982 376.383C251.759 382.035 257.055 387.501 263.939 387.302C266.334 391.253 270.903 393.794 275.444 393.252C276.533 393.122 278.196 392.851 278.469 392.918C278.124 392.854 285.765 398.724 292.239 389.705C298.846 380.503 294.206 369.379 285.475 368.398Z" fill="#184655"/>
<path d="M266.92 419.227C267.117 419.31 264.323 422.907 261.602 425.453C259.406 428.218 257.349 431.467 256.641 435.02C255.565 440.423 256.458 467.116 255.534 469.03C247.481 476.902 241.648 496.655 240.011 502.683C239.69 503.851 239.045 504.906 238.15 505.724L238.51 512.534L242.5 516.226C242.5 516.226 241.61 510.676 243.388 506.548C243.388 506.548 263.662 475.857 264.865 473.504C267.166 466.821 275.538 432.582 275.538 432.582L277.474 424.71C277.474 424.71 266.937 419.232 266.92 419.227Z" fill="#F7A491"/>
<path d="M233.755 507.931C233.755 507.931 236.289 511.832 236.504 513.353C236.72 514.874 238.07 518.33 239.563 518.54C239.901 518.59 245.703 519.016 245.647 518.291C245.614 517.738 243.515 516.945 242.539 516.273C240.855 515.109 238.236 505.627 238.236 505.627C238.236 505.627 233.866 506.7 233.755 507.931Z" fill="#355389"/>
<path d="M267.767 377.533C267.767 377.533 276.251 362.276 278.317 359.032C280.383 355.789 285.759 342.901 285.95 342.395C286.141 341.889 282.247 335.787 283.116 335.58C283.984 335.372 284.949 338.793 285.881 338.386C286.813 337.98 289.521 329.732 290.049 330.141C291.036 330.907 288.589 335.256 289.114 335.53C289.64 335.804 291.238 330.744 292.275 330.893C293.312 331.042 290.306 335.53 290.596 335.925C290.887 336.321 294.004 332.093 294.568 332.994C294.875 333.484 291.7 336.686 292.311 336.987C292.922 337.288 295.743 335.22 296.042 335.815C296.341 336.409 293.431 337.228 292.56 338.834C291.689 340.441 290.209 341.135 289.593 344.11C288.976 347.085 288.058 357.852 284.891 363.221C281.724 368.591 274.805 380.481 274.805 380.481L267.767 377.533Z" fill="#F79C8D"/>
<path d="M284.249 431.063C284.249 431.063 297.309 458.99 297.392 463.887C297.463 468.095 295.11 491.7 295.768 511.356C295.79 512.067 296.689 513.015 297.997 513.61C298.736 513.947 302.292 515.545 302.292 515.545L302.779 516.817L290.533 515.946L290.359 512.603C290.359 512.603 285.483 483.198 285.981 474.88C286.058 473.573 286.694 465.756 286.694 465.756L271.965 437.326L281.227 425.16L284.249 431.063Z" fill="#F7A491"/>
<path d="M272.996 385.792C273.348 383.647 276.669 378.274 277.194 376.944C277.194 376.944 273.342 372.05 270.214 372.421C270.214 372.421 266.013 379.386 263.624 379.61C261.234 379.834 252.838 380.21 251.361 381.103C249.884 381.996 243.648 391.613 243.648 391.613C243.648 391.613 249.265 397.347 251.524 397.333C251.524 397.333 252.725 394.969 253.203 394.452C253.543 395.558 258.776 412.502 258.77 416.343L258.809 416.376C259.965 417.316 261.3 418.011 262.734 418.419C264.167 418.827 265.668 418.939 267.146 418.749C268.624 418.559 270.048 418.07 271.331 417.313C272.615 416.556 273.731 415.545 274.611 414.344C274.349 410.965 274.285 407.574 274.418 404.188C274.802 396.554 276.348 392.497 272.996 385.792Z" fill="#3C8F7C"/>
<path d="M300.232 451.367L274.6 414.344C273.067 415.009 271.47 415.519 269.835 415.867C266.16 416.578 262.479 416.461 258.759 416.343C258.76 416.464 258.752 416.585 258.737 416.705C258.308 419.746 254.259 424.483 253.424 433.745C252.476 444.253 253.051 462.521 253.372 463.721C270.41 461.65 295.398 456.441 300.232 451.367Z" fill="#F7CC7F"/>
<path d="M259.301 373.46C259.301 373.46 260.203 378.316 260.023 380.229C259.843 382.142 260.709 388.314 264.603 388.336C268.497 388.358 265.341 380.489 264.976 378.614C264.611 376.739 264.523 370.93 264.523 370.93L259.301 373.46Z" fill="#F7A491"/>
<path d="M264.603 373.842C264.542 372.255 264.523 370.93 264.523 370.93L259.301 373.46C259.301 373.46 259.486 374.453 259.672 375.716C261.956 376.195 263.613 375.315 264.603 373.842Z" fill="#F47458"/>
<path d="M257.393 360.064C256.07 360.927 255.097 362.231 254.647 363.744C253.911 366.263 254.749 372.761 259.945 374.328C265.142 375.896 267.393 370.751 266.323 366.727C265.253 362.704 262.924 357.611 257.393 360.064Z" fill="#F7A491"/>
<path d="M266.973 365.168C266.871 366.249 266.298 367.076 265.692 367.012C265.087 366.949 264.68 366.025 264.783 364.947C264.885 363.869 265.457 363.039 266.06 363.1C266.663 363.161 267.072 364.09 266.973 365.168Z" fill="#F7A491"/>
<path d="M256.143 369.332C256.754 370.278 256.751 371.392 256.143 371.821C255.534 372.249 254.539 371.821 253.93 370.889C253.322 369.957 253.322 368.829 253.93 368.4C254.539 367.972 255.54 368.389 256.143 369.332Z" fill="#F7A491"/>
<path d="M290.491 518.261H305.962C306.535 518.208 306.676 517.746 306.476 517.461C306.067 516.878 304.264 516.447 302.234 515.526C298.675 515.896 290.926 513.466 290.364 512.65C290.041 514.271 290.173 518.191 290.491 518.261Z" fill="#355389"/>
<path d="M260.042 370.408L263.361 369.429C263.361 369.429 263.663 370.737 262.213 371.21C260.452 371.788 260.042 370.408 260.042 370.408Z" fill="white"/>
<path d="M175.775 293.765C176.206 293.784 177.393 294.179 179.124 297.453C181.337 301.637 184.572 314.267 184.572 314.267L174.918 317.862L173.679 315.224L171.635 294.929C171.635 294.929 175.656 293.759 175.775 293.765Z" fill="#3C8F7C"/>
<path d="M163.015 291.945C165.78 291.945 172.606 292.753 175.775 293.767C175.775 293.767 178.104 313.781 173.679 328.988C172.689 332.392 174.508 343.09 174.508 343.09L145.901 342.711C145.901 342.711 149.292 316.825 148.014 312.644C146.736 308.463 146.706 293.889 146.706 293.889C146.706 293.889 146.902 293.859 153.133 292.783C156.401 292.251 159.704 291.97 163.015 291.945Z" fill="#96D9C9"/>
<path d="M159.679 380.246C159.679 380.246 160.313 387.548 161.477 389.572C162.641 391.596 161.416 395.033 161.352 395.503C161.289 395.973 158.905 396.65 155.108 396.244C151.311 395.837 151.371 394.964 151.678 393.548C151.985 392.132 154.004 390.313 154.126 388.964C154.248 387.614 152.964 382.762 152.964 382.762L159.679 380.246Z" fill="#F7A491"/>
<path d="M171.27 337.073C171.27 337.073 191.016 335.967 195.427 338.646C199.838 341.326 192.294 354.407 192.294 354.407C192.294 354.407 178.552 353.774 151.64 355.328C145.279 355.695 144.726 338.713 145.907 337.305C147.088 335.898 171.27 337.073 171.27 337.073Z" fill="#355389"/>
<path d="M154.632 396.811C150.724 396.396 151.208 394.474 151.524 393.017C151.72 392.105 152.843 391.029 153.509 390.011C153.86 390.288 154.427 390.78 156.126 391.281C157.89 391.803 160.307 390.772 161.847 390.128C162.246 391.777 162.422 393.472 162.37 395.168C162.307 395.655 158.543 397.228 154.632 396.811Z" fill="#13375B"/>
<path d="M156.792 351.196C157.58 357.166 161.494 386.865 161.494 386.865L152.428 387.987C152.428 387.987 141.283 349.206 141.855 343.272C142.428 337.338 146.598 336.841 146.598 336.841C146.598 336.841 154.704 335.394 156.792 351.196Z" fill="#466EB6"/>
<path d="M146.385 296.131C149.059 295.128 150.368 319.222 150.727 329.14C155.465 329.596 163.725 329.14 165.777 328.988C166.743 328.916 168.972 328.1 169.926 327.973C170.706 327.839 171.499 327.802 172.288 327.863C172.467 327.893 177.404 329.911 177.819 330.351C178.344 330.904 179.755 332.287 179.52 332.884C179.285 333.481 176.798 331.225 176.798 331.225L175.584 330.542C177.094 332.018 179.979 333.962 179.564 334.67C179.149 335.378 176.558 333.39 174.705 332.043C176.292 333.478 178.27 336.05 177.813 336.448C177.404 336.81 175.158 333.835 172.758 332.978C171.867 332.66 170.979 333.531 170.269 333.647C169.754 333.724 168.961 333.89 168.457 333.747L165.858 333.011C164.973 333.091 164.948 333.614 164.054 333.805C163.017 334.026 161.314 334.258 159.992 334.582C152.378 336.44 149.839 337.305 147.508 337.302C140.472 337.286 140.063 298.496 146.385 296.131Z" fill="#F7A491"/>
<path d="M141.321 318.746C140.821 308.588 140.895 296.073 146.59 293.93C148.838 293.101 152.798 298.155 152.088 318.954C149.032 319.203 144.568 319.404 141.321 318.746Z" fill="#3C8F7C"/>
<path d="M186.185 386.492C186.185 386.492 185.394 389.027 186.81 390.706C188.226 392.384 194.111 394.024 194.882 394.933C195.654 395.843 195.596 396.614 195.596 396.614L179.08 396.161L179.26 391.184L180.02 387.589L186.185 386.492Z" fill="#F7A491"/>
<path d="M187.836 391.541C187.836 391.541 183.593 393.258 181.544 392.24C179.495 391.223 179.556 390.943 178.961 391.322C178.366 391.701 178.156 396.377 178.156 396.377L196.727 396.93C198.021 396.899 198.663 395.948 197.623 395.132C196.981 394.679 196.304 394.277 195.599 393.929C194.144 393.089 187.836 391.541 187.836 391.541Z" fill="#13375B"/>
<path d="M185.571 341.754C186.846 339.069 189.749 335.572 194.858 337.678C199.73 339.686 201.036 344.624 199.501 349.679C197.966 354.733 187.844 384.451 187.49 388.538L179.412 388.59C179.412 388.59 180.88 365.06 181.24 359.373C181.574 353.898 183.358 346.399 185.571 341.754Z" fill="#466EB6"/>
<path d="M198.674 314.38H171.665C171.315 314.382 170.972 314.488 170.682 314.685C170.392 314.882 170.167 315.161 170.036 315.486L161.72 335.834H146.83C146.63 335.834 146.438 335.914 146.297 336.055C146.155 336.197 146.075 336.389 146.075 336.589C146.075 336.789 146.155 336.982 146.296 337.124C146.438 337.266 146.63 337.346 146.83 337.346H189.21C189.781 337.346 190.339 337.18 190.818 336.869C191.296 336.558 191.674 336.115 191.907 335.593L200.281 316.869C200.401 316.6 200.452 316.306 200.43 316.013C200.407 315.719 200.312 315.436 200.152 315.189C199.993 314.942 199.774 314.738 199.516 314.597C199.258 314.456 198.968 314.381 198.674 314.38Z" fill="#12353D"/>
<path d="M184.133 326.231C183.95 327.144 183.156 327.755 182.36 327.594C181.563 327.434 181.063 326.566 181.254 325.659C181.444 324.752 182.23 324.133 183.026 324.293C183.823 324.453 184.315 325.316 184.133 326.231Z" fill="white"/>
<path d="M169.431 267.5C168.615 267.232 167.817 266.913 167.041 266.546C166.167 266.126 165.033 265.631 164.317 265.52C162.81 265.288 160.221 265.443 158.786 266.994C157.005 268.929 153.838 267.342 154.477 277.462C155.199 288.918 161.568 287.66 161.723 287.466C161.878 287.272 167.404 280.139 167.404 280.139C167.404 280.139 169.339 284.364 169.339 284.209C169.339 284.054 179.21 270.793 169.431 267.5Z" fill="#0E2E35"/>
<path d="M164.596 288.309L165.15 292.402C165.15 292.402 166.38 298.299 164.796 299.436C163.211 300.572 158.056 292.247 158.056 292.247L158.609 281.878L164.596 288.309Z" fill="#F7A491"/>
<path d="M158.421 285.224C159.732 288.763 162.846 290.936 165.058 291.78L164.594 288.309L158.595 281.864L158.421 285.224Z" fill="#F47458"/>
<path d="M164.276 270.577C165.065 270.456 165.871 270.51 166.637 270.734C167.403 270.958 168.111 271.347 168.711 271.875C169.31 272.402 169.786 273.054 170.106 273.785C170.426 274.517 170.582 275.309 170.562 276.107C170.521 277.867 170.368 279.621 170.103 281.361C169.373 286.086 166.148 290.245 164.018 289.874C161.889 289.504 156.524 285.425 157.467 278.704C158.042 274.537 160.747 271.147 164.276 270.577Z" fill="#F7A491"/>
<path d="M158.938 279.492C158.758 280.531 157.926 281.253 157.08 281.106C156.233 280.96 155.697 280 155.871 278.958C156.045 277.916 156.883 277.197 157.73 277.343C158.576 277.49 159.118 278.452 158.938 279.492Z" fill="#F7A491"/>
<path d="M157.73 277.343C157.73 277.343 160.307 277.985 161.264 276.326C162.221 274.667 165.642 271.092 169.989 272.574C174.337 274.056 166.165 268.979 165.816 268.979L161.294 268.952C161.294 268.952 158.075 271.598 157.959 271.888C157.843 272.178 156.916 275.347 156.916 275.347L157.73 277.343Z" fill="#0E2E35"/>
<path d="M162.448 284.259L167.149 285.154C167.149 285.154 166.704 286.921 164.63 286.587C162.085 286.177 162.448 284.259 162.448 284.259Z" fill="white"/>
<path d="M568.856 517.948H79.7843C79.3244 517.948 78.8834 518.131 78.5582 518.456C78.233 518.781 78.0503 519.222 78.0503 519.682C78.0503 520.142 78.233 520.583 78.5582 520.908C78.8834 521.233 79.3244 521.416 79.7843 521.416H568.856C569.316 521.416 569.757 521.233 570.082 520.908C570.407 520.583 570.59 520.142 570.59 519.682C570.59 519.222 570.407 518.781 570.082 518.456C569.757 518.131 569.316 517.948 568.856 517.948Z" fill="#12353D"/>
<path d="M468.766 392.002C468.52 391.297 471.958 390.725 472.14 390.011C472.323 389.298 467.801 389.24 467.641 388.612C467.342 387.457 472.597 388.369 472.492 387.83C472.387 387.291 467.016 386.08 467.597 385.151C468.177 384.222 473.036 386.987 473.183 386.356C473.33 385.726 468.435 384.194 468.523 382.814C468.57 382.076 476.56 386.492 477.486 386.091C478.413 385.69 476.488 382.22 477.226 381.708C477.965 381.197 480.083 388.756 480.592 389.008C481.101 389.259 491.895 395.42 495.736 396.401C496.204 395.113 497.21 393.379 497.623 392.163C499.777 393.697 501.378 394.466 503.602 395.865C501.989 399.902 499.697 404.323 498.574 404.829C495.156 406.372 481.936 395.412 479.298 393.534C476.659 391.657 475.149 392.265 473.357 391.673C471.565 391.082 469.004 392.71 468.766 392.002Z" fill="#F7A491"/>
<path d="M508.638 384.305C509.658 388.51 504.213 397.883 504.213 397.883C504.213 397.883 496.453 394.223 495.087 392.63C495.087 392.63 500.361 383.536 500.706 382.983C502.269 380.478 504.393 380.475 505.778 380.638C506.89 380.782 508.638 384.305 508.638 384.305Z" fill="#EAB765"/>
</g>
<defs>
<clipPath id="clip0">
<rect width="630" height="553" fill="white"/>
</clipPath>
</defs>
</svg>
