<svg width="582" height="358" viewBox="0 0 582 358" fill="none" xmlns="http://www.w3.org/2000/svg">
<rect width="582" height="358" fill="white"/>
<path d="M484.964 356.528C484.964 356.528 547.55 368.823 567.473 322.309C593.314 261.962 540.217 216.206 499.495 224.733C410.75 243.308 432.118 38.3752 289.691 80.1994C249.65 91.961 141.437 22.0962 111.259 134.116C104.082 160.762 78.6675 163.686 41.7477 180.59C-30.4854 213.668 2.5419 357.086 54.156 357.649C105.77 358.212 484.964 356.528 484.964 356.528Z" fill="#D7E0FC"/>
<path d="M301.162 238.394C301.162 238.394 318.438 163.619 339.704 172.927C360.971 182.236 305.147 256.88 305.147 256.88C305.147 256.88 337.041 220.626 356.317 237.687C375.593 254.748 327.743 310.901 351 322.279C374.256 333.657 390.208 316.255 406.82 329.573C423.433 342.891 419.461 356.777 419.461 356.777C419.461 356.777 289.685 357.076 289.685 356.777C289.685 356.478 301.162 238.394 301.162 238.394Z" fill="#5E73E7"/>
<path d="M88.5129 356.473C88.5129 356.473 67.8426 333.58 83.957 320.237C100.071 306.894 119.11 341.011 127.095 332.955C135.08 324.899 84.5692 285.097 99.6244 266.617C114.68 248.136 132.847 273.724 133.734 278.936C134.621 284.148 133.734 357.148 133.734 357.148L88.5129 356.473Z" fill="#5F8AD4"/>
<path d="M581.376 356.473H9.56807C9.5565 356.473 9.54712 356.483 9.54712 356.496V357.798C9.54712 357.811 9.5565 357.821 9.56807 357.821H581.376C581.388 357.821 581.397 357.811 581.397 357.798V356.496C581.397 356.483 581.388 356.473 581.376 356.473Z" fill="#2E3552"/>
<path d="M517.13 333.433C517.13 333.433 521.695 337.961 520.804 341.176C519.912 344.391 515.794 346.537 515.238 350.467C514.681 354.397 512.444 356.541 510.449 356.541H500.904C500.904 356.541 499.428 353.777 502.999 352.942C506.57 352.108 507.907 347.489 507.683 343.2C507.46 338.912 508.018 333.197 508.018 333.197L515.589 331.289L517.13 333.433Z" fill="#2C3A64"/>
<path d="M460.232 356.376C460.136 356.424 460.035 356.461 459.931 356.486H434.372C434.605 355.517 435.415 353.679 438.407 353.159C442.397 352.467 449.313 349.986 450.857 344.525C450.906 344.351 450.95 344.169 450.99 343.987C452.214 338.153 461.121 345.775 461.121 345.775C461.121 345.775 461.149 346.007 461.188 346.403C461.393 348.544 461.922 355.47 460.232 356.376Z" fill="#2C3A64"/>
<path d="M439.466 200.268C439.466 200.268 440.819 218.325 442.409 240.028C444.571 269.513 447.169 305.727 447.428 312.587C447.87 324.501 449.656 343.559 449.656 343.559C449.656 343.559 453.883 348.086 462.348 346.176C462.348 346.176 469.891 318.972 472.046 290.19C472.079 289.719 472.114 289.243 472.146 288.768C474.151 259.467 477.268 197.768 477.268 197.768L439.466 200.268Z" fill="#35488B"/>
<path d="M439.466 200.268C439.466 200.268 440.819 218.325 442.409 240.028L472.046 290.19C472.079 289.719 472.114 289.243 472.146 288.768C474.151 259.467 477.268 197.768 477.268 197.768L439.466 200.268Z" fill="#2C3A64"/>
<path d="M445.644 202.413C445.644 202.413 470.03 267.805 486.063 298.537C502.096 329.27 507.108 337.844 507.108 337.844C507.108 337.844 516.295 333.914 517.13 331.232C517.13 331.232 510.998 271.906 500.262 257.445C494.193 249.272 487.067 224.748 486.731 216.171C486.396 207.595 484.562 190.624 484.562 190.624L445.644 202.413Z" fill="#35488B"/>
<path d="M420.984 184.36L419.587 187.331C419.587 187.331 412.501 188.392 414.451 196.296C414.451 196.296 415.501 199.534 417.457 198.518C419.412 197.502 418.449 197.576 421.249 196.192C424.05 194.807 425.672 192.147 425.046 189.717L425.493 187.132L420.984 184.36Z" fill="#A16D3C"/>
<path d="M458.15 101.486C457.068 94.6381 457.033 90.5815 457.033 90.5815L469.406 79.9131C468.941 94.5808 477.731 101.633 477.731 101.633C477.731 101.633 461.244 110.314 451.716 107.112C453.521 104.831 455.702 102.924 458.15 101.486Z" fill="#935C2F"/>
<path d="M454.121 90.3249C454.121 90.3249 469.86 93.124 471.348 82.605C472.835 72.0861 475.841 65.3773 465.854 63.1485C455.867 60.9197 453.345 64.6153 452.056 67.9971C450.766 71.3789 450.063 89.3263 454.121 90.3249Z" fill="#A16D3C"/>
<path d="M471.234 83.3372C471.234 83.3372 470.915 69.2547 456.567 66.996C446.743 65.447 452.691 56.6663 453.816 55.2767C453.816 55.2767 461.326 56.8083 469.011 58.6137C485.148 62.4014 472.938 81.2429 471.234 83.3372Z" fill="#2C3A64"/>
<path d="M422.635 188.492C420.539 186.181 418.97 183.175 418.97 183.175C418.97 183.175 436.854 159.408 438.307 156.942C439.759 154.477 450.622 114.944 450.622 114.944L478.092 108.992C478.092 108.992 455.166 159.587 451.369 165.755C445.083 175.946 426.317 191.117 426.317 191.117C424.94 190.509 423.689 189.617 422.635 188.492Z" fill="#F2564B"/>
<path d="M438.416 201.772C438.693 202.032 439.048 202.177 439.417 202.181C442.995 202.128 453.429 204.255 462.259 203.284C469.709 202.519 476.29 200.161 483.365 196.769C484.296 196.319 486.468 195.083 486.419 193.96C486.387 192.73 486.273 190.947 486.131 188.701C485.63 180.889 484.757 167.451 485.607 151.952C485.761 149.066 485.84 146.202 485.851 143.383C485.923 122.375 482.029 103.894 474.211 97.6413C473.543 97.1283 469.439 99.2749 465.668 101.265C462.176 103.102 458.702 103.304 455.41 102.592L452.119 105.705C448.11 109.689 443.719 115.098 441.81 123.316C440.181 130.309 439.233 142.917 438.709 155.984C438.476 161.905 438.279 167.88 438.23 173.545V173.747C438.183 174.309 438.183 174.922 438.183 175.49C437.985 190.031 438.176 201.568 438.416 201.772Z" fill="#FE9187"/>
<path d="M486.131 188.701C485.63 180.889 484.757 167.451 485.607 151.952C485.761 149.066 485.84 146.202 485.851 143.383C482.592 134.916 479.927 128.79 479.927 128.79H471.709C471.709 128.79 465.686 172.803 486.131 188.701Z" fill="#C1706C"/>
<path d="M502.115 191.438L503.674 194.312C503.674 194.312 500.62 201.235 507.865 203.822C507.865 203.822 510.984 204.664 511.25 202.35C511.515 200.037 511.057 200.946 511.511 197.681C511.965 194.416 510.77 191.508 508.519 190.731L506.74 188.91L502.115 191.438Z" fill="#A16D3C"/>
<path d="M506.252 192.222C503.293 192.84 500.085 192.591 500.085 192.591C500.085 192.591 491.301 163.562 490.17 160.912C489.038 158.262 464.078 126.887 464.078 126.887L474.467 99.0385C474.467 99.0385 501.472 147.28 504.208 154.059C508.738 165.265 510.309 190.372 510.309 190.372C509.084 191.268 507.705 191.897 506.252 192.222Z" fill="#FB7369"/>
<path d="M126.059 0H295.656C296.459 0 297.228 0.341078 297.796 0.948202C298.364 1.55532 298.682 2.37876 298.682 3.23736V353.249C298.682 354.107 298.364 354.931 297.796 355.538C297.228 356.145 296.459 356.486 295.656 356.486H126.059C125.256 356.486 124.486 356.145 123.919 355.538C123.351 354.931 123.032 354.107 123.032 353.249V3.23736C123.032 2.37876 123.351 1.55532 123.919 0.948202C124.486 0.341078 125.256 0 126.059 0V0Z" fill="#FE9187"/>
<path d="M312.681 0H143.084C141.419 0 140.069 1.44384 140.069 3.22491V353.249C140.069 355.03 141.419 356.473 143.084 356.473H312.681C314.346 356.473 315.695 355.03 315.695 353.249V3.22491C315.695 1.44384 314.346 0 312.681 0Z" fill="#FFCBC3"/>
<path d="M309.044 28.5012H146.35V317.359H309.044V28.5012Z" fill="#D9E9FE"/>
<path d="M253.622 13.4923H207.967C207.496 13.4923 207.044 13.6925 206.711 14.0488C206.378 14.4052 206.191 14.8885 206.191 15.3924C206.191 15.8963 206.378 16.3796 206.711 16.736C207.044 17.0923 207.496 17.2925 207.967 17.2925H253.622C253.855 17.2925 254.086 17.2433 254.301 17.1478C254.517 17.0524 254.713 16.9124 254.878 16.736C255.043 16.5595 255.173 16.3501 255.263 16.1195C255.352 15.889 255.398 15.6419 255.398 15.3924C255.398 15.1429 255.352 14.8958 255.263 14.6653C255.173 14.4347 255.043 14.2253 254.878 14.0488C254.713 13.8724 254.517 13.7324 254.301 13.6369C254.086 13.5414 253.855 13.4923 253.622 13.4923Z" fill="#FF9591"/>
<path d="M199.859 13.4923C199.507 13.4923 199.164 13.6037 198.872 13.8125C198.58 14.0213 198.352 14.3181 198.218 14.6653C198.083 15.0124 198.048 15.3945 198.117 15.7631C198.185 16.1317 198.354 16.4702 198.603 16.736C198.851 17.0017 199.168 17.1826 199.512 17.256C199.857 17.3293 200.214 17.2917 200.538 17.1478C200.863 17.004 201.14 16.7605 201.336 16.448C201.531 16.1355 201.635 15.7682 201.635 15.3924C201.634 14.8889 201.446 14.4063 201.113 14.0503C200.781 13.6942 200.329 13.4936 199.859 13.4923Z" fill="#FF9591"/>
<path d="M234.128 346.182C237.68 342.383 237.68 336.222 234.128 332.423C230.576 328.623 224.817 328.623 221.265 332.423C217.713 336.222 217.713 342.383 221.265 346.182C224.817 349.982 230.576 349.982 234.128 346.182Z" fill="#FF9591"/>
<path d="M418.481 356.292C404.318 357.938 391.477 346.888 389.928 331.735L364.76 83.9299C363.222 68.779 373.551 55.0426 387.717 53.3866C401.883 51.7405 414.722 62.7924 416.27 77.9432L441.44 325.748C442.979 340.902 432.647 354.646 418.481 356.292Z" fill="#C7E1FF"/>
<path d="M395.39 66.4755C395.512 67.9305 395.096 69.3789 394.231 70.5091C393.365 71.6393 392.12 72.361 390.762 72.5189C389.404 72.6768 388.043 72.2584 386.97 71.3536C385.898 70.4489 385.201 69.13 385.028 67.6808L382.674 44.5038L378.95 7.77214C378.804 6.30388 379.207 4.83353 380.071 3.68206C380.935 2.53059 382.19 1.79151 383.561 1.62614H383.596C384.964 1.48147 386.33 1.91916 387.399 2.8444C388.467 3.76965 389.152 5.10793 389.304 6.56933L393.043 43.3781L395.39 66.4755Z" fill="#C7E1FF"/>
<path d="M393.12 43.3682L382.744 44.4938L379.019 7.76219C378.876 6.29476 379.281 4.82631 380.146 3.67691C381.011 2.52751 382.265 1.79036 383.636 1.62614H383.673C385.041 1.48147 386.407 1.91916 387.476 2.8444C388.544 3.76965 389.229 5.10793 389.381 6.56933L393.12 43.3682Z" fill="#D6716B"/>
<path d="M431.045 261.046L379.553 266.61L382.404 296.798L433.896 291.234L431.045 261.046Z" fill="#D6716B"/>
<path d="M397.74 89.5932L386.655 90.7976L386.721 91.4888L397.806 90.2844L397.74 89.5932Z" fill="#35488B"/>
<path d="M398.145 93.8581L387.06 95.0625L387.126 95.7537L398.211 94.5493L398.145 93.8581Z" fill="#35488B"/>
<path d="M398.55 98.1182L387.466 99.3226L387.531 100.014L398.616 98.8094L398.55 98.1182Z" fill="#35488B"/>
<path d="M398.956 102.378L387.871 103.583L387.937 104.274L399.021 103.069L398.956 102.378Z" fill="#35488B"/>
<path d="M399.358 106.646L388.274 107.85L388.339 108.541L399.424 107.337L399.358 106.646Z" fill="#35488B"/>
<path d="M409.289 110.04L379.192 113.311L379.327 114.733L409.424 111.463L409.289 110.04Z" fill="#35488B"/>
<path d="M400.254 116.076L389.169 117.28L389.235 117.971L400.32 116.767L400.254 116.076Z" fill="#35488B"/>
<path d="M400.661 120.328L389.577 121.533L389.642 122.224L400.727 121.019L400.661 120.328Z" fill="#35488B"/>
<path d="M401.065 124.601L389.98 125.805L390.045 126.496L401.13 125.292L401.065 124.601Z" fill="#35488B"/>
<path d="M401.472 128.851L390.387 130.055L390.453 130.746L401.538 129.542L401.472 128.851Z" fill="#35488B"/>
<path d="M401.875 133.121L390.79 134.325L390.856 135.016L401.941 133.812L401.875 133.121Z" fill="#35488B"/>
<path d="M403.085 145.876L392 147.081L392.066 147.772L403.151 146.568L403.085 145.876Z" fill="#35488B"/>
<path d="M403.493 150.131L392.408 151.336L392.474 152.027L403.558 150.823L403.493 150.131Z" fill="#35488B"/>
<path d="M403.896 154.399L392.811 155.603L392.877 156.295L403.961 155.09L403.896 154.399Z" fill="#35488B"/>
<path d="M404.303 158.649L393.219 159.853L393.284 160.545L404.369 159.34L404.303 158.649Z" fill="#35488B"/>
<path d="M404.704 162.926L393.619 164.131L393.685 164.822L404.77 163.618L404.704 162.926Z" fill="#35488B"/>
<path d="M414.632 166.319L384.535 169.589L384.67 171.011L414.767 167.741L414.632 166.319Z" fill="#35488B"/>
<path d="M405.936 175.888L394.851 177.093L394.917 177.784L406.002 176.579L405.936 175.888Z" fill="#35488B"/>
<path d="M406.339 180.151L395.254 181.355L395.32 182.046L406.405 180.842L406.339 180.151Z" fill="#35488B"/>
<path d="M406.742 184.413L395.657 185.618L395.723 186.309L406.808 185.104L406.742 184.413Z" fill="#35488B"/>
<path d="M407.147 188.676L396.062 189.88L396.128 190.571L407.213 189.367L407.147 188.676Z" fill="#35488B"/>
<path d="M407.552 192.938L396.468 194.143L396.533 194.834L407.618 193.63L407.552 192.938Z" fill="#35488B"/>
<path d="M417.481 196.338L387.383 199.608L387.518 201.031L417.616 197.76L417.481 196.338Z" fill="#35488B"/>
<path d="M408.748 205.515L397.664 206.719L397.729 207.41L408.814 206.206L408.748 205.515Z" fill="#35488B"/>
<path d="M409.151 209.778L398.067 210.982L398.132 211.673L409.217 210.469L409.151 209.778Z" fill="#35488B"/>
<path d="M409.556 214.04L398.472 215.244L398.537 215.936L409.622 214.731L409.556 214.04Z" fill="#35488B"/>
<path d="M409.96 218.302L398.875 219.507L398.941 220.198L410.025 218.994L409.96 218.302Z" fill="#35488B"/>
<path d="M406.897 221.445L395.867 222.637L395.932 223.325L406.962 222.133L406.897 221.445Z" fill="#35488B"/>
<path d="M420.296 225.965L390.198 229.235L390.333 230.657L420.431 227.387L420.296 225.965Z" fill="#35488B"/>
<path d="M411.629 235.872L400.545 237.077L400.61 237.768L411.695 236.564L411.629 235.872Z" fill="#35488B"/>
<path d="M408.539 238.931L397.509 240.123L397.574 240.811L408.604 239.619L408.539 238.931Z" fill="#35488B"/>
<path d="M412.44 244.395L401.355 245.599L401.421 246.291L412.505 245.086L412.44 244.395Z" fill="#35488B"/>
<path d="M412.843 248.66L401.758 249.864L401.824 250.556L412.909 249.351L412.843 248.66Z" fill="#35488B"/>
<path d="M413.248 252.922L402.163 254.127L402.229 254.818L413.314 253.613L413.248 252.922Z" fill="#35488B"/>
<path d="M423.176 256.319L393.079 259.59L393.214 261.012L423.311 257.742L423.176 256.319Z" fill="#35488B"/>
<path opacity="0.1" d="M417.497 356.399C412.353 356.943 407.217 355.287 403.212 351.793C399.206 348.299 396.657 343.251 396.121 337.752L371.269 76.1477C370.76 70.6453 372.307 65.1509 375.574 60.8656C378.841 56.5803 383.56 53.8529 388.702 53.2795C393.846 52.7343 398.982 54.3901 402.989 57.8849C406.995 61.3798 409.544 66.4292 410.08 71.9292L434.931 333.533C435.44 339.035 433.892 344.53 430.625 348.814C427.358 353.099 422.638 355.826 417.497 356.399Z" fill="#35488B"/>
<path d="M406.15 137.825C406.122 137.536 406.175 137.245 406.302 136.988C406.429 136.732 406.625 136.522 406.863 136.384C407.102 136.246 407.374 136.187 407.644 136.215C407.914 136.242 408.17 136.355 408.381 136.538C408.591 136.722 408.745 136.968 408.825 137.245C408.904 137.523 408.905 137.819 408.827 138.097C408.749 138.375 408.596 138.622 408.386 138.807C408.177 138.991 407.921 139.105 407.651 139.134C407.29 139.173 406.929 139.057 406.647 138.812C406.366 138.566 406.187 138.211 406.15 137.825Z" fill="#D6716B"/>
<path d="M401.788 137.607L383.146 139.632L383.281 141.054L401.923 139.029L401.788 137.607Z" fill="#D6716B"/>
<path d="M391.558 67.7879L411.265 275.228C411.291 275.636 411.168 276.039 410.922 276.352C410.676 276.665 410.325 276.863 409.945 276.904C409.564 276.945 409.184 276.826 408.884 276.572C408.584 276.319 408.388 275.95 408.338 275.544L388.634 68.1166C388.595 67.7019 388.711 67.2873 388.957 66.9641C389.203 66.6409 389.559 66.4356 389.947 66.3934C390.335 66.3511 390.722 66.4753 391.025 66.7387C391.327 67.0021 391.519 67.3831 391.558 67.7979V67.7879Z" fill="#35488B"/>
<path d="M391.558 67.7879L397.844 133.955L394.92 134.273L388.634 68.1066C388.595 67.6919 388.711 67.2773 388.957 66.9541C389.203 66.6309 389.559 66.4256 389.947 66.3833C390.335 66.3411 390.722 66.4653 391.025 66.7287C391.327 66.9921 391.519 67.3731 391.558 67.7879Z" fill="#D6716B"/>
<path opacity="0.3" d="M146.536 219.476C146.536 219.476 157.447 191.358 178.811 194.688C200.175 198.017 237.887 197.056 262.827 180.695C287.766 164.334 309.231 172.034 309.231 172.034V317.356H146.536V219.476Z" fill="#7DABBD"/>
<path d="M37.2852 222.404C37.2852 222.404 95.3153 222.723 134.13 241.619C134.13 241.619 128.322 341.23 64.3436 356.473C64.3459 356.473 10.0313 321.941 37.2852 222.404Z" fill="white"/>
<path d="M42.6769 229.895C42.6769 229.895 95.4154 232.98 125.656 246.254C125.656 246.254 122.527 327.477 66.625 346.711C66.625 346.711 22.4675 323.405 42.6769 229.895Z" fill="#5E73E7"/>
<path d="M100.74 276.652L85.3002 273.609L88.0752 257.505L73.9349 254.716L71.1623 270.823L56.4866 267.929L53.8792 283.055L68.5549 285.949L65.7823 302.053L79.9202 304.842L82.6952 288.735L98.1322 291.778L100.74 276.652Z" fill="white"/>
<path d="M213.703 153.533C204.624 156.599 188.896 148.324 188.896 148.324C188.896 148.324 195.985 142.633 196.779 130.827C196.779 130.665 196.8 130.503 196.807 130.329C196.853 129.455 196.865 128.543 196.837 127.602L199.323 129.746L208.635 137.775C208.635 137.775 208.17 141.732 207.967 148.326C209.24 149.073 210.432 149.969 211.52 150.998C212.335 151.752 213.068 152.602 213.703 153.533Z" fill="#F4AC75"/>
<path d="M178.811 147.058C178.811 147.058 202.827 143.007 218.65 154.211C218.65 154.211 229.399 229.38 220.047 236.492C210.696 243.604 178.821 236.492 178.821 236.492L178.811 147.058Z" fill="#F4AC75"/>
<path d="M210.861 317.356H167.462C167.462 317.356 172.505 238.145 173.946 218.863C175.11 203.222 177.589 165.723 178.483 152.109C178.69 148.936 178.811 147.059 178.811 147.059L189.173 145.171L206.966 169.842C206.966 169.842 209.781 235.633 209.678 246.002C209.576 256.372 210.803 296.774 210.861 303.568C210.919 310.361 210.861 317.356 210.861 317.356Z" fill="#E9F2FF"/>
<path d="M206.98 169.842L210.87 317.356H231.317C231.317 317.356 230.372 220.335 230.302 211.422C230.232 202.509 232.523 164.107 226.142 158.15C220.808 153.17 207.983 148.331 207.983 148.331L206.98 169.842Z" fill="#E9F2FF"/>
<path d="M208.093 144.927C208.093 144.927 213.913 149.223 213.703 150.764C213.494 152.305 212.684 154.748 212.684 154.748L209.12 153.974L212.127 156.24C212.127 156.24 208.717 166.881 206.969 169.845L208.093 144.927Z" fill="#E9F2FF"/>
<path opacity="0.2" d="M176.039 188.868C178.599 172.088 208.079 196.884 205.628 218.891C201.093 259.602 181.78 304.997 167.462 317.356L176.039 188.868Z" fill="#B2CBFD"/>
<path d="M196.779 130.822C196.763 130.664 196.717 130.511 196.646 130.371L196.807 130.334L199.323 129.751L208.635 137.78C208.635 137.78 208.233 141.515 207.937 148.348C207.911 148.316 198.348 142.648 196.779 130.822Z" fill="#C97C47"/>
<path d="M212.423 140.218C212.423 140.218 196.218 139.72 196.655 128.942C197.093 118.164 195.296 110.82 205.663 110.673C216.029 110.526 217.871 114.737 218.543 118.378C219.216 122.019 216.651 140.066 212.423 140.218Z" fill="#F4AC75"/>
<path d="M196.646 130.374C196.646 130.374 198.758 130.971 200.429 128.588C202.101 126.205 204.885 117.026 208.563 116.431C212.241 115.835 217.086 118.754 218.65 117.085C220.927 114.652 223.867 110.673 223.867 110.673C223.867 110.673 205.628 96.7623 198.348 103.202C191.068 109.642 188.519 119.05 196.646 130.374Z" fill="#2C3A64"/>
<path d="M218.534 168.911C218.192 162.227 214.781 151.339 214.753 151.23L215.724 151.69C215.847 152.126 218.557 162.065 218.906 168.891L218.534 168.911Z" fill="#2C3A64"/>
<path d="M194.933 188.868C194.591 188.487 186.247 179.903 188.026 173.891C188.724 171.548 189.997 170.626 191.352 169.944C192.614 169.446 195.561 168.948 197.086 169.964C199.866 171.834 201.277 177.004 201.677 185.603L201.339 185.62C200.851 175.423 198.392 171.73 196.555 170.898C194.248 169.849 190.198 170.285 188.924 174.235C188.046 176.957 189.767 180.759 191.366 183.372C193.14 186.273 195.075 188.85 195.091 188.868H194.933Z" fill="#2C3A64"/>
<path d="M195.806 189.794C195.651 189.959 195.442 190.052 195.224 190.052C195.006 190.052 194.796 189.959 194.642 189.794L194.069 189.184C193.915 189.019 193.828 188.795 193.828 188.561C193.828 188.328 193.915 188.104 194.069 187.939C194.224 187.774 194.433 187.681 194.651 187.681C194.869 187.681 195.079 187.774 195.233 187.939L195.803 188.549C195.958 188.714 196.045 188.938 196.045 189.171C196.046 189.404 195.96 189.629 195.806 189.794Z" fill="#FB7369"/>
<path d="M201.54 187.244C201.322 187.243 201.113 187.151 200.959 186.986C200.805 186.821 200.718 186.598 200.718 186.365V185.501C200.718 185.268 200.805 185.045 200.959 184.88C201.113 184.715 201.322 184.622 201.54 184.622C201.757 184.622 201.966 184.715 202.12 184.88C202.274 185.045 202.361 185.268 202.361 185.501V186.365C202.361 186.598 202.274 186.821 202.12 186.986C201.966 187.151 201.757 187.243 201.54 187.244Z" fill="#FB7369"/>
<path d="M216.42 168.911C216.42 168.439 216.55 167.977 216.795 167.585C217.04 167.192 217.388 166.886 217.795 166.705C218.203 166.524 218.651 166.476 219.084 166.568C219.517 166.66 219.914 166.887 220.227 167.22C220.539 167.554 220.751 167.979 220.838 168.442C220.924 168.905 220.88 169.384 220.711 169.821C220.542 170.257 220.257 170.629 219.89 170.892C219.523 171.154 219.092 171.294 218.65 171.294C218.358 171.294 218.068 171.233 217.797 171.113C217.527 170.993 217.281 170.818 217.074 170.597C216.866 170.375 216.702 170.113 216.59 169.823C216.478 169.534 216.42 169.224 216.42 168.911Z" fill="#2C3A64"/>
<path d="M217.6 168.911C217.6 168.671 217.667 168.436 217.792 168.237C217.916 168.037 218.094 167.882 218.301 167.79C218.508 167.698 218.736 167.674 218.956 167.721C219.176 167.768 219.378 167.884 219.537 168.054C219.695 168.224 219.803 168.44 219.846 168.676C219.89 168.911 219.867 169.155 219.781 169.377C219.695 169.598 219.549 169.787 219.362 169.92C219.176 170.053 218.956 170.124 218.732 170.124C218.432 170.123 218.144 169.995 217.932 169.767C217.72 169.54 217.6 169.232 217.6 168.911Z" fill="#D6716B"/>
<path d="M208.549 317.356C208.535 317.207 207.131 302.35 207.537 289.435C207.709 283.979 207.562 277.564 207.422 271.358C207.225 262.51 206.78 253.988 207.448 248.43C208.591 238.922 208.363 195.699 207.895 191.014C207.429 186.447 207.874 181.437 208.298 179.925C208.721 178.414 206.88 169.964 206.859 169.872L207.076 169.812C207.162 170.166 209.157 178.466 208.705 180.07C208.286 181.564 207.662 186.455 208.116 190.987C208.582 195.676 209.485 238.892 208.349 248.41C207.683 253.949 207.457 262.513 207.651 271.353C207.79 277.561 207.935 283.979 207.765 289.443C207.36 302.342 209.406 317.207 209.422 317.356H208.549Z" fill="#B2CBFD"/>
<path d="M244.487 198.697C244.487 198.697 249.976 208.81 244.219 211.47C238.462 214.129 237.84 211.325 237.84 211.325L244.487 198.697Z" fill="#E9F2FF"/>
<path d="M198.478 204.925C198.478 204.925 199.351 206.83 199.254 208.541C199.151 210.332 198.367 213.024 198.367 213.024C198.367 213.024 164.466 220.743 157.88 214.289C150.808 207.363 163.933 155.311 169.546 150.219C171.967 148.025 177.07 146.685 181.78 145.883C184.378 145.44 186.852 145.161 188.696 144.992C190.593 144.815 191.825 144.757 191.825 144.757L191.059 147.781L188.086 159.532L184.631 173.249C184.631 173.249 174.269 196.062 173.923 198.209C173.576 200.355 198.478 204.925 198.478 204.925Z" fill="#E9F2FF"/>
<path opacity="0.2" d="M203.197 166.196C203.197 166.196 194.551 162.169 188.34 158.501C184.282 156.106 182.206 151.621 181.78 145.891C184.378 145.447 186.852 145.168 188.696 144.999C188.994 145.101 189.162 145.171 189.162 145.171L191.047 147.788L203.197 166.196Z" fill="#B2CBFD"/>
<path d="M206.98 169.842L193.515 142.374C193.515 142.374 188.493 143.465 186.806 145.156C186.806 145.156 187.662 153.416 188.333 155.244C188.333 155.244 190.931 154.925 191.303 155.164C191.303 155.164 190.039 157.229 189.674 157.468C189.657 157.468 201.363 163.305 206.98 169.842Z" fill="#E9F2FF"/>
<path d="M191.383 170.898C190.451 168.724 182.352 150.199 184.417 145.497L185.211 145.392C183.647 148.964 189.266 165.066 191.708 170.836L191.383 170.898Z" fill="#2C3A64"/>
<path opacity="0.5" d="M209.257 186.933C209.257 186.704 209.32 186.48 209.439 186.29C209.558 186.099 209.727 185.951 209.925 185.863C210.123 185.775 210.341 185.752 210.551 185.797C210.761 185.842 210.954 185.952 211.105 186.114C211.256 186.276 211.359 186.482 211.401 186.707C211.443 186.932 211.422 187.164 211.34 187.376C211.258 187.588 211.119 187.768 210.941 187.896C210.763 188.023 210.554 188.091 210.339 188.091C210.052 188.091 209.777 187.969 209.574 187.752C209.371 187.535 209.257 187.24 209.257 186.933Z" fill="#B2CBFD"/>
<path opacity="0.5" d="M209.257 251.708C209.257 251.479 209.32 251.255 209.439 251.064C209.558 250.874 209.727 250.725 209.925 250.638C210.123 250.55 210.341 250.527 210.551 250.572C210.761 250.616 210.954 250.727 211.105 250.889C211.256 251.051 211.359 251.257 211.401 251.482C211.443 251.706 211.422 251.939 211.34 252.151C211.258 252.362 211.119 252.543 210.941 252.67C210.763 252.798 210.554 252.866 210.339 252.866C210.052 252.866 209.777 252.744 209.574 252.526C209.371 252.309 209.257 252.015 209.257 251.708Z" fill="#B2CBFD"/>
<path opacity="0.5" d="M209.804 222.105C209.804 221.877 209.867 221.653 209.986 221.463C210.105 221.273 210.273 221.125 210.471 221.038C210.668 220.95 210.885 220.928 211.095 220.972C211.304 221.017 211.497 221.127 211.648 221.288C211.799 221.45 211.902 221.656 211.944 221.88C211.985 222.104 211.964 222.336 211.882 222.548C211.8 222.759 211.662 222.939 211.484 223.066C211.307 223.193 211.098 223.261 210.884 223.261C210.742 223.261 210.602 223.231 210.471 223.173C210.34 223.115 210.221 223.03 210.12 222.922C210.02 222.815 209.94 222.688 209.886 222.548C209.832 222.407 209.804 222.257 209.804 222.105Z" fill="#B2CBFD"/>
<path opacity="0.5" d="M209.804 279.853C209.804 279.624 209.868 279.401 209.987 279.211C210.106 279.022 210.275 278.874 210.472 278.787C210.67 278.7 210.887 278.677 211.096 278.722C211.306 278.767 211.498 278.877 211.649 279.039C211.8 279.201 211.902 279.407 211.944 279.631C211.985 279.855 211.964 280.087 211.882 280.298C211.8 280.509 211.662 280.689 211.484 280.816C211.306 280.943 211.098 281.011 210.884 281.011C210.742 281.011 210.601 280.981 210.47 280.923C210.339 280.864 210.22 280.779 210.12 280.671C210.019 280.564 209.94 280.436 209.886 280.296C209.831 280.155 209.804 280.005 209.804 279.853Z" fill="#B2CBFD"/>
<path d="M197.845 151.235C197.845 151.235 201.593 153.207 207.648 151.982L206.968 169.837L197.845 151.235Z" fill="#7A97F3"/>
<path d="M221.514 172.36L256.576 175.721L235.181 216.373L202.182 214.346L221.514 172.36Z" fill="#D6716B"/>
<path d="M224.745 172.173C224.745 172.173 224.761 166.425 227.73 166.824C230.698 167.222 231.596 172.992 231.596 172.992L224.745 172.173Z" fill="#B2CBFD"/>
<path d="M256.348 175.209L221.286 171.847L201.952 213.833L202.189 214.353L221.523 172.37L256.583 175.729L256.348 175.209Z" fill="#FB7369"/>
<path d="M227.73 166.824C227.73 166.824 232.684 169.426 230.933 177.761C229.182 186.096 227.001 190.673 228.272 195.604L251.892 197.922C251.892 197.922 249.331 191.368 252.176 184.724C255.021 178.08 253 170.507 250.383 169.847L227.73 166.824Z" fill="#E9F2FF"/>
<path d="M239.526 208.817C239.526 208.817 235.936 204.203 236.678 200.866C237.421 197.529 240.096 196.757 241.73 197.937C243.364 199.118 245.741 201.817 245.294 203.884C244.847 205.951 241.334 209.764 239.526 208.817Z" fill="#F4AC75"/>
<path d="M196.686 206.058C196.686 206.058 202.769 203.197 205.553 204.031C208.337 204.865 212.097 205.463 212.39 206.536C212.684 207.61 210.388 211.579 206.969 211.778C203.549 211.978 197.531 213.686 196.083 211.778C194.635 209.871 196.686 206.058 196.686 206.058Z" fill="#F4AC75"/>
<path d="M329.871 98.6599H245.597C244.647 98.6625 243.736 99.0674 243.064 99.7859C242.392 100.504 242.013 101.478 242.01 102.495V141.495C242.012 142.512 242.391 143.487 243.063 144.206C243.735 144.925 244.646 145.33 245.597 145.333H250.379V155.563L265.278 145.333H329.864C330.814 145.329 331.724 144.924 332.396 144.205C333.068 143.486 333.446 142.512 333.449 141.495V102.495C333.446 101.48 333.068 100.508 332.398 99.7894C331.728 99.0711 330.819 98.6652 329.871 98.6599Z" fill="#FF7469"/>
<g opacity="0.4">
<path opacity="0.4" d="M321.501 114.324H253.964C253.33 114.322 252.723 114.052 252.275 113.572C251.827 113.093 251.575 112.444 251.573 111.766C251.575 111.089 251.827 110.439 252.275 109.96C252.723 109.481 253.33 109.211 253.964 109.209H321.501C322.135 109.211 322.742 109.481 323.191 109.96C323.639 110.439 323.892 111.088 323.895 111.766C323.892 112.444 323.639 113.094 323.191 113.573C322.742 114.052 322.135 114.322 321.501 114.324Z" fill="#FF9591"/>
<path opacity="0.4" d="M321.502 123.595H253.964C253.33 123.593 252.723 123.323 252.275 122.844C251.827 122.365 251.575 121.715 251.573 121.038C251.575 120.36 251.827 119.71 252.275 119.231C252.723 118.752 253.33 118.482 253.964 118.48H321.502C322.135 118.482 322.743 118.752 323.191 119.231C323.639 119.71 323.892 120.36 323.895 121.038C323.892 121.715 323.639 122.365 323.191 122.844C322.743 123.323 322.135 123.593 321.502 123.595Z" fill="#FF9591"/>
<path opacity="0.4" d="M321.502 132.864H253.964C253.33 132.862 252.723 132.592 252.275 132.113C251.827 131.633 251.575 130.984 251.573 130.306C251.575 129.629 251.827 128.979 252.275 128.5C252.723 128.021 253.33 127.751 253.964 127.749H321.502C322.135 127.751 322.743 128.021 323.191 128.5C323.639 128.979 323.892 129.628 323.895 130.306C323.892 130.984 323.639 131.634 323.191 132.113C322.743 132.592 322.135 132.862 321.502 132.864Z" fill="#FF9591"/>
</g>
<path d="M578.415 34.1542H494.141C493.192 34.1574 492.282 34.5618 491.61 35.2791C490.938 35.9965 490.559 36.9688 490.554 37.9842V76.992C490.557 78.0085 490.936 78.9824 491.608 79.701C492.28 80.4196 493.191 80.8244 494.141 80.827H498.923V91.0571L513.822 80.827H578.408C579.358 80.8237 580.268 80.4186 580.94 79.7001C581.611 78.9816 581.99 78.0081 581.993 76.992V37.9842C581.989 36.9703 581.611 35.9991 580.94 35.2819C580.27 34.5647 579.363 34.1594 578.415 34.1542Z" fill="#FF7469"/>
<g opacity="0.4">
<path opacity="0.4" d="M570.049 49.8181H502.509C501.875 49.8161 501.268 49.546 500.82 49.0668C500.372 48.5876 500.12 47.9382 500.118 47.2605C500.121 46.5837 500.374 45.9356 500.822 45.4575C501.269 44.9794 501.876 44.71 502.509 44.708H570.049C570.682 44.71 571.288 44.9797 571.736 45.4584C572.184 45.937 572.437 46.5858 572.439 47.263C572.437 47.9403 572.184 48.589 571.736 49.0677C571.288 49.5464 570.682 49.8161 570.049 49.8181Z" fill="#FF9591"/>
<path opacity="0.4" d="M570.048 59.0894H502.508C501.874 59.0874 501.267 58.8173 500.819 58.3381C500.371 57.8589 500.119 57.2096 500.117 56.5319C500.119 55.8542 500.371 55.2048 500.819 54.7256C501.267 54.2464 501.874 53.9763 502.508 53.9744H570.048C570.681 53.9763 571.288 54.2464 571.736 54.7256C572.184 55.2048 572.437 55.8542 572.439 56.5319C572.437 57.2096 572.184 57.8589 571.736 58.3381C571.288 58.8173 570.681 59.0874 570.048 59.0894Z" fill="#FF9591"/>
<path opacity="0.4" d="M570.048 68.3656H502.508C501.874 68.3637 501.267 68.0936 500.819 67.6144C500.371 67.1352 500.119 66.4858 500.117 65.8081C500.119 65.1304 500.371 64.4811 500.819 64.0019C501.267 63.5227 501.874 63.2526 502.508 63.2506H570.048C570.681 63.2526 571.288 63.5227 571.736 64.0019C572.184 64.4811 572.437 65.1304 572.439 65.8081C572.437 66.4858 572.184 67.1352 571.736 67.6144C571.288 68.0936 570.681 68.3637 570.048 68.3656Z" fill="#FF9591"/>
</g>
<path d="M223.02 41.4806H159.033C158.703 41.4806 158.437 41.766 158.437 42.1181V78.0279C158.437 78.38 158.703 78.6654 159.033 78.6654H223.02C223.349 78.6654 223.616 78.38 223.616 78.0279V42.1181C223.616 41.766 223.349 41.4806 223.02 41.4806Z" fill="#EAF1F8"/>
<path d="M298.077 41.4806H233.449C233.12 41.4806 232.854 41.766 232.854 42.1181V78.0279C232.854 78.38 233.12 78.6654 233.449 78.6654H298.077C298.406 78.6654 298.673 78.38 298.673 78.0279V42.1181C298.673 41.766 298.406 41.4806 298.077 41.4806Z" fill="#EAF1F8"/>
<path d="M184.336 50.0621C179.633 49.2055 177.1 54.45 177.1 54.45C177.1 54.45 174.57 49.2055 169.867 50.0621C165.165 50.9188 163.814 55.9491 165.074 59.4828C166.333 63.0166 177.1 72.3252 177.1 72.3252C177.1 72.3252 187.865 63.0141 189.129 59.4828C190.393 55.9516 189.038 50.9188 184.336 50.0621Z" fill="#D6716B"/>
<path d="M179.584 63.8557L180.022 59.9136H176.174V57.7146L174.169 63.8333V59.54H172.13L170.824 63.6141L169.844 57.3934L168.363 60.5486L168.163 60.4415L169.951 56.6339L170.898 62.6504L171.972 59.301H174.39V62.4337L176.397 56.3126V59.677H180.273L179.968 62.4113L182.562 56.477V59.5774H184.883V61.2608L185.839 58.8751L186.044 58.9673L184.662 62.4213V59.814H182.341V57.5503L179.584 63.8557Z" fill="#EAF1F8"/>
<path d="M216.811 53.5635H195.037C194.753 53.5621 194.481 53.4407 194.281 53.2256C194.08 53.0105 193.967 52.7193 193.967 52.4154C193.967 52.1118 194.08 51.8208 194.281 51.6062C194.482 51.3915 194.754 51.2706 195.037 51.2699H216.811C217.095 51.2706 217.368 51.3914 217.569 51.606C217.77 51.8206 217.883 52.1116 217.884 52.4154C217.884 52.7197 217.771 53.0113 217.569 53.2265C217.368 53.4416 217.096 53.5628 216.811 53.5635Z" fill="#B2CBFD"/>
<path d="M216.811 58.3148H195.037C194.753 58.3135 194.481 58.1921 194.281 57.977C194.08 57.7619 193.967 57.4707 193.967 57.1668C193.967 56.863 194.08 56.5717 194.281 56.3566C194.481 56.1416 194.753 56.0201 195.037 56.0188H216.811C217.096 56.0195 217.368 56.1406 217.569 56.3558C217.771 56.5709 217.884 56.8626 217.884 57.1668C217.884 57.4711 217.771 57.7627 217.569 57.9779C217.368 58.193 217.096 58.3142 216.811 58.3148Z" fill="#B2CBFD"/>
<path d="M216.811 63.5942H195.037C194.754 63.5935 194.482 63.4726 194.281 63.2579C194.08 63.0433 193.967 62.7523 193.967 62.4487C193.967 62.1448 194.08 61.8536 194.281 61.6385C194.481 61.4234 194.753 61.302 195.037 61.3007H216.811C217.096 61.3013 217.368 61.4225 217.569 61.6376C217.771 61.8528 217.884 62.1444 217.884 62.4487C217.883 62.7525 217.77 63.0435 217.569 63.2581C217.368 63.4727 217.095 63.5935 216.811 63.5942Z" fill="#B2CBFD"/>
<path d="M216.811 68.8762H195.037C194.753 68.8749 194.481 68.7534 194.281 68.5383C194.08 68.3232 193.967 68.032 193.967 67.7282C193.967 67.4246 194.08 67.1336 194.281 66.9189C194.482 66.7042 194.754 66.5833 195.037 66.5826H216.811C217.095 66.5833 217.368 66.7041 217.569 66.9187C217.77 67.1333 217.883 67.4243 217.884 67.7282C217.884 68.0324 217.771 68.3241 217.569 68.5392C217.368 68.7544 217.096 68.8755 216.811 68.8762Z" fill="#B2CBFD"/>
<path d="M285.667 53.5635H263.893C263.609 53.5621 263.337 53.4407 263.136 53.2256C262.936 53.0105 262.823 52.7193 262.822 52.4154C262.823 52.1118 262.936 51.8208 263.136 51.6062C263.337 51.3915 263.609 51.2706 263.893 51.2699H285.667C285.951 51.2706 286.223 51.3914 286.424 51.606C286.625 51.8206 286.739 52.1116 286.74 52.4154C286.739 52.7197 286.626 53.0113 286.425 53.2265C286.224 53.4416 285.951 53.5628 285.667 53.5635Z" fill="#B2CBFD"/>
<path d="M285.667 58.3148H263.893C263.609 58.3135 263.337 58.1921 263.136 57.977C262.936 57.7619 262.823 57.4707 262.822 57.1668C262.823 56.863 262.936 56.5717 263.136 56.3566C263.337 56.1416 263.609 56.0201 263.893 56.0188H285.667C285.951 56.0195 286.224 56.1406 286.425 56.3558C286.626 56.5709 286.739 56.8626 286.74 57.1668C286.739 57.4711 286.626 57.7627 286.425 57.9779C286.224 58.193 285.951 58.3142 285.667 58.3148Z" fill="#B2CBFD"/>
<path d="M285.667 63.5942H263.893C263.609 63.5935 263.337 63.4726 263.136 63.2579C262.936 63.0433 262.823 62.7523 262.822 62.4487C262.823 62.1448 262.936 61.8536 263.136 61.6385C263.337 61.4234 263.609 61.302 263.893 61.3007H285.667C285.951 61.3013 286.224 61.4225 286.425 61.6376C286.626 61.8528 286.739 62.1444 286.74 62.4487C286.739 62.7525 286.625 63.0435 286.424 63.2581C286.223 63.4727 285.951 63.5935 285.667 63.5942Z" fill="#B2CBFD"/>
<path d="M285.667 68.8762H263.893C263.609 68.8749 263.337 68.7534 263.136 68.5383C262.936 68.3232 262.823 68.032 262.822 67.7282C262.823 67.4246 262.936 67.1336 263.136 66.9189C263.337 66.7042 263.609 66.5833 263.893 66.5826H285.667C285.951 66.5833 286.223 66.7041 286.424 66.9187C286.625 67.1333 286.739 67.4243 286.74 67.7282C286.739 68.0324 286.626 68.3241 286.425 68.5392C286.224 68.7544 285.951 68.8755 285.667 68.8762Z" fill="#B2CBFD"/>
<path d="M294.187 276.712H258.08C257.608 276.712 257.156 276.913 256.822 277.27C256.489 277.626 256.301 278.11 256.301 278.615C256.301 279.12 256.489 279.603 256.822 279.96C257.156 280.317 257.608 280.518 258.08 280.518H294.187C294.659 280.518 295.111 280.317 295.445 279.96C295.778 279.603 295.966 279.12 295.966 278.615C295.966 278.11 295.778 277.626 295.445 277.27C295.111 276.913 294.659 276.712 294.187 276.712Z" fill="#EAF1F8"/>
<path d="M294.187 284.589H258.08C257.841 284.58 257.602 284.622 257.379 284.714C257.155 284.805 256.951 284.944 256.779 285.122C256.607 285.299 256.47 285.512 256.376 285.748C256.283 285.984 256.235 286.237 256.235 286.493C256.235 286.749 256.283 287.002 256.376 287.238C256.47 287.473 256.607 287.686 256.779 287.864C256.951 288.042 257.155 288.181 257.379 288.272C257.602 288.364 257.841 288.406 258.08 288.397H294.187C294.648 288.379 295.085 288.171 295.405 287.815C295.725 287.46 295.904 286.986 295.904 286.493C295.904 286 295.725 285.526 295.405 285.17C295.085 284.815 294.648 284.607 294.187 284.589Z" fill="#EAF1F8"/>
<path d="M294.187 293.347H258.08C257.608 293.347 257.156 293.548 256.822 293.905C256.489 294.261 256.301 294.745 256.301 295.25C256.301 295.755 256.489 296.239 256.822 296.595C257.156 296.952 257.608 297.153 258.08 297.153H294.187C294.659 297.153 295.111 296.952 295.445 296.595C295.778 296.239 295.966 295.755 295.966 295.25C295.966 294.745 295.778 294.261 295.445 293.905C295.111 293.548 294.659 293.347 294.187 293.347Z" fill="#EAF1F8"/>
<path d="M294.187 302.106H258.08C257.608 302.106 257.156 302.306 256.822 302.663C256.489 303.02 256.301 303.504 256.301 304.008C256.301 304.513 256.489 304.997 256.822 305.354C257.156 305.71 257.608 305.911 258.08 305.911H294.187C294.659 305.911 295.111 305.71 295.445 305.354C295.778 304.997 295.966 304.513 295.966 304.008C295.966 303.504 295.778 303.02 295.445 302.663C295.111 302.306 294.659 302.106 294.187 302.106Z" fill="#EAF1F8"/>
<path d="M294.187 235.316H258.08C257.608 235.318 257.156 235.519 256.823 235.875C256.489 236.231 256.301 236.715 256.299 237.219C256.3 237.724 256.488 238.207 256.822 238.564C257.156 238.92 257.608 239.121 258.08 239.122H294.187C294.659 239.121 295.111 238.92 295.444 238.564C295.778 238.207 295.965 237.723 295.966 237.219C295.965 236.715 295.777 236.232 295.443 235.875C295.11 235.519 294.658 235.318 294.187 235.316Z" fill="#EAF1F8"/>
<path d="M294.187 243.196H258.08C257.608 243.197 257.156 243.398 256.823 243.754C256.489 244.111 256.301 244.594 256.299 245.098C256.301 245.603 256.489 246.086 256.823 246.442C257.156 246.799 257.608 247 258.08 247.001H294.187C294.658 247 295.11 246.799 295.443 246.442C295.777 246.086 295.965 245.603 295.966 245.098C295.965 244.594 295.777 244.111 295.443 243.755C295.11 243.398 294.658 243.197 294.187 243.196Z" fill="#EAF1F8"/>
<path d="M294.187 251.954H258.08C257.608 251.955 257.156 252.156 256.823 252.513C256.489 252.869 256.301 253.352 256.299 253.857C256.301 254.361 256.489 254.844 256.823 255.201C257.156 255.557 257.608 255.758 258.08 255.759H294.187C294.658 255.758 295.11 255.557 295.443 255.201C295.777 254.844 295.965 254.361 295.966 253.857C295.965 253.352 295.777 252.869 295.443 252.513C295.11 252.156 294.658 251.955 294.187 251.954Z" fill="#EAF1F8"/>
<path d="M294.187 260.712H258.08C257.608 260.714 257.156 260.915 256.823 261.271C256.489 261.627 256.301 262.111 256.299 262.615C256.301 263.119 256.489 263.603 256.823 263.959C257.156 264.315 257.608 264.516 258.08 264.518H294.187C294.658 264.516 295.11 264.315 295.443 263.959C295.777 263.602 295.965 263.119 295.966 262.615C295.965 262.111 295.777 261.628 295.443 261.271C295.11 260.915 294.658 260.714 294.187 260.712Z" fill="#EAF1F8"/>
<path d="M241.395 64.9763C240.892 67.499 241.414 71.8171 246.684 73.5952C251.955 75.3732 255.843 70.953 256.283 66.595C256.723 62.237 248.297 46.1473 248.297 46.1473C248.297 46.1473 242.403 59.9285 241.395 64.9763Z" fill="#D6716B"/>
<path d="M251.773 64.6999H249.445V62.2097C249.445 62.0175 249.374 61.8331 249.247 61.6972C249.12 61.5613 248.947 61.485 248.768 61.485C248.588 61.485 248.416 61.5613 248.289 61.6972C248.162 61.8331 248.09 62.0175 248.09 62.2097V64.6999H245.762C245.583 64.6999 245.41 64.7763 245.283 64.9122C245.156 65.0481 245.085 65.2324 245.085 65.4246C245.085 65.6168 245.156 65.8011 245.283 65.937C245.41 66.0729 245.583 66.1493 245.762 66.1493H248.09V68.6395C248.09 68.8317 248.162 69.0161 248.289 69.152C248.416 69.2879 248.588 69.3642 248.768 69.3642C248.947 69.3642 249.12 69.2879 249.247 69.152C249.374 69.0161 249.445 68.8317 249.445 68.6395V66.1493H251.773C251.953 66.1493 252.125 66.0729 252.252 65.937C252.379 65.8011 252.451 65.6168 252.451 65.4246C252.451 65.2324 252.379 65.0481 252.252 64.9122C252.125 64.7763 251.953 64.6999 251.773 64.6999Z" fill="#EAF1F8"/>
<path d="M251.412 235.319H237.628C237.493 235.319 237.384 235.436 237.384 235.58V250.325C237.384 250.47 237.493 250.587 237.628 250.587H251.412C251.547 250.587 251.657 250.47 251.657 250.325V235.58C251.657 235.436 251.547 235.319 251.412 235.319Z" fill="#EAF1F8"/>
<path d="M251.412 276.712H237.628C237.493 276.712 237.384 276.829 237.384 276.974V291.719C237.384 291.863 237.493 291.98 237.628 291.98H251.412C251.547 291.98 251.657 291.863 251.657 291.719V276.974C251.657 276.829 251.547 276.712 251.412 276.712Z" fill="#EAF1F8"/>
<path d="M240.264 283.695L242.887 289.851L249.236 279.115L242.459 285.212L240.264 283.695Z" fill="#D6716B"/>
<path d="M240.264 242.165L242.887 248.318L249.236 237.585L242.459 243.681L240.264 242.165Z" fill="#D6716B"/>
</svg>
