<svg width="552" height="551" viewBox="0 0 552 551" fill="none" xmlns="http://www.w3.org/2000/svg">
<g opacity="0.3">
<path d="M185.344 226.866C185.361 226.456 185.541 226.069 185.844 225.791C186.146 225.512 186.547 225.365 186.958 225.381C188.625 225.447 190.32 225.441 191.995 225.363C192.401 225.345 192.799 225.486 193.102 225.757C193.405 226.027 193.59 226.406 193.617 226.811V226.841C193.626 227.045 193.595 227.249 193.525 227.441C193.455 227.633 193.348 227.809 193.21 227.96C193.071 228.111 192.905 228.233 192.719 228.319C192.534 228.405 192.333 228.454 192.129 228.463C190.366 228.545 188.582 228.551 186.827 228.482C186.444 228.467 186.08 228.311 185.806 228.044C185.531 227.777 185.365 227.418 185.34 227.036C185.337 226.979 185.339 226.923 185.344 226.866ZM200.122 224.422C201.769 224.125 203.42 223.74 205.032 223.299C205.23 223.24 205.438 223.221 205.644 223.244C205.85 223.266 206.049 223.329 206.23 223.429C206.411 223.53 206.57 223.665 206.698 223.828C206.826 223.99 206.92 224.176 206.975 224.376C207.03 224.575 207.044 224.783 207.017 224.988C206.99 225.193 206.923 225.39 206.818 225.569C206.714 225.747 206.575 225.903 206.409 226.027C206.244 226.151 206.055 226.241 205.854 226.292C204.163 226.755 202.432 227.153 200.69 227.48C200.285 227.554 199.866 227.465 199.526 227.232C199.187 226.998 198.954 226.64 198.879 226.235C198.867 226.175 198.86 226.114 198.857 226.053C198.83 225.674 198.944 225.298 199.177 224.997C199.409 224.697 199.745 224.492 200.119 224.422H200.122ZM212.743 220.595C214.277 219.934 215.802 219.197 217.274 218.407C217.454 218.305 217.653 218.239 217.859 218.215C218.064 218.19 218.273 218.207 218.472 218.264C218.671 218.322 218.857 218.418 219.018 218.548C219.18 218.678 219.313 218.838 219.412 219.021C219.51 219.203 219.57 219.403 219.59 219.609C219.61 219.815 219.588 220.022 219.526 220.22C219.464 220.417 219.363 220.6 219.229 220.758C219.096 220.916 218.932 221.046 218.747 221.14C217.196 221.973 215.591 222.748 213.975 223.443C213.787 223.531 213.582 223.58 213.375 223.588C213.167 223.596 212.959 223.561 212.765 223.488C212.57 223.414 212.393 223.302 212.242 223.158C212.092 223.015 211.972 222.843 211.89 222.652C211.807 222.461 211.764 222.256 211.762 222.049C211.761 221.841 211.801 221.635 211.881 221.443C211.96 221.251 212.078 221.077 212.226 220.932C212.374 220.786 212.55 220.671 212.743 220.595ZM224.191 214.046C225.54 213.057 226.869 212 228.12 210.901C228.432 210.643 228.833 210.517 229.237 210.549C229.641 210.582 230.016 210.77 230.282 211.075C230.549 211.379 230.686 211.776 230.664 212.18C230.643 212.583 230.464 212.963 230.166 213.237C228.842 214.394 227.449 215.508 226.03 216.547C225.698 216.791 225.282 216.893 224.875 216.83C224.467 216.768 224.101 216.546 223.858 216.215C223.614 215.883 223.512 215.468 223.574 215.062C223.637 214.655 223.859 214.29 224.191 214.046ZM233.89 205.115C234.984 203.855 236.039 202.53 237.025 201.179C237.272 200.857 237.635 200.644 238.037 200.586C238.439 200.528 238.847 200.629 239.175 200.868C239.503 201.106 239.725 201.463 239.793 201.863C239.861 202.262 239.769 202.672 239.538 203.006C238.497 204.428 237.39 205.827 236.24 207.146C236.108 207.307 235.945 207.439 235.762 207.536C235.578 207.633 235.376 207.692 235.169 207.71C234.962 207.727 234.754 207.703 234.556 207.639C234.358 207.575 234.175 207.472 234.018 207.336C233.861 207.2 233.733 207.035 233.641 206.848C233.55 206.662 233.496 206.46 233.484 206.252C233.472 206.045 233.502 205.838 233.572 205.642C233.642 205.447 233.75 205.267 233.89 205.115ZM241.37 194.264C242.158 192.792 242.892 191.268 243.553 189.734C243.716 189.356 244.022 189.058 244.405 188.906C244.789 188.753 245.217 188.759 245.595 188.922C245.974 189.084 246.273 189.391 246.425 189.773C246.578 190.155 246.572 190.583 246.409 190.961C245.714 192.574 244.941 194.178 244.112 195.727C243.953 196.024 243.7 196.261 243.394 196.403C243.087 196.544 242.743 196.582 242.412 196.511C242.082 196.44 241.784 196.263 241.564 196.008C241.343 195.752 241.212 195.432 241.19 195.096C241.169 194.806 241.231 194.516 241.37 194.261V194.264ZM241.981 136.639C242.345 136.445 242.771 136.403 243.165 136.522C243.56 136.641 243.891 136.912 244.085 137.275C244.915 138.822 245.689 140.426 246.385 142.044C246.541 142.42 246.541 142.843 246.387 143.22C246.233 143.597 245.936 143.899 245.561 144.06C245.186 144.221 244.763 144.228 244.383 144.08C244.002 143.932 243.696 143.641 243.529 143.269C242.868 141.733 242.133 140.209 241.345 138.741C241.248 138.561 241.188 138.364 241.167 138.161C241.147 137.958 241.167 137.753 241.226 137.558C241.285 137.363 241.382 137.181 241.512 137.023C241.642 136.866 241.801 136.735 241.981 136.639ZM246.25 182.029C246.696 180.421 247.065 178.772 247.366 177.128C247.443 176.726 247.676 176.371 248.014 176.139C248.353 175.908 248.769 175.82 249.172 175.893C249.575 175.966 249.933 176.196 250.168 176.531C250.403 176.867 250.495 177.282 250.425 177.685C250.108 179.414 249.712 181.148 249.248 182.843C249.151 183.196 248.931 183.504 248.628 183.711C248.325 183.918 247.958 184.011 247.593 183.974C247.228 183.938 246.887 183.773 246.632 183.51C246.377 183.246 246.223 182.901 246.198 182.535C246.187 182.367 246.205 182.198 246.25 182.035V182.029ZM247.314 149.071C247.712 148.963 248.136 149.017 248.494 149.221C248.852 149.425 249.114 149.763 249.223 150.16C249.686 151.855 250.08 153.591 250.398 155.32C250.473 155.724 250.383 156.142 250.149 156.481C249.914 156.82 249.555 157.052 249.149 157.126C248.744 157.201 248.325 157.111 247.985 156.877C247.646 156.643 247.414 156.284 247.339 155.879C247.042 154.235 246.662 152.585 246.223 150.978C246.196 150.878 246.178 150.775 246.171 150.671C246.15 150.315 246.251 149.962 246.459 149.672C246.667 149.382 246.969 149.172 247.314 149.077V149.071ZM248.269 169.022C248.338 167.355 248.335 165.665 248.269 163.996C248.258 163.592 248.406 163.2 248.68 162.903C248.954 162.606 249.334 162.427 249.738 162.405C250.142 162.382 250.539 162.518 250.844 162.784C251.149 163.049 251.339 163.423 251.373 163.825C251.373 163.836 251.373 163.847 251.373 163.858C251.452 165.615 251.455 167.396 251.382 169.148C251.359 169.555 251.176 169.936 250.874 170.21C250.572 170.483 250.174 170.627 249.766 170.611C249.358 170.594 248.974 170.418 248.695 170.121C248.416 169.824 248.265 169.429 248.275 169.022H248.269Z" fill="black"/>
<path d="M235.159 129.016C235.179 129.331 235.296 129.633 235.494 129.88C235.994 130.505 236.488 131.153 236.966 131.802C237.084 131.973 237.235 132.118 237.41 132.23C237.586 132.341 237.782 132.417 237.987 132.451C238.192 132.486 238.402 132.479 238.604 132.431C238.807 132.383 238.997 132.295 239.165 132.173C239.333 132.05 239.474 131.895 239.581 131.717C239.687 131.538 239.757 131.341 239.786 131.135C239.814 130.929 239.802 130.72 239.748 130.52C239.694 130.319 239.601 130.131 239.473 129.968C238.971 129.284 238.451 128.604 237.925 127.946C237.719 127.687 237.436 127.501 237.116 127.414C236.796 127.328 236.457 127.346 236.148 127.465C235.839 127.584 235.577 127.799 235.399 128.078C235.221 128.357 235.137 128.686 235.159 129.016Z" fill="black"/>
</g>
<g opacity="0.3">
<path opacity="0.3" d="M193.49 106.476C193.515 106.844 193.67 107.191 193.928 107.455C194.185 107.719 194.529 107.883 194.896 107.918C195.695 107.992 196.505 108.086 197.304 108.194C197.506 108.223 197.713 108.211 197.911 108.159C198.109 108.108 198.295 108.018 198.459 107.895C198.622 107.771 198.759 107.617 198.862 107.44C198.966 107.264 199.033 107.069 199.061 106.866C199.088 106.663 199.075 106.457 199.023 106.26C198.97 106.062 198.879 105.877 198.755 105.714C198.631 105.552 198.475 105.416 198.298 105.314C198.121 105.211 197.925 105.145 197.722 105.118C196.88 105.004 196.027 104.908 195.192 104.829C194.968 104.809 194.743 104.837 194.531 104.912C194.319 104.987 194.126 105.107 193.965 105.263C193.804 105.42 193.679 105.609 193.598 105.818C193.517 106.028 193.482 106.252 193.496 106.476H193.49Z" fill="#91B3FA"/>
<path d="M127.246 167.474C127.239 167.063 127.396 166.665 127.683 166.37C127.97 166.074 128.363 165.904 128.775 165.897C129.188 165.89 129.586 166.048 129.882 166.334C130.178 166.62 130.349 167.012 130.355 167.424C130.382 169.058 130.479 170.711 130.643 172.362C130.669 172.568 130.653 172.776 130.597 172.976C130.541 173.175 130.445 173.362 130.316 173.524C130.186 173.686 130.026 173.82 129.843 173.919C129.661 174.019 129.461 174.08 129.254 174.101C129.047 174.121 128.839 174.1 128.64 174.039C128.442 173.978 128.258 173.877 128.099 173.744C127.94 173.611 127.81 173.447 127.715 173.262C127.621 173.078 127.564 172.876 127.549 172.669C127.478 171.954 127.419 171.239 127.372 170.526C127.305 169.511 127.262 168.483 127.246 167.474ZM130.107 179.139C130.305 179.092 130.511 179.084 130.713 179.116C130.914 179.148 131.107 179.219 131.281 179.326C131.455 179.433 131.606 179.572 131.726 179.737C131.845 179.902 131.931 180.089 131.979 180.287C132.363 181.886 132.818 183.488 133.333 185.04C133.403 185.234 133.433 185.441 133.422 185.648C133.41 185.855 133.357 186.058 133.266 186.244C133.175 186.43 133.048 186.596 132.892 186.732C132.736 186.869 132.553 186.972 132.356 187.037C132.159 187.102 131.951 187.127 131.744 187.11C131.538 187.094 131.336 187.036 131.152 186.941C130.968 186.845 130.805 186.714 130.672 186.554C130.54 186.395 130.441 186.211 130.381 186.012C129.838 184.379 129.359 182.687 128.955 181.003C128.935 180.917 128.922 180.83 128.917 180.741C128.894 180.377 129.002 180.017 129.219 179.724C129.437 179.431 129.751 179.224 130.107 179.139ZM127.689 159.03C127.897 157.316 128.182 155.587 128.536 153.892C128.623 153.493 128.865 153.145 129.209 152.922C129.553 152.7 129.97 152.622 130.371 152.706C130.772 152.789 131.124 153.027 131.35 153.367C131.576 153.708 131.659 154.124 131.58 154.525C131.244 156.135 130.973 157.776 130.775 159.404C130.728 159.787 130.54 160.14 130.246 160.392C129.953 160.644 129.576 160.778 129.189 160.767C128.802 160.757 128.433 160.603 128.154 160.335C127.875 160.067 127.706 159.705 127.68 159.319C127.674 159.223 127.677 159.126 127.689 159.03ZM134.291 191.773C134.474 191.683 134.674 191.63 134.878 191.617C135.082 191.604 135.286 191.631 135.48 191.697C135.673 191.763 135.852 191.866 136.005 192.001C136.159 192.136 136.284 192.3 136.374 192.483C137.098 193.958 137.896 195.419 138.742 196.827C138.949 197.18 139.007 197.601 138.905 197.996C138.803 198.392 138.549 198.732 138.197 198.942C137.845 199.151 137.425 199.214 137.028 199.116C136.63 199.019 136.287 198.768 136.073 198.419C135.181 196.934 134.343 195.399 133.58 193.845C133.489 193.662 133.435 193.463 133.422 193.259C133.409 193.055 133.436 192.851 133.502 192.658C133.568 192.465 133.672 192.286 133.807 192.133C133.943 191.98 134.107 191.855 134.291 191.766V191.773ZM130.827 145.758C131.407 144.133 132.066 142.51 132.784 140.934C132.862 140.739 132.978 140.562 133.127 140.413C133.276 140.265 133.453 140.148 133.648 140.069C133.843 139.991 134.053 139.953 134.263 139.958C134.473 139.963 134.68 140.01 134.872 140.097C135.063 140.184 135.235 140.309 135.377 140.464C135.519 140.619 135.627 140.802 135.696 141C135.765 141.198 135.793 141.409 135.779 141.618C135.764 141.828 135.707 142.032 135.611 142.219C134.929 143.716 134.303 145.258 133.752 146.801C133.689 146.999 133.586 147.183 133.451 147.341C133.315 147.499 133.148 147.628 132.962 147.721C132.775 147.814 132.571 147.868 132.363 147.88C132.155 147.892 131.946 147.863 131.749 147.793C131.553 147.723 131.372 147.615 131.219 147.474C131.065 147.333 130.941 147.163 130.855 146.973C130.769 146.783 130.721 146.578 130.716 146.37C130.711 146.162 130.747 145.955 130.824 145.761L130.827 145.758ZM136.805 133.497C137.729 132.034 138.728 130.593 139.769 129.215C139.89 129.046 140.043 128.903 140.22 128.794C140.397 128.685 140.593 128.613 140.799 128.581C141.004 128.549 141.214 128.559 141.415 128.61C141.617 128.66 141.806 128.751 141.972 128.876C142.138 129.001 142.277 129.157 142.381 129.337C142.485 129.516 142.552 129.715 142.578 129.921C142.604 130.126 142.589 130.335 142.533 130.535C142.476 130.735 142.381 130.921 142.251 131.083C141.261 132.393 140.317 133.756 139.434 135.152C139.21 135.49 138.861 135.726 138.465 135.81C138.068 135.895 137.653 135.821 137.31 135.605C136.967 135.389 136.722 135.047 136.628 134.653C136.533 134.259 136.597 133.844 136.805 133.497ZM145.319 122.824C146.54 121.596 147.829 120.406 149.146 119.288C149.301 119.155 149.481 119.055 149.676 118.992C149.87 118.929 150.075 118.904 150.279 118.921C150.483 118.937 150.682 118.993 150.864 119.085C151.046 119.178 151.208 119.306 151.341 119.461C151.474 119.616 151.575 119.796 151.638 119.99C151.701 120.184 151.725 120.389 151.709 120.592C151.693 120.796 151.637 120.994 151.544 121.176C151.451 121.358 151.323 121.52 151.168 121.652C149.916 122.716 148.693 123.846 147.531 125.013C147.387 125.158 147.216 125.273 147.028 125.352C146.839 125.431 146.637 125.473 146.432 125.473C146.227 125.474 146.025 125.435 145.835 125.358C145.646 125.28 145.474 125.167 145.329 125.023C145.183 124.879 145.068 124.708 144.989 124.52C144.91 124.332 144.868 124.13 144.868 123.925C144.867 123.721 144.906 123.519 144.983 123.33C145.061 123.141 145.175 122.969 145.319 122.824ZM155.962 114.261C157.423 113.329 158.937 112.45 160.474 111.647C160.656 111.546 160.855 111.482 161.061 111.46C161.268 111.437 161.476 111.456 161.675 111.515C161.874 111.574 162.059 111.672 162.219 111.804C162.379 111.935 162.512 112.098 162.608 112.281C162.704 112.464 162.763 112.665 162.781 112.872C162.798 113.078 162.774 113.286 162.71 113.483C162.646 113.68 162.543 113.862 162.407 114.018C162.271 114.175 162.105 114.303 161.919 114.394C160.464 115.158 159.022 115.992 157.634 116.877C157.462 116.988 157.27 117.064 157.068 117.1C156.867 117.136 156.66 117.132 156.46 117.089C156.26 117.045 156.07 116.962 155.903 116.845C155.735 116.728 155.591 116.58 155.481 116.407C155.371 116.235 155.296 116.043 155.261 115.841C155.225 115.64 155.23 115.434 155.275 115.234C155.319 115.035 155.403 114.846 155.521 114.679C155.639 114.512 155.789 114.37 155.962 114.261ZM168.235 108.238C169.863 107.653 171.537 107.13 173.211 106.683C173.41 106.624 173.618 106.606 173.825 106.629C174.031 106.651 174.231 106.715 174.412 106.817C174.593 106.918 174.752 107.054 174.88 107.218C175.008 107.381 175.101 107.569 175.155 107.769C175.209 107.969 175.222 108.178 175.193 108.384C175.165 108.589 175.095 108.787 174.989 108.965C174.883 109.143 174.742 109.298 174.575 109.421C174.408 109.544 174.217 109.632 174.015 109.68C172.423 110.105 170.834 110.603 169.288 111.165C169.095 111.239 168.889 111.274 168.683 111.267C168.476 111.26 168.273 111.213 168.085 111.127C167.897 111.041 167.728 110.918 167.588 110.766C167.448 110.614 167.34 110.436 167.27 110.242C167.2 110.048 167.17 109.841 167.18 109.635C167.191 109.429 167.243 109.227 167.333 109.041C167.423 108.856 167.549 108.689 167.704 108.553C167.859 108.416 168.039 108.312 168.235 108.246V108.238ZM181.52 105.058C182.785 104.898 184.07 104.775 185.34 104.692C185.799 104.66 186.258 104.637 186.716 104.616C186.921 104.605 187.125 104.634 187.318 104.703C187.511 104.772 187.689 104.879 187.839 105.018C187.99 105.156 188.112 105.323 188.197 105.509C188.283 105.695 188.33 105.896 188.336 106.101C188.345 106.305 188.314 106.508 188.244 106.7C188.174 106.892 188.067 107.068 187.928 107.218C187.79 107.368 187.624 107.49 187.438 107.576C187.253 107.661 187.053 107.71 186.848 107.718C186.413 107.737 185.976 107.761 185.539 107.79C184.332 107.868 183.112 107.986 181.91 108.137C181.707 108.163 181.502 108.149 181.305 108.095C181.108 108.042 180.923 107.95 180.762 107.825C180.6 107.7 180.465 107.545 180.364 107.368C180.263 107.191 180.198 106.995 180.172 106.793C180.172 106.762 180.172 106.729 180.162 106.698C180.136 106.303 180.263 105.914 180.515 105.609C180.768 105.305 181.127 105.108 181.52 105.058Z" fill="black"/>
<path opacity="0.3" d="M140.604 204.521C140.625 204.839 140.744 205.143 140.945 205.391C141.473 206.046 142.025 206.701 142.581 207.34C142.856 207.636 143.236 207.813 143.641 207.835C144.045 207.856 144.441 207.718 144.746 207.452C145.05 207.186 145.239 206.812 145.271 206.41C145.304 206.007 145.178 205.607 144.92 205.296C144.389 204.689 143.864 204.066 143.364 203.445C143.157 203.188 142.873 203.004 142.553 202.919C142.234 202.834 141.896 202.852 141.588 202.972C141.279 203.092 141.018 203.307 140.84 203.585C140.663 203.864 140.579 204.191 140.601 204.521H140.604Z" fill="#91B3FA"/>
</g>
<path d="M167.101 207.4C167.224 207.488 167.372 207.535 167.523 207.535C167.674 207.535 167.822 207.488 167.945 207.4L175.143 202.274C179.017 203.861 183.124 204.807 187.304 205.075L191.528 212.823C191.6 212.956 191.712 213.062 191.848 213.128C191.984 213.194 192.137 213.216 192.286 213.191L202.746 211.439C202.895 211.414 203.032 211.344 203.139 211.237C203.246 211.13 203.317 210.993 203.341 210.845L204.799 202.144C208.662 200.53 212.235 198.298 215.378 195.535L223.859 198.034C224.004 198.076 224.159 198.073 224.302 198.024C224.445 197.974 224.569 197.882 224.657 197.759L230.81 189.145C230.898 189.022 230.945 188.875 230.945 188.724C230.945 188.573 230.898 188.426 230.81 188.303L225.676 181.116C227.266 177.249 228.214 173.149 228.482 168.978L236.244 164.761C236.377 164.689 236.483 164.578 236.55 164.442C236.616 164.307 236.638 164.154 236.613 164.005L234.857 153.563C234.832 153.415 234.761 153.278 234.654 153.172C234.548 153.065 234.411 152.994 234.262 152.969L225.546 151.513C223.93 147.654 221.693 144.083 218.924 140.943L221.428 132.478C221.471 132.333 221.467 132.179 221.418 132.036C221.368 131.893 221.276 131.77 221.153 131.682L212.514 125.538C212.391 125.45 212.243 125.403 212.092 125.403C211.941 125.403 211.793 125.45 211.67 125.538L204.472 130.663C200.598 129.077 196.491 128.131 192.312 127.863L188.088 120.115C188.015 119.983 187.903 119.876 187.767 119.81C187.631 119.744 187.478 119.722 187.329 119.747L176.869 121.499C176.72 121.524 176.583 121.595 176.476 121.701C176.369 121.808 176.299 121.945 176.274 122.094L174.816 130.794C170.953 132.408 167.38 134.64 164.237 137.403L155.756 134.905C155.611 134.862 155.456 134.865 155.313 134.915C155.17 134.964 155.046 135.056 154.959 135.179L148.803 143.793C148.715 143.916 148.668 144.064 148.668 144.214C148.668 144.365 148.715 144.513 148.803 144.636L153.939 151.822C152.349 155.689 151.401 159.789 151.133 163.961L143.371 168.176C143.239 168.248 143.132 168.36 143.066 168.496C143 168.631 142.977 168.784 143.002 168.933L144.758 179.375C144.783 179.524 144.854 179.66 144.961 179.767C145.067 179.873 145.204 179.944 145.353 179.969L154.069 181.425C155.687 185.28 157.924 188.846 160.691 191.983L158.187 200.448C158.144 200.593 158.148 200.748 158.197 200.89C158.247 201.033 158.339 201.157 158.463 201.244L167.101 207.4Z" fill="#91B3FA"/>
<path d="M179.181 165.609C179.407 162.866 180.69 160.318 182.76 158.5C184.829 156.682 187.524 155.736 190.278 155.861C193.032 155.985 195.63 157.171 197.527 159.169C199.423 161.166 200.469 163.82 200.445 166.572C200.422 169.323 199.33 171.959 197.4 173.924C195.47 175.888 192.852 177.03 190.096 177.107C187.34 177.185 184.662 176.193 182.624 174.34C180.586 172.487 179.347 169.917 179.168 167.171C179.134 166.651 179.139 166.129 179.181 165.609ZM196.036 161.186C194.811 159.747 193.124 158.777 191.263 158.441C189.402 158.105 187.482 158.423 185.83 159.342C184.177 160.261 182.895 161.723 182.202 163.479C181.509 165.236 181.447 167.178 182.028 168.975C182.608 170.772 183.795 172.312 185.386 173.333C186.976 174.354 188.873 174.793 190.751 174.575C192.63 174.357 194.375 173.496 195.688 172.138C197.002 170.779 197.803 169.008 197.955 167.127C197.988 166.724 197.991 166.319 197.964 165.916C197.85 164.173 197.174 162.513 196.036 161.186Z" fill="#BDD0FB"/>
<path d="M163.788 167.959C163.846 168.85 163.95 169.741 164.099 170.632C164.146 170.912 164.196 171.192 164.248 171.471C164.524 172.843 164.909 174.19 165.399 175.5L165.42 175.554L165.478 175.702C165.515 175.8 165.554 175.898 165.593 175.999C165.623 176.075 165.667 176.144 165.724 176.203C165.781 176.261 165.849 176.308 165.924 176.34C165.999 176.372 166.079 176.389 166.161 176.391C166.242 176.392 166.323 176.377 166.399 176.347C166.475 176.317 166.544 176.272 166.602 176.216C166.661 176.159 166.708 176.091 166.74 176.016C166.772 175.942 166.79 175.861 166.791 175.78C166.792 175.699 166.777 175.618 166.747 175.542C164.861 170.803 164.474 165.601 165.638 160.636C166.802 155.671 169.461 151.181 173.258 147.769C176.778 144.596 181.136 142.496 185.814 141.719C186.659 141.577 187.511 141.477 188.366 141.422C194.532 141.033 200.624 142.939 205.465 146.771C210.305 150.604 213.551 156.092 214.575 162.174C216.854 175.735 207.659 188.61 194.081 190.884C193.246 191.025 192.405 191.124 191.56 191.181C187.911 191.421 184.253 190.855 180.848 189.523C180.77 189.487 180.686 189.467 180.601 189.465C180.516 189.462 180.431 189.477 180.351 189.509C180.272 189.541 180.2 189.588 180.14 189.649C180.08 189.71 180.033 189.782 180.003 189.862C179.972 189.941 179.958 190.026 179.961 190.112C179.965 190.197 179.986 190.28 180.024 190.357C180.061 190.434 180.114 190.502 180.179 190.557C180.244 190.613 180.32 190.654 180.401 190.679C183.976 192.076 187.816 192.67 191.647 192.42C192.533 192.361 193.416 192.259 194.292 192.112C208.549 189.724 218.199 176.2 215.807 161.973C214.732 155.588 211.325 149.827 206.244 145.803C201.162 141.779 194.767 139.778 188.293 140.186C187.396 140.245 186.502 140.349 185.615 140.498C179.215 141.57 173.442 144.972 169.41 150.047C165.378 155.122 163.375 161.51 163.788 167.974V167.959Z" fill="#BDD0FB"/>
<g opacity="0.3">
<path opacity="0.3" d="M147.931 282.538C147.945 282.744 148.024 282.94 148.158 283.098C148.292 283.255 148.474 283.364 148.675 283.41C149.471 283.588 150.282 283.744 151.089 283.875C151.216 283.901 151.347 283.901 151.475 283.875C151.602 283.849 151.723 283.797 151.83 283.723C151.937 283.649 152.027 283.555 152.096 283.445C152.165 283.335 152.211 283.212 152.231 283.084C152.252 282.956 152.245 282.825 152.213 282.699C152.181 282.573 152.124 282.455 152.045 282.352C151.966 282.249 151.867 282.163 151.754 282.099C151.641 282.036 151.516 281.995 151.386 281.981C150.62 281.858 149.846 281.71 149.088 281.536C148.964 281.508 148.837 281.505 148.713 281.527C148.589 281.548 148.47 281.594 148.363 281.661C148.257 281.729 148.164 281.817 148.092 281.92C148.019 282.023 147.968 282.139 147.94 282.262C147.924 282.353 147.921 282.446 147.931 282.538Z" fill="#91B3FA"/>
<path d="M155.255 283.383C155.264 283.129 155.374 282.889 155.561 282.716C155.748 282.542 155.995 282.45 156.25 282.459C157.593 282.508 158.937 282.489 160.278 282.402C160.559 282.384 160.841 282.362 161.124 282.336C161.379 282.314 161.631 282.394 161.826 282.558C162.021 282.722 162.144 282.956 162.166 283.209C162.18 283.461 162.097 283.709 161.935 283.902C161.772 284.095 161.542 284.219 161.291 284.249C160.994 284.276 160.696 284.299 160.398 284.317C158.993 284.408 157.583 284.429 156.176 284.378C155.939 284.37 155.713 284.274 155.543 284.109C155.372 283.945 155.269 283.723 155.252 283.487C155.255 283.449 155.255 283.416 155.255 283.383ZM165.948 281.623C167.539 281.287 169.109 280.854 170.647 280.327C170.766 280.285 170.893 280.266 171.02 280.273C171.146 280.28 171.27 280.312 171.384 280.367C171.498 280.422 171.6 280.499 171.685 280.594C171.769 280.689 171.833 280.799 171.874 280.919C171.916 281.038 171.933 281.165 171.925 281.291C171.916 281.418 171.883 281.541 171.827 281.654C171.771 281.768 171.693 281.869 171.597 281.952C171.502 282.035 171.391 282.099 171.27 282.139C169.658 282.692 168.013 283.146 166.345 283.498C166.222 283.524 166.094 283.525 165.97 283.502C165.846 283.479 165.728 283.431 165.622 283.362C165.516 283.293 165.425 283.204 165.354 283.1C165.283 282.996 165.233 282.878 165.207 282.755C165.197 282.71 165.191 282.664 165.188 282.618C165.174 282.389 165.243 282.162 165.383 281.98C165.522 281.797 165.723 281.671 165.948 281.623ZM175.151 278.46C176.611 277.745 178.026 276.94 179.387 276.051C179.492 275.982 179.61 275.934 179.734 275.91C179.858 275.886 179.985 275.887 180.109 275.913C180.233 275.938 180.35 275.988 180.454 276.059C180.559 276.13 180.648 276.221 180.717 276.326C180.786 276.431 180.834 276.549 180.857 276.673C180.881 276.797 180.88 276.924 180.854 277.047C180.828 277.171 180.778 277.288 180.707 277.392C180.635 277.496 180.544 277.585 180.438 277.653C179.011 278.586 177.527 279.429 175.996 280.178C175.882 280.234 175.759 280.266 175.634 280.274C175.508 280.282 175.382 280.265 175.262 280.224C175.021 280.142 174.823 279.968 174.711 279.739C174.599 279.511 174.582 279.248 174.665 279.007C174.747 278.767 174.922 278.569 175.151 278.457V278.46ZM183.292 273.137C184.532 272.086 185.706 270.96 186.808 269.766C186.981 269.579 187.22 269.468 187.475 269.457C187.729 269.446 187.978 269.537 188.165 269.709C188.352 269.881 188.464 270.121 188.474 270.375C188.485 270.629 188.394 270.877 188.222 271.064C187.066 272.316 185.835 273.497 184.535 274.598C184.34 274.763 184.089 274.844 183.835 274.823C183.581 274.802 183.346 274.682 183.181 274.488C183.017 274.294 182.936 274.043 182.957 273.789C182.977 273.536 183.098 273.301 183.292 273.137ZM189.886 265.99C190.833 264.67 191.698 263.294 192.477 261.869C192.537 261.759 192.619 261.661 192.717 261.582C192.815 261.503 192.928 261.444 193.049 261.409C193.17 261.373 193.297 261.362 193.422 261.375C193.547 261.388 193.669 261.426 193.779 261.487C193.89 261.547 193.988 261.628 194.067 261.726C194.146 261.824 194.205 261.937 194.241 262.058C194.276 262.178 194.288 262.305 194.274 262.43C194.261 262.555 194.223 262.676 194.163 262.787C193.346 264.281 192.439 265.723 191.447 267.107C191.332 267.268 191.17 267.389 190.983 267.454C190.796 267.519 190.594 267.525 190.403 267.47C190.213 267.416 190.044 267.304 189.92 267.151C189.796 266.997 189.722 266.808 189.709 266.611C189.695 266.391 189.757 266.173 189.886 265.995V265.99ZM194.542 257.463C195.139 255.954 195.641 254.41 196.046 252.839C196.11 252.593 196.269 252.382 196.488 252.253C196.707 252.124 196.969 252.087 197.216 252.15C197.462 252.213 197.674 252.372 197.803 252.591C197.933 252.81 197.97 253.071 197.906 253.317C197.481 254.965 196.954 256.584 196.329 258.166C196.287 258.29 196.221 258.404 196.134 258.501C196.047 258.598 195.941 258.676 195.823 258.731C195.705 258.786 195.577 258.816 195.446 258.82C195.316 258.824 195.186 258.801 195.065 258.754C194.943 258.706 194.833 258.634 194.74 258.542C194.648 258.45 194.575 258.341 194.526 258.22C194.477 258.099 194.454 257.97 194.457 257.839C194.46 257.709 194.489 257.581 194.543 257.463H194.542ZM196.966 248.063C197.174 246.453 197.281 244.831 197.287 243.208C197.282 243.079 197.303 242.95 197.349 242.829C197.395 242.708 197.465 242.598 197.555 242.505C197.644 242.412 197.752 242.338 197.871 242.287C197.99 242.237 198.118 242.211 198.248 242.211C198.377 242.211 198.505 242.237 198.624 242.287C198.743 242.338 198.851 242.412 198.94 242.505C199.03 242.598 199.1 242.708 199.146 242.829C199.192 242.95 199.213 243.079 199.208 243.208C199.201 244.91 199.088 246.61 198.872 248.299C198.843 248.536 198.726 248.754 198.544 248.909C198.363 249.065 198.129 249.147 197.89 249.14C197.651 249.133 197.423 249.036 197.251 248.87C197.079 248.704 196.976 248.48 196.961 248.241C196.957 248.182 196.959 248.122 196.966 248.063ZM196.845 232.4C197.092 232.34 197.354 232.379 197.571 232.511C197.789 232.642 197.946 232.855 198.007 233.101C198.359 234.537 198.635 235.991 198.835 237.456C198.866 237.679 198.894 237.901 198.921 238.123C198.937 238.248 198.928 238.375 198.894 238.497C198.86 238.619 198.802 238.732 198.724 238.831C198.645 238.931 198.548 239.013 198.437 239.074C198.326 239.135 198.204 239.174 198.079 239.187C197.826 239.216 197.572 239.144 197.372 238.987C197.172 238.829 197.042 238.599 197.012 238.347C196.988 238.139 196.961 237.93 196.932 237.717C196.743 236.318 196.479 234.93 196.143 233.559C196.129 233.504 196.12 233.448 196.116 233.392C196.102 233.168 196.167 232.946 196.3 232.764C196.434 232.583 196.626 232.454 196.845 232.4Z" fill="black"/>
</g>
<g opacity="0.3">
<path d="M116.32 245.134C116.233 243.462 116.247 241.787 116.36 240.117C116.364 239.988 116.394 239.861 116.448 239.744C116.502 239.626 116.58 239.521 116.675 239.434C116.771 239.347 116.884 239.281 117.006 239.239C117.128 239.196 117.258 239.179 117.387 239.188C117.516 239.196 117.642 239.231 117.757 239.29C117.872 239.348 117.975 239.43 118.058 239.529C118.141 239.628 118.203 239.742 118.241 239.866C118.278 239.989 118.291 240.119 118.277 240.248C118.168 241.841 118.155 243.439 118.238 245.033C118.246 245.159 118.228 245.284 118.187 245.403C118.146 245.522 118.081 245.632 117.997 245.726C117.914 245.82 117.812 245.897 117.699 245.952C117.585 246.006 117.462 246.039 117.336 246.046C117.211 246.053 117.085 246.036 116.965 245.995C116.846 245.953 116.737 245.889 116.642 245.806C116.548 245.722 116.471 245.621 116.416 245.508C116.361 245.394 116.329 245.272 116.322 245.146L116.32 245.134ZM117.667 249.013C117.791 248.992 117.918 248.995 118.041 249.022C118.164 249.05 118.28 249.101 118.384 249.174C118.487 249.246 118.574 249.338 118.642 249.444C118.709 249.551 118.755 249.669 118.777 249.793C119.052 251.367 119.421 252.923 119.882 254.454C119.956 254.697 119.929 254.959 119.809 255.183C119.688 255.407 119.483 255.574 119.239 255.648C118.996 255.721 118.733 255.694 118.508 255.574C118.284 255.454 118.117 255.249 118.043 255.006C117.56 253.402 117.173 251.771 116.886 250.121C116.88 250.088 116.875 250.053 116.872 250.019C116.857 249.783 116.93 249.55 117.077 249.364C117.223 249.179 117.434 249.054 117.667 249.013ZM117.012 235.139C117.332 233.495 117.751 231.871 118.268 230.278C118.347 230.036 118.519 229.835 118.746 229.72C118.973 229.605 119.237 229.584 119.479 229.663C119.721 229.742 119.922 229.913 120.038 230.14C120.153 230.367 120.174 230.63 120.095 230.872C119.605 232.392 119.208 233.94 118.905 235.507C118.86 235.736 118.734 235.941 118.55 236.083C118.365 236.226 118.135 236.296 117.902 236.282C117.669 236.267 117.449 236.168 117.284 236.003C117.119 235.838 117.02 235.619 117.005 235.387C116.997 235.304 116.999 235.221 117.012 235.139ZM120.278 258.456C120.393 258.405 120.517 258.378 120.643 258.375C120.769 258.372 120.895 258.394 121.012 258.439C121.13 258.485 121.237 258.553 121.328 258.64C121.419 258.727 121.492 258.831 121.543 258.946C122.189 260.407 122.924 261.828 123.742 263.201C123.806 263.309 123.849 263.429 123.867 263.554C123.885 263.678 123.878 263.805 123.847 263.927C123.816 264.049 123.762 264.164 123.686 264.265C123.611 264.365 123.516 264.45 123.408 264.515C123.299 264.579 123.179 264.622 123.055 264.64C122.93 264.658 122.803 264.651 122.681 264.62C122.558 264.589 122.443 264.535 122.342 264.459C122.241 264.384 122.156 264.29 122.092 264.181C121.233 262.744 120.463 261.256 119.786 259.726C119.684 259.493 119.678 259.23 119.77 258.993C119.863 258.756 120.045 258.566 120.278 258.463V258.456ZM120.104 225.613C120.808 224.095 121.603 222.62 122.485 221.197C122.619 220.981 122.834 220.826 123.082 220.768C123.331 220.71 123.592 220.752 123.809 220.886C124.026 221.02 124.181 221.235 124.24 221.483C124.298 221.731 124.256 221.992 124.121 222.209C123.277 223.565 122.516 224.971 121.843 226.419C121.79 226.534 121.715 226.636 121.622 226.721C121.53 226.807 121.421 226.873 121.302 226.916C121.184 226.959 121.058 226.979 120.932 226.974C120.806 226.969 120.683 226.939 120.568 226.886C120.454 226.833 120.351 226.758 120.265 226.665C120.18 226.573 120.114 226.464 120.07 226.346C120.027 226.228 120.007 226.102 120.013 225.976C120.018 225.851 120.048 225.727 120.101 225.613H120.104ZM125.395 217.101C126.445 215.797 127.573 214.557 128.772 213.388C128.956 213.222 129.198 213.133 129.446 213.14C129.695 213.148 129.931 213.252 130.104 213.429C130.278 213.607 130.375 213.845 130.377 214.093C130.378 214.341 130.283 214.58 130.111 214.759C128.967 215.876 127.891 217.061 126.889 218.306C126.81 218.404 126.712 218.486 126.602 218.546C126.491 218.606 126.37 218.645 126.244 218.658C126.119 218.672 125.992 218.661 125.871 218.626C125.75 218.59 125.637 218.532 125.539 218.453C125.441 218.374 125.359 218.277 125.298 218.166C125.238 218.056 125.2 217.935 125.186 217.81C125.172 217.685 125.183 217.558 125.219 217.437C125.254 217.317 125.313 217.204 125.392 217.106L125.395 217.101ZM132.569 210.096C133.903 209.079 135.297 208.143 136.744 207.295C136.964 207.166 137.226 207.129 137.472 207.193C137.719 207.257 137.93 207.416 138.059 207.636C138.188 207.855 138.224 208.116 138.16 208.362C138.096 208.608 137.937 208.819 137.717 208.948C136.337 209.757 135.008 210.65 133.737 211.621C133.536 211.774 133.282 211.84 133.031 211.807C132.78 211.774 132.553 211.643 132.398 211.443C132.244 211.241 132.176 210.986 132.209 210.734C132.243 210.482 132.375 210.254 132.577 210.099L132.569 210.096Z" fill="black"/>
<path opacity="0.3" d="M124.752 267.839C124.766 268.03 124.836 268.213 124.953 268.364C125.456 269.013 125.982 269.648 126.514 270.254C126.597 270.349 126.698 270.427 126.811 270.482C126.924 270.538 127.047 270.571 127.172 270.579C127.298 270.588 127.424 270.571 127.544 270.531C127.663 270.491 127.774 270.427 127.868 270.344C127.963 270.261 128.041 270.161 128.097 270.048C128.153 269.935 128.186 269.812 128.194 269.687C128.202 269.561 128.186 269.435 128.145 269.316C128.105 269.197 128.041 269.087 127.958 268.992C127.451 268.413 126.95 267.804 126.471 267.189C126.344 267.027 126.169 266.91 125.972 266.855C125.774 266.8 125.564 266.81 125.372 266.882C125.18 266.955 125.016 267.087 124.905 267.259C124.794 267.432 124.741 267.635 124.753 267.839H124.752Z" fill="#91B3FA"/>
</g>
<path d="M142.858 270.348C142.94 270.407 143.039 270.438 143.14 270.438C143.241 270.438 143.34 270.407 143.422 270.348L148.24 266.917C150.832 267.98 153.58 268.613 156.377 268.791L159.204 273.976C159.252 274.065 159.327 274.136 159.418 274.18C159.509 274.225 159.611 274.239 159.711 274.223L166.704 273.049C166.804 273.033 166.896 272.986 166.968 272.914C167.039 272.843 167.086 272.751 167.103 272.651L168.079 266.829C170.664 265.749 173.055 264.255 175.158 262.407L180.833 264.079C180.93 264.107 181.033 264.105 181.129 264.072C181.224 264.039 181.307 263.977 181.366 263.895L185.485 258.125C185.544 258.043 185.575 257.944 185.575 257.843C185.575 257.743 185.544 257.644 185.485 257.562L182.05 252.753C183.114 250.165 183.748 247.422 183.928 244.631L189.122 241.809C189.21 241.76 189.282 241.685 189.326 241.595C189.37 241.504 189.385 241.402 189.369 241.302L188.193 234.322C188.177 234.222 188.129 234.131 188.058 234.059C187.986 233.988 187.894 233.941 187.795 233.924L181.962 232.95C180.88 230.37 179.383 227.984 177.531 225.885L179.207 220.219C179.235 220.122 179.232 220.019 179.199 219.924C179.166 219.828 179.104 219.746 179.022 219.687L173.242 215.576C173.159 215.517 173.061 215.486 172.96 215.486C172.859 215.486 172.76 215.517 172.678 215.576L167.86 219.005C165.268 217.944 162.519 217.311 159.723 217.131L156.896 211.946C156.848 211.858 156.773 211.786 156.682 211.742C156.591 211.698 156.488 211.683 156.389 211.7L149.396 212.873C149.296 212.89 149.204 212.937 149.132 213.008C149.061 213.08 149.013 213.172 148.997 213.271L148.021 219.093C145.436 220.174 143.045 221.668 140.942 223.516L135.267 221.843C135.17 221.815 135.066 221.818 134.971 221.851C134.876 221.884 134.793 221.946 134.734 222.028L130.614 227.798C130.555 227.88 130.524 227.979 130.524 228.08C130.524 228.181 130.555 228.28 130.614 228.362L134.051 233.169C132.987 235.757 132.353 238.501 132.174 241.292L126.979 244.114C126.891 244.162 126.819 244.237 126.775 244.328C126.731 244.418 126.716 244.521 126.732 244.62L127.908 251.6C127.924 251.7 127.972 251.792 128.043 251.864C128.115 251.936 128.207 251.983 128.307 252L134.139 252.973C135.221 255.553 136.718 257.94 138.57 260.039L136.893 265.698C136.864 265.795 136.867 265.898 136.9 265.994C136.933 266.089 136.995 266.172 137.078 266.231L142.858 270.348Z" fill="#91B3FA"/>
<path d="M150.814 242.381C150.968 240.52 151.839 238.792 153.244 237.559C154.649 236.326 156.477 235.685 158.346 235.77C160.214 235.855 161.977 236.659 163.264 238.015C164.55 239.37 165.26 241.17 165.245 243.037C165.229 244.904 164.489 246.692 163.18 248.026C161.872 249.36 160.096 250.135 158.226 250.189C156.356 250.243 154.539 249.572 153.155 248.316C151.771 247.06 150.928 245.317 150.805 243.454C150.782 243.097 150.785 242.738 150.814 242.381ZM158.485 237.65C157.786 237.593 157.082 237.675 156.414 237.889C155.746 238.104 155.127 238.448 154.592 238.902C154.057 239.355 153.617 239.91 153.297 240.533C152.977 241.157 152.783 241.837 152.727 242.535C152.629 243.936 153.088 245.318 154.005 246.383C154.922 247.448 156.223 248.109 157.625 248.222C159.027 248.336 160.417 247.893 161.494 246.99C162.571 246.087 163.248 244.796 163.377 243.398C163.396 243.137 163.396 242.876 163.377 242.615C163.292 241.339 162.752 240.136 161.854 239.224C160.957 238.312 159.761 237.751 158.485 237.643V237.65Z" fill="#BDD0FB"/>
<path d="M140.099 244.014C140.139 244.62 140.21 245.228 140.312 245.838C140.516 247.051 140.843 248.239 141.287 249.386C141.306 249.437 141.327 249.489 141.348 249.535C141.422 249.723 141.555 249.883 141.726 249.991C141.898 250.099 142.099 250.151 142.301 250.138C142.404 250.132 142.504 250.109 142.599 250.071C142.835 249.977 143.025 249.793 143.125 249.559C143.226 249.326 143.23 249.062 143.136 248.826C142.711 247.759 142.401 246.65 142.211 245.517C142.2 245.456 142.191 245.392 142.181 245.332C141.758 242.689 142.008 239.982 142.907 237.46C143.395 236.089 144.067 234.79 144.904 233.599L144.925 233.569C144.945 233.539 144.966 233.508 144.989 233.48C146.216 231.75 147.776 230.281 149.576 229.156C151.377 228.032 153.383 227.275 155.478 226.929C156.025 226.837 156.577 226.773 157.131 226.737C159.546 226.585 161.964 226.976 164.208 227.881C166.451 228.786 168.463 230.183 170.093 231.967C171.724 233.752 172.933 235.879 173.63 238.192C174.328 240.505 174.496 242.944 174.123 245.331C173.75 247.717 172.845 249.99 171.475 251.981C170.105 253.972 168.304 255.63 166.207 256.834C164.109 258.038 161.767 258.756 159.354 258.936C156.941 259.116 154.518 258.753 152.264 257.874C152.133 257.823 151.992 257.801 151.852 257.81C151.634 257.823 151.426 257.911 151.265 258.058C151.103 258.205 150.996 258.403 150.963 258.619C150.929 258.834 150.97 259.055 151.08 259.244C151.189 259.434 151.359 259.58 151.563 259.659C154.085 260.643 156.796 261.05 159.496 260.849C162.196 260.648 164.816 259.844 167.164 258.498C169.511 257.151 171.526 255.295 173.059 253.068C174.592 250.84 175.605 248.298 176.022 245.627C176.44 242.957 176.251 240.227 175.471 237.639C174.69 235.051 173.338 232.671 171.513 230.675C169.688 228.678 167.438 227.116 164.927 226.103C162.417 225.091 159.711 224.654 157.009 224.824C156.395 224.864 155.777 224.936 155.161 225.038C150.744 225.782 146.76 228.134 143.979 231.638C141.197 235.143 139.815 239.552 140.099 244.014Z" fill="#BDD0FB"/>
<path d="M323.3 389.535C323.166 387.88 321.474 386.45 318.61 385.302C321.722 383.59 323.445 381.752 323.3 379.955C322.853 374.505 305.567 371.45 284.676 373.131C263.785 374.812 247.205 380.594 247.646 386.045C247.778 387.698 249.471 389.128 252.335 390.276C249.221 391.99 247.5 393.825 247.646 395.623C247.778 397.276 249.471 398.707 252.335 399.854C249.221 401.568 247.5 403.405 247.646 405.2C247.778 406.853 249.471 408.284 252.335 409.432C249.221 411.146 247.5 412.981 247.646 414.778C247.841 417.189 251.336 419.13 256.976 420.401C256.906 422.366 256.955 424.333 257.125 426.291C257.942 436.334 269.26 444.21 284.23 444.21C299.199 444.21 312.155 433.483 312.304 423.407C312.348 421.211 312.248 419.015 312.007 416.832C319.169 414.446 323.532 411.529 323.303 408.699C323.169 407.046 321.477 405.616 318.613 404.468C321.725 402.754 323.448 400.919 323.303 399.122C323.169 397.469 321.477 396.037 318.613 394.89C321.722 393.172 323.445 391.335 323.3 389.535Z" fill="#7D97F4"/>
<path d="M275.009 422.58C268.805 422.58 263.127 422.125 258.436 421.228C258.305 421.203 258.19 421.128 258.115 421.018C258.041 420.908 258.013 420.773 258.038 420.642C258.063 420.512 258.139 420.397 258.249 420.323C258.359 420.248 258.494 420.22 258.625 420.245C265.964 421.647 275.768 421.956 286.229 421.114C294.789 420.425 302.795 419.048 309.38 417.129C309.444 417.111 309.51 417.105 309.575 417.112C309.641 417.119 309.704 417.139 309.762 417.171C309.82 417.203 309.871 417.245 309.912 417.296C309.953 417.348 309.984 417.406 310.002 417.47C310.021 417.533 310.027 417.599 310.019 417.664C310.012 417.729 309.992 417.793 309.961 417.85C309.929 417.908 309.886 417.959 309.835 418C309.784 418.041 309.725 418.072 309.662 418.09C303.011 420.021 294.932 421.418 286.309 422.113C282.425 422.425 278.626 422.58 275.009 422.58Z" fill="url(#paint0_linear)"/>
<path d="M275.107 412.989C267.045 412.989 259.842 412.233 254.759 410.788C254.696 410.77 254.637 410.739 254.585 410.698C254.533 410.657 254.49 410.607 254.458 410.549C254.426 410.492 254.406 410.429 254.398 410.363C254.391 410.298 254.396 410.232 254.414 410.168C254.432 410.105 254.462 410.046 254.503 409.994C254.544 409.943 254.595 409.9 254.653 409.868C254.71 409.836 254.774 409.815 254.839 409.808C254.905 409.8 254.971 409.806 255.034 409.824C262.276 411.882 273.93 412.521 286.223 411.532C298.379 410.553 309.715 408.091 316.549 404.945C316.609 404.913 316.676 404.894 316.743 404.889C316.811 404.884 316.88 404.893 316.944 404.914C317.009 404.936 317.068 404.971 317.119 405.017C317.169 405.062 317.21 405.118 317.239 405.179C317.267 405.241 317.283 405.308 317.285 405.376C317.287 405.444 317.275 405.512 317.25 405.575C317.224 405.638 317.187 405.695 317.139 405.744C317.091 405.792 317.033 405.83 316.97 405.855C310.035 409.047 298.571 411.542 286.304 412.53C282.483 412.839 278.711 412.989 275.107 412.989Z" fill="#91B3FA"/>
<path d="M275.009 403.412C266.305 403.412 258.689 402.521 253.561 400.837C253.441 400.79 253.343 400.7 253.288 400.583C253.233 400.467 253.225 400.334 253.266 400.211C253.306 400.089 253.392 399.987 253.506 399.926C253.62 399.865 253.753 399.851 253.877 399.885C261.01 402.233 273.105 403.004 286.229 401.949C298.384 400.971 309.721 398.508 316.555 395.363C316.615 395.335 316.679 395.319 316.745 395.317C316.811 395.314 316.877 395.324 316.939 395.347C317 395.37 317.057 395.404 317.106 395.449C317.154 395.494 317.193 395.547 317.221 395.607C317.248 395.667 317.264 395.731 317.267 395.797C317.269 395.863 317.259 395.928 317.236 395.99C317.214 396.052 317.179 396.108 317.134 396.157C317.09 396.205 317.036 396.244 316.976 396.272C310.04 399.465 298.576 401.96 286.309 402.955C282.423 403.261 278.622 403.412 275.009 403.412Z" fill="#91B3FA"/>
<path d="M275.076 393.825C268.172 393.825 261.892 393.268 257.01 392.192C256.946 392.177 256.885 392.151 256.831 392.113C256.777 392.075 256.731 392.027 256.696 391.972C256.661 391.916 256.637 391.855 256.625 391.79C256.614 391.725 256.615 391.659 256.629 391.595C256.644 391.53 256.67 391.47 256.708 391.416C256.746 391.362 256.794 391.316 256.85 391.281C256.905 391.245 256.967 391.221 257.032 391.21C257.097 391.199 257.163 391.2 257.228 391.214C264.569 392.848 275.14 393.264 286.229 392.371C298.281 391.401 309.554 388.966 316.4 385.856C316.521 385.801 316.659 385.796 316.784 385.843C316.909 385.89 317.009 385.984 317.064 386.105C317.12 386.226 317.124 386.363 317.077 386.488C317.031 386.612 316.936 386.713 316.815 386.768C309.87 389.924 298.467 392.391 286.314 393.369C282.469 393.672 278.687 393.825 275.076 393.825Z" fill="#91B3FA"/>
<path d="M233.624 341.161C231.083 332.189 226.784 323.81 220.977 316.507C208.54 300.861 188.244 269.043 185.753 225.615C182.121 162.446 238.245 130.82 289.458 135.114C340.67 139.408 391.207 177.471 385.675 236.237C382.271 272.395 361.996 299.821 346.9 315.573C337.315 325.574 330.477 337.825 326.775 351.164C322.246 367.492 311.465 387.839 285.839 389.079C252.675 390.68 238.903 359.828 233.624 341.161Z" fill="#FFE000"/>
<path d="M294.301 376.479L312.221 260.137C312.591 257.734 313.775 256.127 314.868 256.533C315.96 256.938 316.544 259.228 316.174 261.631C316.163 261.695 316.152 261.78 316.14 261.838L295.728 377.098C295.579 377.964 295.133 378.512 294.743 378.32C294.353 378.129 294.176 377.318 294.301 376.479Z" fill="url(#paint1_linear)"/>
<path d="M275.702 377.402L257.783 261.061C257.414 258.658 256.228 257.051 255.137 257.457C254.046 257.862 253.46 260.152 253.831 262.555C253.84 262.619 253.853 262.704 253.865 262.762L274.277 378.022C274.426 378.888 274.872 379.436 275.262 379.244C275.652 379.052 275.832 378.241 275.702 377.402Z" fill="url(#paint2_linear)"/>
<path d="M312.096 250.149C311.64 249.419 310.587 249.146 309.743 249.539L299.766 254.194L296.302 244.342C296.196 244.066 296.034 243.814 295.825 243.604C295.615 243.394 295.364 243.23 295.088 243.123C293.941 242.651 292.567 243.073 292.021 244.066L292.005 244.099L283.798 259.034L276.184 237.777L276.171 237.741C275.96 237.181 275.549 236.719 275.018 236.443C273.741 235.748 272.056 236.079 271.251 237.185L259.782 252.946C259.315 253.592 259.476 254.456 260.185 254.935C260.944 255.444 262.036 255.327 262.626 254.67L272.727 243.42L281.821 263.645L281.828 263.66C281.992 264.009 282.276 264.287 282.628 264.444C283.483 264.844 284.548 264.568 285.009 263.829L293.788 249.772L297.091 256.882L297.12 256.946C297.145 256.997 297.172 257.046 297.202 257.094C297.657 257.823 298.709 258.097 299.553 257.703L311.396 252.178C312.236 251.791 312.551 250.879 312.096 250.149Z" fill="white"/>
<path d="M476.821 470.68H264.298V428.222H476.821C472.271 428.222 472.271 470.68 476.821 470.68Z" fill="#91B3FA"/>
<path d="M264.298 460.056V440.625C264.298 433.775 268.498 428.222 273.679 428.222H482.801C482.933 428.222 483.06 428.169 483.154 428.076C483.247 427.982 483.3 427.856 483.301 427.723V419.117C483.3 418.984 483.247 418.858 483.154 418.764C483.06 418.671 482.933 418.618 482.801 418.618H260.02C254.951 418.618 246.903 426.572 246.903 436.386V463.523C246.903 472.776 254.718 480.278 259.497 480.278H482.801C482.933 480.277 483.06 480.225 483.154 480.131C483.247 480.038 483.3 479.911 483.301 479.779V471.177C483.3 471.044 483.247 470.917 483.154 470.824C483.06 470.73 482.933 470.677 482.801 470.676H272.334C267.896 470.681 264.298 465.923 264.298 460.056Z" fill="url(#paint3_linear)"/>
<path d="M469.46 437.433H270.197C270.065 437.433 269.938 437.38 269.844 437.287C269.75 437.193 269.697 437.066 269.697 436.934C269.697 436.802 269.75 436.675 269.844 436.581C269.938 436.488 270.065 436.435 270.197 436.435H469.46C469.593 436.435 469.72 436.488 469.814 436.581C469.908 436.675 469.96 436.802 469.96 436.934C469.96 437.066 469.908 437.193 469.814 437.287C469.72 437.38 469.593 437.433 469.46 437.433Z" fill="url(#paint4_linear)"/>
<path d="M469.46 443.735H270.197C270.065 443.735 269.938 443.682 269.844 443.589C269.75 443.495 269.697 443.368 269.697 443.236C269.697 443.103 269.75 442.977 269.844 442.883C269.938 442.789 270.065 442.737 270.197 442.737H469.46C469.593 442.737 469.72 442.789 469.814 442.883C469.908 442.977 469.96 443.103 469.96 443.236C469.96 443.368 469.908 443.495 469.814 443.589C469.72 443.682 469.593 443.735 469.46 443.735Z" fill="url(#paint5_linear)"/>
<path d="M469.46 450.038H270.197C270.065 450.038 269.938 449.985 269.844 449.891C269.75 449.798 269.697 449.671 269.697 449.539C269.697 449.406 269.75 449.279 269.844 449.186C269.938 449.092 270.065 449.04 270.197 449.04H469.46C469.593 449.04 469.72 449.092 469.814 449.186C469.908 449.279 469.96 449.406 469.96 449.539C469.96 449.671 469.908 449.798 469.814 449.891C469.72 449.985 469.593 450.038 469.46 450.038Z" fill="url(#paint6_linear)"/>
<path d="M469.46 456.339H270.197C270.065 456.339 269.938 456.287 269.844 456.193C269.75 456.1 269.697 455.973 269.697 455.84C269.697 455.708 269.75 455.581 269.844 455.487C269.938 455.394 270.065 455.341 270.197 455.341H469.46C469.593 455.341 469.72 455.394 469.814 455.487C469.908 455.581 469.96 455.708 469.96 455.84C469.96 455.973 469.908 456.1 469.814 456.193C469.72 456.287 469.593 456.339 469.46 456.339Z" fill="url(#paint7_linear)"/>
<path d="M469.46 462.643H270.197C270.065 462.643 269.938 462.59 269.844 462.496C269.75 462.403 269.697 462.276 269.697 462.144C269.697 462.011 269.75 461.884 269.844 461.791C269.938 461.697 270.065 461.645 270.197 461.645H469.46C469.593 461.645 469.72 461.697 469.814 461.791C469.908 461.884 469.96 462.011 469.96 462.144C469.96 462.276 469.908 462.403 469.814 462.496C469.72 462.59 469.593 462.643 469.46 462.643Z" fill="url(#paint8_linear)"/>
<path d="M288.364 418.91H480.463C481.597 418.91 482.517 417.992 482.517 416.86V379.597C482.517 378.465 481.597 377.547 480.463 377.547H288.364C287.23 377.547 286.311 378.465 286.311 379.597V416.86C286.311 417.992 287.23 418.91 288.364 418.91Z" fill="url(#paint9_linear)"/>
<path d="M463.115 382.302H442.948V414.156H463.115V382.302Z" fill="#7D97F4"/>
<path d="M439.983 382.302H432.415V414.156H439.983V382.302Z" fill="#7D97F4"/>
<path d="M132.199 417.876H127.469V468.935H132.199V417.876Z" fill="#7D97F4"/>
<path d="M150.547 469.92H109.12V468.275C109.12 467.898 109.271 467.535 109.538 467.268C109.806 467.001 110.169 466.851 110.547 466.851H149.007C149.209 466.851 149.41 466.89 149.596 466.968C149.783 467.045 149.953 467.158 150.096 467.3C150.239 467.443 150.353 467.612 150.43 467.799C150.507 467.985 150.547 468.185 150.547 468.387V469.92Z" fill="#7D97F4"/>
<path d="M152.977 405.719H108.432C105.446 405.719 103.026 408.134 103.026 411.114V415.995C103.026 418.975 105.446 421.39 108.432 421.39H152.977C155.962 421.39 158.382 418.975 158.382 415.995V411.114C158.382 408.134 155.962 405.719 152.977 405.719Z" fill="#7D97F4"/>
<path d="M177.025 459.566C177.025 459.566 190.532 469.284 188.184 475.813C188.184 475.813 173.407 469.449 171.621 464.435C169.836 459.421 171.919 457.208 171.919 457.208L177.025 459.566Z" fill="url(#paint10_linear)"/>
<path d="M174.996 451.423L172.786 457.796C172.617 458.263 172.61 458.774 172.767 459.246C172.923 459.717 173.234 460.123 173.649 460.397C174.214 460.734 174.832 460.972 175.477 461.102C176.03 461.23 176.609 461.172 177.126 460.938C177.643 460.704 178.068 460.306 178.336 459.807L180.977 454.841L174.996 451.423Z" fill="url(#paint11_linear)"/>
<path d="M153.504 394.06C153.504 394.06 181.245 398.859 193.145 409.833C205.045 420.807 182.223 455.809 182.223 455.809C182.223 455.809 178.484 455.785 173.951 451.909C173.951 451.909 187.484 425.583 175.822 417.899C162.711 409.268 147.6 407.324 147.6 407.324L153.236 394.908L153.504 394.06Z" fill="url(#paint12_linear)"/>
<path d="M185.835 472.203C182.859 470.83 174.454 464.955 173.039 464.695C171.624 464.435 169.171 466.099 169.171 466.099C169.171 466.099 168.576 467.172 169.213 469.045C171.185 471.429 175.569 475.975 181.461 477.668C185.796 478.914 188.827 477.753 190.715 476.394C189.482 474.596 187.8 473.151 185.835 472.203Z" fill="url(#paint13_linear)"/>
<path d="M181.455 477.668C175.563 475.975 171.18 471.43 169.207 469.045C169.638 470.31 170.635 471.941 172.766 473.852C178.049 478.592 188.138 480.3 190.287 479.971C192.008 479.707 191.846 478.121 190.709 476.394C188.821 477.753 185.79 478.914 181.455 477.668Z" fill="url(#paint14_linear)"/>
<path d="M166.642 461.951C166.676 462.767 168.348 465.57 169.32 467.149C169.548 467.516 169.865 467.82 170.243 468.031C170.621 468.242 171.047 468.353 171.48 468.355C172.082 468.366 172.683 468.294 173.265 468.141C173.686 468.015 174.039 467.729 174.247 467.343C174.455 466.958 174.502 466.506 174.377 466.087L172.467 459.574L166.642 461.951Z" fill="url(#paint15_linear)"/>
<path d="M126.799 385.747C126.799 385.747 120.638 402.191 126.799 407.192C132.961 412.192 147.658 417.822 150.942 427.784C154.225 437.745 159.796 457.101 167.252 463.956C167.252 463.956 172.492 463.45 174.451 461.366C174.451 461.366 170.205 432.469 167.405 425.054C164.978 418.633 161.406 409.364 154.557 404.184C152.596 402.699 152.938 400.352 153.847 398.071L155.502 393.913L126.799 385.747Z" fill="url(#paint16_linear)"/>
<path d="M191.055 372.859C180.724 373.482 183.944 357.008 184.13 356.352L168.451 367.406C168.451 367.406 169.281 376.216 182.316 380.838C185.615 382.006 188.629 382.058 191.294 381.487C190.322 378.705 190.238 375.691 191.055 372.859Z" fill="black"/>
<path d="M211.029 367.902C207.18 365.228 202.819 367.902 202.819 367.902C197.673 371.261 193.864 372.69 191.055 372.859C190.238 375.69 190.322 378.705 191.294 381.486C197.06 380.249 201.185 376.083 202.978 373.946C203.287 373.574 203.729 373.337 204.21 373.284C204.691 373.232 205.173 373.368 205.555 373.664C206.357 374.297 207.135 375.161 206.994 376.071C206.716 377.867 208.803 378.439 208.96 377.787C209.116 377.135 208.247 373.275 208.247 373.275C208.247 373.275 212.413 377.466 214.05 379.076C215.686 380.686 217.729 379.076 217.729 379.076C217.729 379.076 214.878 370.573 211.029 367.902Z" fill="url(#paint17_linear)"/>
<path d="M142.886 330.91C142.886 330.91 157.914 324.904 185.886 347.953C185.886 347.953 188.222 352.781 185.673 357.076C183.124 361.371 158.841 382.308 155.503 393.916C155.503 393.916 141.037 398.609 126.075 387.482C126.073 387.482 127.394 355.172 142.886 330.91Z" fill="black"/>
<path d="M172.593 325.55L165.195 334.503C164.833 334.937 164.604 335.466 164.536 336.026C164.467 336.587 164.561 337.155 164.807 337.663C165.834 339.755 168.271 342.798 173.675 342.377C174.465 342.316 175.226 342.049 175.881 341.603C176.536 341.157 177.062 340.547 177.408 339.835L182.581 329.161L172.593 325.55Z" fill="url(#paint18_linear)"/>
<path d="M131.251 369.253C129.506 362.162 147.179 346.343 147.179 346.343L142.886 330.905C142.886 330.905 104.727 356.262 114.451 376.648C115.846 379.571 117.698 381.619 119.844 382.988C122.916 374.744 127.808 370.957 131.251 369.253Z" fill="black"/>
<path d="M131.239 368.221C131.146 368.221 131.055 368.189 130.982 368.132C130.908 368.074 130.856 367.994 130.834 367.903C129.049 360.652 146.16 345.242 146.887 344.586C146.927 344.547 146.975 344.516 147.028 344.496C147.08 344.475 147.136 344.466 147.193 344.468C147.249 344.47 147.304 344.483 147.355 344.507C147.406 344.531 147.452 344.565 147.49 344.606C147.527 344.648 147.556 344.697 147.574 344.75C147.592 344.804 147.599 344.86 147.595 344.916C147.591 344.972 147.576 345.027 147.55 345.077C147.524 345.126 147.488 345.171 147.445 345.207C147.271 345.364 129.979 360.932 131.645 367.701C131.671 367.808 131.654 367.922 131.596 368.017C131.539 368.111 131.446 368.179 131.339 368.206C131.306 368.215 131.273 368.22 131.239 368.221Z" fill="url(#paint19_linear)"/>
<path d="M158.012 368.643C158.012 368.643 137.06 376.762 131.944 370.655C131.606 370.248 131.366 369.768 131.245 369.253C127.808 370.957 122.913 374.748 119.838 383C130.858 390.028 149.693 379.089 154.786 375.864C155.622 375.333 156.631 375.148 157.601 375.348C159.565 375.755 162.958 376.354 164.789 376.072C167.467 375.66 171.312 385.088 175.651 382.18C175.658 382.18 171.941 365.799 158.012 368.643Z" fill="url(#paint20_linear)"/>
<path d="M191.053 315.248C191.053 315.248 191.181 324.996 189.602 329.424C188.024 333.851 187.777 337.05 182.4 335.822C177.022 334.594 173.849 330.327 173.374 325.063C173.374 325.063 172.584 316.922 174.532 314.539C176.479 312.157 191.053 315.248 191.053 315.248Z" fill="url(#paint21_linear)"/>
<path d="M176.39 322.683L177.022 322.948C177.022 322.948 176.661 316.51 179.349 316.532C182.038 316.555 191.9 318.512 195.213 316.117C198.408 313.806 198.408 309.093 196.359 306.909C196.294 306.844 196.206 306.805 196.114 306.802C196.022 306.798 195.932 306.828 195.862 306.888L195.487 307.194C195.43 307.239 195.361 307.267 195.289 307.273C195.216 307.279 195.144 307.264 195.08 307.229C195.016 307.194 194.964 307.141 194.931 307.077C194.897 307.012 194.884 306.939 194.892 306.867C194.901 306.797 194.889 306.726 194.858 306.662C194.828 306.599 194.779 306.545 194.719 306.508C194.659 306.472 194.589 306.453 194.518 306.455C194.448 306.456 194.379 306.478 194.32 306.518C193.316 307.229 191.032 308.113 186.338 307.09C179.675 305.637 174.538 306.423 172.65 310.645C172.623 310.706 172.581 310.758 172.527 310.797C172.473 310.835 172.41 310.859 172.345 310.864C172.279 310.87 172.213 310.859 172.153 310.83C172.093 310.802 172.042 310.758 172.005 310.703C171.666 310.234 170.991 309.797 169.669 310.209C167.372 310.922 166.512 314.909 168.955 319.51C168.983 319.56 168.999 319.616 169.002 319.674C169.004 319.731 168.993 319.788 168.969 319.841C168.945 319.893 168.91 319.939 168.865 319.975C168.82 320.011 168.767 320.036 168.711 320.048C167.851 320.204 166.406 320.825 168.428 323.315C170.497 325.855 172.139 326.361 172.798 326.458C172.884 326.471 172.971 326.454 173.046 326.409C173.12 326.365 173.176 326.296 173.205 326.214L174.56 322.337C174.577 322.289 174.603 322.245 174.637 322.209C174.671 322.172 174.712 322.142 174.758 322.121C174.804 322.101 174.854 322.09 174.904 322.09C174.955 322.089 175.005 322.099 175.051 322.118L176.39 322.683Z" fill="url(#paint22_linear)"/>
<path d="M176.213 323.539C176.213 323.539 177.055 317.7 174.07 318.184C171.086 318.668 172.816 324.598 174.634 325.592L176.213 323.539Z" fill="url(#paint23_linear)"/>
<path d="M246.391 478.771C246.642 478.77 246.89 478.72 247.12 478.623C247.341 478.535 247.541 478.405 247.71 478.238C247.878 478.072 248.012 477.873 248.102 477.654C248.192 477.435 248.237 477.201 248.235 476.964C248.232 476.727 248.182 476.493 248.088 476.276L209.345 389.245C209.141 388.806 208.774 388.462 208.321 388.288C207.868 388.114 207.365 388.122 206.918 388.311C206.698 388.398 206.497 388.529 206.329 388.695C206.16 388.861 206.026 389.06 205.936 389.279C205.846 389.498 205.801 389.732 205.803 389.969C205.806 390.206 205.856 390.439 205.951 390.656L244.694 477.687C244.841 478.012 245.08 478.288 245.382 478.48C245.683 478.673 246.034 478.774 246.391 478.771Z" fill="#91B3FA"/>
<path d="M202.751 478.771C203.108 478.774 203.458 478.673 203.76 478.482C204.061 478.29 204.3 478.015 204.448 477.69L243.191 390.659C243.286 390.442 243.336 390.209 243.339 389.972C243.341 389.735 243.296 389.501 243.206 389.282C243.116 389.063 242.982 388.864 242.813 388.698C242.645 388.532 242.444 388.401 242.224 388.314C241.777 388.125 241.274 388.117 240.821 388.291C240.368 388.465 240.001 388.809 239.797 389.248L201.054 476.279C200.96 476.496 200.91 476.73 200.907 476.967C200.905 477.203 200.95 477.438 201.04 477.657C201.13 477.876 201.264 478.075 201.432 478.241C201.601 478.408 201.801 478.538 202.022 478.626C202.253 478.722 202.5 478.771 202.751 478.771Z" fill="#91B3FA"/>
<path d="M126.469 478.772C126.719 478.77 126.967 478.72 127.198 478.623C127.418 478.536 127.619 478.405 127.787 478.238C127.956 478.072 128.089 477.873 128.18 477.654C128.27 477.435 128.315 477.201 128.313 476.964C128.31 476.727 128.26 476.494 128.165 476.277L89.421 389.244C89.217 388.804 88.8498 388.461 88.397 388.287C87.9442 388.112 87.4412 388.121 86.9943 388.31C86.7739 388.397 86.5734 388.527 86.4047 388.694C86.2359 388.86 86.1025 389.058 86.0122 389.277C85.922 389.496 85.8768 389.731 85.8793 389.967C85.8819 390.204 85.9322 390.438 86.0272 390.655L124.77 477.686C124.918 478.012 125.157 478.288 125.458 478.48C125.76 478.673 126.111 478.774 126.469 478.772Z" fill="#91B3FA"/>
<path d="M82.8238 478.771C83.1811 478.774 83.5316 478.673 83.8328 478.481C84.1341 478.29 84.3733 478.015 84.5215 477.69L123.266 390.659C123.361 390.442 123.411 390.209 123.413 389.972C123.416 389.735 123.371 389.5 123.281 389.282C123.19 389.063 123.057 388.864 122.888 388.698C122.719 388.532 122.519 388.401 122.298 388.314C121.852 388.125 121.349 388.116 120.896 388.29C120.443 388.465 120.075 388.808 119.872 389.248L81.1276 476.279C81.0328 476.496 80.9827 476.73 80.9802 476.967C80.9777 477.203 81.0229 477.438 81.1131 477.657C81.2034 477.876 81.3367 478.075 81.5054 478.241C81.674 478.407 81.8744 478.538 82.0947 478.626C82.3259 478.722 82.5736 478.771 82.8238 478.771Z" fill="#91B3FA"/>
<path d="M78.2799 386.555C78.2304 386.276 78.2373 385.99 78.3002 385.714C78.3631 385.438 78.4806 385.177 78.6459 384.947C78.7978 384.732 78.9982 384.556 79.2308 384.433C79.4634 384.31 79.7218 384.243 79.985 384.238H256.238C256.587 384.246 256.927 384.347 257.225 384.529C257.522 384.712 257.765 384.97 257.928 385.278C258.111 385.603 258.217 385.965 258.24 386.337C258.263 386.709 258.201 387.081 258.059 387.425L256.149 392.046C255.711 393.103 254.764 393.781 253.721 393.781H81.2006C80.2305 393.781 79.3973 393.013 79.2128 391.948L78.2799 386.555Z" fill="#91B3FA"/>
<path d="M168.751 384.661H168.853L212.813 384.613C213.076 384.62 213.338 384.575 213.583 384.479C213.828 384.384 214.051 384.24 214.24 384.057C214.428 383.874 214.578 383.655 214.681 383.413C214.783 383.171 214.836 382.912 214.836 382.649C214.836 382.386 214.783 382.126 214.681 381.885C214.578 381.643 214.428 381.424 214.24 381.241C214.051 381.057 213.828 380.914 213.583 380.819C213.338 380.723 213.076 380.678 212.813 380.685L168.853 380.732C168.341 380.735 167.85 380.937 167.485 381.295C167.12 381.652 166.908 382.138 166.896 382.649C166.883 383.16 167.07 383.655 167.417 384.03C167.765 384.406 168.245 384.631 168.756 384.659L168.751 384.661Z" fill="url(#paint24_linear)"/>
<path d="M252.331 344.814H215.72C214.397 344.814 213.102 345.19 211.985 345.897C210.867 346.604 209.974 347.614 209.41 348.808L192.484 384.632H237.982C238.832 384.632 239.663 384.377 240.366 383.901C241.069 383.424 241.613 382.748 241.926 381.959L255.051 348.81C255.227 348.367 255.292 347.888 255.24 347.414C255.187 346.94 255.02 346.487 254.752 346.093C254.483 345.698 254.122 345.376 253.7 345.153C253.278 344.93 252.808 344.814 252.331 344.814Z" fill="url(#paint25_linear)"/>
<path d="M226.539 363.182C225.746 365.643 226.332 368.032 227.848 368.519C229.364 369.006 231.237 367.407 232.03 364.946C232.823 362.485 232.237 360.095 230.721 359.608C229.205 359.121 227.332 360.721 226.539 363.182Z" fill="url(#paint26_linear)"/>
<path d="M342.405 420.992C342.471 420.967 377.949 358.947 382.743 353.112C383.139 352.629 383.65 352.253 384.23 352.019C384.81 351.786 385.44 351.702 386.061 351.775L395.964 352.955L407.598 378.076L388.217 366.808C390.135 380.049 365.237 399.723 356.698 406.908C356.493 407.081 356.326 407.293 356.206 407.533C356.087 407.773 356.019 408.034 356.005 408.302C355.991 408.569 356.032 408.836 356.125 409.087C356.219 409.338 356.363 409.567 356.549 409.76L359.958 413.324C354.36 418.986 347.906 422.623 340.615 424.304L342.405 420.992Z" fill="#FEBBBA"/>
<path d="M357.982 411.394C357.982 411.394 360.157 412.096 360.894 414.03C361.246 414.955 360.865 416.004 360.06 416.58C356.477 419.142 344.659 427.413 339.206 429.033C339.104 429.062 338.995 429.065 338.891 429.039C338.788 429.014 338.692 428.963 338.614 428.889C338.537 428.816 338.479 428.724 338.448 428.622C338.417 428.521 338.412 428.412 338.436 428.308C338.715 427.043 339.626 424.518 342.536 420.821L342.274 421.35C342.204 421.494 342.182 421.657 342.21 421.814C342.238 421.972 342.316 422.116 342.431 422.227C342.547 422.338 342.695 422.409 342.854 422.431C343.013 422.453 343.174 422.424 343.316 422.348C346.971 420.305 354.399 415.799 357.982 411.394Z" fill="url(#paint27_linear)"/>
<path d="M356.223 436.214C356.284 436.175 361.606 423.374 361.666 423.336C366.546 393.675 378.453 368.273 381.965 361.589C382.255 361.038 382.68 360.567 383.2 360.223C383.72 359.878 384.318 359.669 384.94 359.616L394.876 358.768L411.362 381.02L390.099 373.902C394.661 386.479 374.268 410.777 367.361 419.532C367.196 419.742 367.075 419.984 367.006 420.242C366.938 420.501 366.923 420.77 366.963 421.035C367.003 421.299 367.097 421.553 367.238 421.779C367.38 422.006 367.567 422.202 367.787 422.354L371.847 425.153C367.514 431.829 361.928 436.695 355.131 439.814L356.223 436.214Z" fill="url(#paint28_linear)"/>
<path d="M369.531 423.671C369.531 423.671 371.804 423.919 372.917 425.665C373.451 426.499 373.29 427.595 372.619 428.33C369.63 431.564 359.734 442.051 354.723 444.739C354.629 444.788 354.523 444.813 354.416 444.809C354.309 444.806 354.205 444.775 354.114 444.719C354.022 444.663 353.947 444.584 353.896 444.49C353.844 444.397 353.818 444.291 353.82 444.185C353.838 442.89 354.213 440.234 356.32 436.024L356.171 436.594C356.129 436.75 356.139 436.916 356.199 437.067C356.259 437.217 356.365 437.345 356.503 437.431C356.64 437.516 356.802 437.556 356.964 437.543C357.125 437.53 357.279 437.466 357.401 437.36C360.553 434.61 366.916 428.705 369.531 423.671Z" fill="url(#paint29_linear)"/>
<path d="M441.392 354.082C441.392 354.082 450.378 367.432 451.122 373.522C451.866 379.611 448.636 381.714 439.228 382.491C411.231 384.8 397.428 376.425 397.428 376.425C395.513 364.235 394.155 361.128 378.156 354.507C378.156 354.507 398.391 356.111 402.459 354.534C406.526 352.956 441.392 354.082 441.392 354.082Z" fill="#0C0365"/>
<path d="M405.547 279.313C405.547 279.313 411.808 271.918 418.465 280.989C419.67 282.633 424.3 281.277 425.997 284.716C426.873 286.498 428.767 287.5 430.716 287.142C435.574 286.251 443.512 286.173 447.432 293.769C450.424 299.561 448.114 302.962 445.123 304.898C442.927 306.318 442.147 309.205 443.472 311.455C444.745 313.614 444.985 316.539 441.695 320.058C434.323 327.945 419.73 315.053 419.73 315.053L408.144 287.726L405.547 279.313Z" fill="url(#paint30_linear)"/>
<path d="M417.083 352.315C417.083 352.315 406.616 342.364 401.46 335.776C400.089 334.019 399.159 331.96 398.746 329.772C398.334 327.583 398.451 325.328 399.088 323.193C401.441 315.282 405.622 307.088 406.003 305.817C406.587 303.862 418.324 303.944 418.324 303.944C418.324 303.944 441.42 318.906 450.495 344.252L440.303 347.418C440.303 347.418 434.272 337.319 428.313 330.898C428.313 330.898 438.624 344.494 438.987 350.057L417.083 352.315Z" fill="black"/>
<path d="M397.139 356.241L405.004 347.699L414.088 350.14C414.088 350.14 424.678 351.774 430.739 350.14L436.8 348.507L450.498 344.25L452.648 350.318C452.912 351.068 452.925 351.884 452.683 352.641C452.442 353.399 451.959 354.057 451.308 354.516C450.118 355.356 448.734 356.28 447.849 356.666C446.044 357.455 406.297 356.916 406.297 356.916L397.139 356.241Z" fill="#FEBBBA"/>
<path d="M410.26 289.853L418.145 304.495C417.625 307.691 409.56 307.782 408.313 305.873C408.192 305.675 408.108 305.456 408.066 305.227L403.348 295.444C403.145 294.489 405.765 291.275 406.622 290.817L409.757 289.152C410.974 288.51 405.936 288.46 410.26 289.853Z" fill="#FFBDBC"/>
<path d="M394.296 286.418C394.296 286.418 393.403 291.363 397.3 297.653C401.197 303.943 405.074 303.659 407.046 301.416C409.017 299.174 411.375 295.437 410.303 289.164C409.23 282.89 395.641 280.104 394.296 286.418Z" fill="url(#paint31_linear)"/>
<path d="M405.593 289.845C405.593 289.845 399.286 281.576 394.445 288.785L394.525 291.276C394.525 291.276 388.228 290.979 388.911 285.186C389.594 279.394 394.735 275.436 401.856 277.414C408.977 279.393 413.147 281.649 413.952 286.588C414.757 291.528 410.718 290.72 410.718 290.72C410.718 290.72 409.175 287.304 407.31 287.079C405.446 286.853 406.12 289.542 406.12 289.542L405.593 289.845Z" fill="#0A015E"/>
<path d="M407.034 289.626C407.034 289.626 403.76 285.393 406.736 284.515C409.712 283.637 409.599 288.662 409.405 290.531L407.034 289.626Z" fill="#FEBBBA"/>
<path d="M423.174 359.622C423.146 359.623 423.119 359.623 423.091 359.622L386.913 359.583C386.492 359.571 386.093 359.395 385.799 359.093C385.506 358.791 385.342 358.387 385.342 357.967C385.342 357.546 385.506 357.142 385.799 356.841C386.093 356.539 386.492 356.363 386.913 356.35L423.089 356.39C423.514 356.387 423.923 356.55 424.227 356.845C424.532 357.14 424.709 357.542 424.72 357.966C424.73 358.389 424.574 358.8 424.284 359.11C423.994 359.419 423.594 359.603 423.17 359.62L423.174 359.622Z" fill="url(#paint32_linear)"/>
<path d="M354.393 326.835H384.521C385.61 326.835 386.676 327.144 387.596 327.726C388.515 328.308 389.25 329.139 389.715 330.122L403.643 359.602H366.201C365.501 359.602 364.817 359.392 364.239 358.999C363.66 358.607 363.213 358.049 362.956 357.4L352.155 330.119C352.011 329.755 351.958 329.361 352.001 328.971C352.044 328.582 352.182 328.209 352.403 327.885C352.623 327.561 352.92 327.296 353.267 327.113C353.614 326.93 354 326.835 354.393 326.835Z" fill="url(#paint33_linear)"/>
<path d="M375.617 341.951C376.271 343.976 375.789 345.942 374.54 346.343C373.292 346.744 371.752 345.428 371.099 343.402C370.446 341.377 370.929 339.412 372.176 339.011C373.423 338.61 374.966 339.926 375.617 341.951Z" fill="url(#paint34_linear)"/>
<path d="M314.127 118.098L301.757 137.676C301.757 137.676 302.633 173.18 338.193 191.617C373.753 210.054 392.64 194.588 392.64 194.588L408.477 165.428L314.127 118.098Z" fill="url(#paint35_linear)"/>
<path d="M378.857 97.2137L298.904 101.66C294.787 101.889 292.59 106.607 295.072 109.894C307.175 125.934 334.525 163.087 343.557 183.156C344.027 184.199 344.833 185.056 345.846 185.59C346.86 186.124 348.023 186.305 349.151 186.104L432.302 171.431C433.165 171.279 433.975 170.91 434.655 170.358C435.336 169.807 435.864 169.092 436.19 168.28C436.517 167.468 436.631 166.587 436.521 165.719C436.411 164.851 436.082 164.026 435.564 163.32C423.652 147.108 393.217 106.382 382.203 98.2088C381.238 97.4964 380.054 97.1443 378.857 97.2137Z" fill="url(#paint36_linear)"/>
<path d="M368.633 135.68C368.633 135.68 403.179 169.808 404.96 176.256C406.741 182.705 394.772 207.593 394.772 207.593C396.172 231.208 391.768 255.533 378.3 265.8C378.3 265.8 371.605 233.683 380.212 222.666C388.819 211.649 392.2 207.102 392.2 207.102C392.2 207.102 403.537 180.256 402.796 175.897C402.796 175.898 364.872 136.529 368.633 135.68Z" fill="url(#paint37_linear)"/>
<path d="M307.647 110.764C307.647 110.764 322.694 133.998 337.747 157.231L343.359 165.898L346.11 170.148L347.464 172.236C347.683 172.571 347.91 172.947 348.125 173.246C348.332 173.562 348.567 173.861 348.827 174.137C349.572 174.933 350.489 175.551 351.507 175.945C352.526 176.338 353.62 176.497 354.708 176.409C355.44 176.345 356.211 176.261 356.94 176.18L365.284 175.303L382.512 173.492C382.64 173.478 382.769 173.516 382.869 173.596C382.969 173.677 383.034 173.794 383.048 173.921C383.062 174.049 383.024 174.177 382.944 174.278C382.863 174.378 382.746 174.442 382.618 174.456L365.408 176.427L357.076 177.38C356.332 177.462 355.601 177.556 354.812 177.633C353.534 177.747 352.246 177.57 351.045 177.117C349.845 176.664 348.762 175.946 347.879 175.016C347.576 174.7 347.3 174.359 347.052 173.999C346.791 173.626 346.591 173.307 346.355 172.959L344.984 170.88C344.063 169.489 343.133 168.081 342.192 166.657L336.5 158.043L305.973 111.854C305.827 111.633 305.775 111.364 305.828 111.104C305.881 110.845 306.035 110.617 306.257 110.471C306.478 110.325 306.748 110.273 307.008 110.326C307.268 110.379 307.496 110.533 307.643 110.754L307.647 110.764Z" fill="#91B3FA"/>
<path d="M388.971 220.584C388.971 220.584 388.822 220.679 388.644 220.822C388.55 220.887 388.422 220.997 388.27 221.131C388.093 221.277 387.922 221.432 387.76 221.595C387.577 221.783 387.361 221.977 387.148 222.213L386.466 222.991C386.224 223.272 385.998 223.602 385.742 223.932C385.619 224.101 385.482 224.266 385.359 224.448L384.994 225.02C384.753 225.415 384.463 225.8 384.234 226.247C384.005 226.694 383.752 227.138 383.499 227.612C383.246 228.086 383.052 228.597 382.81 229.097C382.563 229.615 382.343 230.145 382.151 230.686C381.952 231.239 381.754 231.799 381.556 232.367L381.407 232.795L381.286 233.241C381.204 233.538 381.123 233.835 381.041 234.132C380.879 234.726 380.713 235.329 380.548 235.932C380.426 236.547 380.303 237.163 380.179 237.781C380.063 238.399 379.911 239.012 379.827 239.634C379.742 240.257 379.666 240.879 379.586 241.495C379.505 242.112 379.428 242.724 379.351 243.329C379.31 243.937 379.272 244.54 379.233 245.131C379.194 245.722 379.159 246.306 379.121 246.876C379.104 247.161 379.086 247.443 379.069 247.723C379.069 248.002 379.069 248.278 379.069 248.55C379.069 249.64 379.069 250.671 379.06 251.623C379.034 252.575 379.109 253.446 379.147 254.219C379.184 254.991 379.226 255.667 379.255 256.222C379.316 257.333 379.351 257.967 379.351 257.967V257.985C379.357 258.077 379.327 258.168 379.266 258.238C379.206 258.307 379.12 258.35 379.028 258.356C378.936 258.363 378.845 258.333 378.775 258.272C378.705 258.212 378.662 258.126 378.656 258.034L378.507 256.282C378.459 255.722 378.401 255.045 378.333 254.266C378.264 253.488 378.168 252.612 378.162 251.649C378.156 250.687 378.104 249.646 378.072 248.542C378.072 248.268 378.056 247.988 378.049 247.705C378.041 247.421 378.065 247.135 378.074 246.845C378.092 246.266 378.111 245.673 378.13 245.072C378.15 244.47 378.171 243.855 378.191 243.236C378.25 242.617 378.311 241.991 378.37 241.36C378.43 240.729 378.495 240.092 378.558 239.453C378.62 238.815 378.758 238.18 378.855 237.542C378.952 236.903 379.069 236.266 379.175 235.63C379.326 235.002 379.475 234.377 379.621 233.756C379.696 233.447 379.77 233.137 379.846 232.829L379.958 232.369L380.106 231.923C380.298 231.329 380.487 230.739 380.675 230.153C380.843 229.559 381.094 229.017 381.312 228.469C381.529 227.921 381.73 227.377 381.986 226.875C382.241 226.373 382.483 225.879 382.721 225.403C382.959 224.928 383.244 224.497 383.488 224.067L383.863 223.443C383.99 223.241 384.131 223.055 384.259 222.868C384.525 222.5 384.759 222.138 385.015 221.82L385.741 220.929C385.97 220.658 386.207 220.428 386.408 220.21C386.608 219.991 386.811 219.812 386.982 219.653C387.153 219.494 387.3 219.356 387.448 219.246C387.735 219.013 387.854 218.933 387.854 218.933L387.885 218.91C387.994 218.832 388.118 218.776 388.249 218.746C388.38 218.716 388.516 218.713 388.648 218.737C388.781 218.761 388.907 218.811 389.019 218.884C389.132 218.958 389.228 219.053 389.303 219.165C389.378 219.276 389.43 219.402 389.455 219.534C389.48 219.666 389.478 219.801 389.45 219.933C389.421 220.064 389.366 220.188 389.289 220.297C389.211 220.407 389.112 220.5 388.998 220.571L388.971 220.584Z" fill="#91B3FA"/>
<path d="M387.993 231.03L387.907 231.341C387.851 231.546 387.807 231.787 387.727 232.129C387.562 232.895 387.324 233.989 387.04 235.302C386.489 237.961 385.754 241.504 385.018 245.05C383.576 252.146 382.133 259.243 382.133 259.243C382.101 259.38 382.018 259.498 381.9 259.575C381.783 259.651 381.641 259.68 381.503 259.654C381.366 259.629 381.243 259.551 381.161 259.438C381.079 259.325 381.044 259.184 381.063 259.046C381.063 259.046 382.283 251.905 383.502 244.764C384.125 241.2 384.75 237.625 385.217 234.947C385.466 233.597 385.672 232.473 385.812 231.68C385.902 231.246 385.976 230.878 386.026 230.672C386.077 230.465 386.105 230.355 386.105 230.355C386.183 230.115 386.349 229.914 386.569 229.791C386.789 229.668 387.048 229.633 387.293 229.694C387.539 229.754 387.752 229.904 387.89 230.115C388.029 230.325 388.082 230.581 388.04 230.829C388.04 230.838 388.04 230.847 388.04 230.856L387.993 231.03Z" fill="#91B3FA"/>
<rect x="48" y="480" width="464" height="4" fill="black"/>
<defs>
<linearGradient id="paint0_linear" x1="281.771" y1="427.371" x2="249.103" y2="546.596" gradientUnits="userSpaceOnUse">
<stop stop-color="#4F52FF"/>
<stop offset="1" stop-color="#4042E2"/>
</linearGradient>
<linearGradient id="paint1_linear" x1="304.487" y1="293.493" x2="311.819" y2="526.886" gradientUnits="userSpaceOnUse">
<stop stop-color="white"/>
<stop offset="1" stop-color="#E9605A"/>
</linearGradient>
<linearGradient id="paint2_linear" x1="39325.2" y1="242172" x2="71738.5" y2="428261" gradientUnits="userSpaceOnUse">
<stop stop-color="white"/>
<stop offset="1" stop-color="#DE4C46"/>
</linearGradient>
<linearGradient id="paint3_linear" x1="596280" y1="214156" x2="599029" y2="290868" gradientUnits="userSpaceOnUse">
<stop stop-color="#4F52FF"/>
<stop offset="1" stop-color="#4042E2"/>
</linearGradient>
<linearGradient id="paint4_linear" x1="363266" y1="3372.48" x2="632822" y2="3372.48" gradientUnits="userSpaceOnUse">
<stop stop-color="#DAE3FE"/>
<stop offset="1" stop-color="#E9EFFD"/>
</linearGradient>
<linearGradient id="paint5_linear" x1="363266" y1="3421.31" x2="632822" y2="3421.31" gradientUnits="userSpaceOnUse">
<stop stop-color="#DAE3FE"/>
<stop offset="1" stop-color="#E9EFFD"/>
</linearGradient>
<linearGradient id="paint6_linear" x1="363266" y1="3469.88" x2="632822" y2="3469.88" gradientUnits="userSpaceOnUse">
<stop stop-color="#DAE3FE"/>
<stop offset="1" stop-color="#E9EFFD"/>
</linearGradient>
<linearGradient id="paint7_linear" x1="363266" y1="3518.43" x2="632822" y2="3518.43" gradientUnits="userSpaceOnUse">
<stop stop-color="#DAE3FE"/>
<stop offset="1" stop-color="#E9EFFD"/>
</linearGradient>
<linearGradient id="paint8_linear" x1="363266" y1="3567.37" x2="632822" y2="3567.37" gradientUnits="userSpaceOnUse">
<stop stop-color="#DAE3FE"/>
<stop offset="1" stop-color="#E9EFFD"/>
</linearGradient>
<linearGradient id="paint9_linear" x1="578665" y1="51408.6" x2="576118" y2="99425.8" gradientUnits="userSpaceOnUse">
<stop stop-color="#4F52FF"/>
<stop offset="1" stop-color="#4042E2"/>
</linearGradient>
<linearGradient id="paint10_linear" x1="188.539" y1="449.772" x2="180.213" y2="466.176" gradientUnits="userSpaceOnUse">
<stop stop-color="#09005D"/>
<stop offset="1" stop-color="#1A0F91"/>
</linearGradient>
<linearGradient id="paint11_linear" x1="172.66" y1="456.295" x2="180.979" y2="456.295" gradientUnits="userSpaceOnUse">
<stop stop-color="#FEBBBA"/>
<stop offset="1" stop-color="#FF928E"/>
</linearGradient>
<linearGradient id="paint12_linear" x1="196106" y1="180974" x2="211533" y2="163823" gradientUnits="userSpaceOnUse">
<stop stop-color="#09005D"/>
<stop offset="1" stop-color="#1A0F91"/>
</linearGradient>
<linearGradient id="paint13_linear" x1="90672.7" y1="42954.3" x2="88558.9" y2="47406.5" gradientUnits="userSpaceOnUse">
<stop stop-color="#09005D"/>
<stop offset="1" stop-color="#1A0F91"/>
</linearGradient>
<linearGradient id="paint14_linear" x1="90422" y1="35505.4" x2="93784" y2="35505.4" gradientUnits="userSpaceOnUse">
<stop stop-color="#4F52FF"/>
<stop offset="1" stop-color="#4042E2"/>
</linearGradient>
<linearGradient id="paint15_linear" x1="31677" y1="27892.4" x2="32086.4" y2="27892.4" gradientUnits="userSpaceOnUse">
<stop stop-color="#FEBBBA"/>
<stop offset="1" stop-color="#FF928E"/>
</linearGradient>
<linearGradient id="paint16_linear" x1="197401" y1="242078" x2="198990" y2="207302" gradientUnits="userSpaceOnUse">
<stop stop-color="#09005D"/>
<stop offset="1" stop-color="#1A0F91"/>
</linearGradient>
<linearGradient id="paint17_linear" x1="114503" y1="37578.5" x2="119487" y2="37578.5" gradientUnits="userSpaceOnUse">
<stop stop-color="#FEBBBA"/>
<stop offset="1" stop-color="#FF928E"/>
</linearGradient>
<linearGradient id="paint18_linear" x1="72854.1" y1="38254.4" x2="75048.2" y2="38254.4" gradientUnits="userSpaceOnUse">
<stop stop-color="#FFBDBC"/>
<stop offset="1" stop-color="#FF928E"/>
</linearGradient>
<linearGradient id="paint19_linear" x1="23958.3" y1="40089" x2="15931.7" y2="48651.3" gradientUnits="userSpaceOnUse">
<stop stop-color="#1B1092"/>
<stop offset="1" stop-color="#1B1092"/>
</linearGradient>
<linearGradient id="paint20_linear" x1="220047" y1="43227.5" x2="216938" y2="60965" gradientUnits="userSpaceOnUse">
<stop stop-color="#FEBBBA"/>
<stop offset="1" stop-color="#FF928E"/>
</linearGradient>
<linearGradient id="paint21_linear" x1="72350.7" y1="24157.1" x2="68769.7" y2="24679.4" gradientUnits="userSpaceOnUse">
<stop stop-color="white"/>
<stop offset="1" stop-color="#FFBCBB"/>
</linearGradient>
<linearGradient id="paint22_linear" x1="119145" y1="42741.7" x2="119511" y2="47716.7" gradientUnits="userSpaceOnUse">
<stop stop-color="#09005D"/>
<stop offset="1" stop-color="#1A0F91"/>
</linearGradient>
<linearGradient id="paint23_linear" x1="15682" y1="4728.66" x2="14829.4" y2="4709.11" gradientUnits="userSpaceOnUse">
<stop stop-color="#FFBDBC"/>
<stop offset="1" stop-color="#FFBDBC"/>
</linearGradient>
<linearGradient id="paint24_linear" x1="-458298" y1="-10448.1" x2="-457439" y2="-6995.2" gradientUnits="userSpaceOnUse">
<stop stop-color="#09005D"/>
<stop offset="1" stop-color="#1A0F91"/>
</linearGradient>
<linearGradient id="paint25_linear" x1="-585634" y1="94221.9" x2="-579689" y2="104126" gradientUnits="userSpaceOnUse">
<stop stop-color="#09005D"/>
<stop offset="1" stop-color="#1A0F91"/>
</linearGradient>
<linearGradient id="paint26_linear" x1="-55961.9" y1="22184.5" x2="-55206.7" y2="22960.4" gradientUnits="userSpaceOnUse">
<stop stop-color="#4F52FF"/>
<stop offset="1" stop-color="#4042E2"/>
</linearGradient>
<linearGradient id="paint27_linear" x1="50074.3" y1="42929.5" x2="55059.5" y2="61224.1" gradientUnits="userSpaceOnUse">
<stop stop-color="#09005D"/>
<stop offset="1" stop-color="#1A0F91"/>
</linearGradient>
<linearGradient id="paint28_linear" x1="-619499" y1="206080" x2="-704193" y2="169294" gradientUnits="userSpaceOnUse">
<stop stop-color="#FEBBBA"/>
<stop offset="1" stop-color="#FF928E"/>
</linearGradient>
<linearGradient id="paint29_linear" x1="44117.2" y1="50911.1" x2="51921.5" y2="71467.8" gradientUnits="userSpaceOnUse">
<stop stop-color="#09005D"/>
<stop offset="1" stop-color="#1A0F91"/>
</linearGradient>
<linearGradient id="paint30_linear" x1="-149321" y1="154987" x2="-141654" y2="163449" gradientUnits="userSpaceOnUse">
<stop stop-color="#09005D"/>
<stop offset="1" stop-color="#1A0F91"/>
</linearGradient>
<linearGradient id="paint31_linear" x1="-14933.3" y1="108172" x2="-17461.7" y2="102014" gradientUnits="userSpaceOnUse">
<stop stop-color="#FFBDBC"/>
<stop offset="1" stop-color="#FFBDBC"/>
</linearGradient>
<linearGradient id="paint32_linear" x1="-81867.4" y1="11993.5" x2="-82451.6" y2="14328.6" gradientUnits="userSpaceOnUse">
<stop stop-color="#4F52FF"/>
<stop offset="1" stop-color="#4042E2"/>
</linearGradient>
<linearGradient id="paint33_linear" x1="464176" y1="76520" x2="554252" y2="64572.9" gradientUnits="userSpaceOnUse">
<stop stop-color="#09005D"/>
<stop offset="1" stop-color="#1A0F91"/>
</linearGradient>
<linearGradient id="paint34_linear" x1="-11106.6" y1="17286.3" x2="-11618" y2="17811.8" gradientUnits="userSpaceOnUse">
<stop stop-color="#4F52FF"/>
<stop offset="1" stop-color="#4042E2"/>
</linearGradient>
<linearGradient id="paint35_linear" x1="137641" y1="123565" x2="145450" y2="106608" gradientUnits="userSpaceOnUse">
<stop stop-color="#4F52FF"/>
<stop offset="1" stop-color="#4042E2"/>
</linearGradient>
<linearGradient id="paint36_linear" x1="192065" y1="128649" x2="225723" y2="61358.1" gradientUnits="userSpaceOnUse">
<stop stop-color="#4F52FF"/>
<stop offset="1" stop-color="#4042E2"/>
</linearGradient>
<linearGradient id="paint37_linear" x1="36251.6" y1="188035" x2="20548.6" y2="140742" gradientUnits="userSpaceOnUse">
<stop stop-color="#4F52FF"/>
<stop offset="1" stop-color="#4042E2"/>
</linearGradient>
</defs>
</svg>
