<svg width="1440" height="1126" viewBox="0 0 1440 1126" fill="none" xmlns="http://www.w3.org/2000/svg">
<g clip-path="url(#clip0)">
<path d="M1559.64 -5.52002H-4.55872V1036.77H1559.64V-5.52002Z" fill="#FFF6ED"/>
<path d="M119.524 151.997C88.121 162.397 8.55536 160.525 -22.3477 148.773V-76.096H178.728C197.666 -56.4816 211.13 -32.416 215.5 -5.99999C226.342 60.1232 183.14 130.739 119.524 151.997Z" fill="white"/>
<g style="mix-blend-mode:multiply" opacity="0.38">
<path d="M482.066 203.666C515.764 203.666 543.081 176.361 543.081 142.68C543.081 108.999 515.764 81.6943 482.066 81.6943C448.368 81.6943 421.051 108.999 421.051 142.68C421.051 176.361 448.368 203.666 482.066 203.666Z" fill="#FFCBC3"/>
</g>
<g style="mix-blend-mode:multiply" opacity="0.38">
<path d="M1460.08 725.149C1491.98 714.317 1509.06 679.682 1498.23 647.79C1487.39 615.898 1452.74 598.825 1420.83 609.657C1388.92 620.489 1371.84 655.124 1382.68 687.016C1393.52 718.908 1428.17 735.981 1460.08 725.149Z" fill="#FFCBC3"/>
</g>
<g style="mix-blend-mode:multiply" opacity="0.38">
<path d="M1559.68 969.667V1036.77H-4.55872V395.005C23.8298 373.424 56.6274 358.362 91.501 350.888C159.946 336.453 234.612 353.28 289.718 395.525C345.905 438.518 382.552 505.952 447.355 535.051C515.092 565.44 593.837 545.659 666.548 529.622C739.259 513.586 822.999 504.08 881.538 549.091C910.984 571.763 929.276 605.106 950.732 635.141C972.187 665.176 1000.43 694.338 1037.34 700.619C1102.98 711.851 1168.32 647.205 1230.88 669.752C1276.47 686.184 1293.31 739.744 1301.9 786.544C1310.5 833.344 1320.63 886.654 1362.13 911.344C1403.62 936.033 1458.1 920.454 1504.82 933.683C1526.27 939.989 1545.36 952.512 1559.68 969.667Z" fill="#FFCBC3"/>
</g>
<path d="M1559.68 -5.52002V477.56C1512.17 471.195 1463.18 470.946 1415.3 466.224C1337.7 458.611 1253.89 433.818 1211.92 368.131C1172.23 306.002 1175.94 216.291 1117.23 171.696C1066 132.821 993.642 148.4 930.296 137.21C899.675 131.544 870.637 119.34 845.167 101.431C819.696 83.5219 798.393 60.3298 782.71 33.4384C775.628 21.0774 769.834 8.02292 765.417 -5.52002L1559.68 -5.52002Z" fill="#EFEFFF"/>
<path d="M654.02 1003.86C936.878 1003.86 1166.18 972.144 1166.18 933.018C1166.18 893.891 936.878 862.173 654.02 862.173C371.163 862.173 141.862 893.891 141.862 933.018C141.862 972.144 371.163 1003.86 654.02 1003.86Z" fill="#D7E0FC"/>
<path d="M663.884 963.198C858.187 963.198 1015.7 948.028 1015.7 929.315C1015.7 910.602 858.187 895.432 663.884 895.432C469.581 895.432 312.068 910.602 312.068 929.315C312.068 948.028 469.581 963.198 663.884 963.198Z" fill="#EFEFFF"/>
<path d="M761.005 260.72C768.372 259.805 774.761 255.062 782.003 253.482C789.245 251.901 798.984 256.019 798.36 263.424C798.027 267.438 794.614 270.621 790.868 272.118C787.029 273.345 783.064 274.134 779.048 274.469C768.225 276.173 758.116 280.936 749.914 288.197C747.416 290.422 744.919 293.418 745.439 296.746C746.23 301.883 752.993 303.152 758.175 302.986C777.413 302.459 796.493 299.353 814.904 293.75C819.627 292.315 824.955 290.027 826.183 285.264C826.512 283.219 826.202 281.122 825.293 279.26C824.384 277.398 822.921 275.863 821.105 274.864C817.404 272.917 813.28 271.909 809.098 271.931C783.812 270.489 758.667 276.577 736.845 289.424C732.683 291.899 728.146 295.373 728 300.24C727.792 306.48 734.826 310.39 740.882 312.242C767.508 320.218 796.016 319.253 822.042 309.496C828.659 306.979 836.172 302.091 835.381 295.061C834.777 289.778 829.616 286.325 824.809 284.037C807.735 275.973 788.699 272.991 769.974 275.446C764.361 275.895 758.948 277.732 754.221 280.792C749.685 284.099 746.542 289.819 747.708 295.352C749.289 302.798 757.572 306.646 765.022 308.269C783.405 312.161 802.574 309.42 819.128 300.531C822.853 298.451 826.869 295.414 826.745 291.171C826.599 285.472 819.503 282.976 813.821 282.581C798.152 281.605 782.538 285.22 768.892 292.981C761.754 297.141 754.554 303.818 755.532 311.992C756.51 320.166 765.271 325.075 773.346 326.906C785.935 329.722 799.093 328.477 810.929 323.349C820.335 319.189 829.658 309.621 826.099 300.011C823.623 293.355 816.111 290.235 809.222 288.509C791.665 284.14 773.298 284.183 755.761 288.634C743.442 291.774 729.936 299.366 728.833 312.013C727.688 325.325 741.152 335.371 754.013 339.053C772.421 344.161 792.075 342.187 809.098 333.52C821.896 327.01 833.716 314.28 831.593 300.074C829.471 285.867 815.278 277.547 801.772 273.699C788.39 269.888 774.376 268.813 760.568 270.538C752.556 271.536 742.609 276.278 743.92 284.245C744.857 290.027 751.412 292.939 757.176 294.042C772.338 296.886 788.017 294.278 801.439 286.678C808.64 282.518 815.736 274.739 812.843 266.981C810.533 260.741 803.021 258.349 796.445 257.413C786.279 255.957 775.958 255.957 765.792 257.413C758.238 258.494 749.643 261.427 747.291 268.666C746.634 271.225 746.686 273.914 747.441 276.446C748.196 278.978 749.626 281.257 751.578 283.038C755.524 286.55 760.363 288.904 765.563 289.84C779.417 292.876 793.902 290.808 806.351 284.016C810.034 281.936 813.884 278.858 813.905 274.635C813.905 268.499 806.288 265.608 800.149 265.296C784.887 264.587 769.828 269.018 757.384 277.88C751.62 282.04 746.022 288.8 748.332 295.518C750.122 300.76 755.948 303.381 761.317 304.67C769.795 306.666 778.593 306.901 787.165 305.363C795.738 303.825 803.904 300.545 811.158 295.726C795.117 289.841 777.464 290.108 761.609 296.475C752.411 300.198 743.088 307.666 743.275 317.566C743.442 326.947 752.015 333.936 760.547 337.805C770.158 342.076 780.582 344.21 791.099 344.06C801.616 343.909 811.975 341.477 821.459 336.931C832.551 331.502 843.06 321.248 842.269 308.934C841.561 297.37 831.302 288.696 820.897 283.579C800.825 273.822 777.863 271.786 756.385 277.859C742.859 281.77 729.332 290.027 724.775 303.36C720.405 316.256 726.044 331.232 736.533 339.906C747.021 348.579 761.505 351.491 774.99 349.973C788.475 348.454 801.294 342.922 813.197 336.266C823.249 330.65 834.007 321.706 832.863 310.349C832.093 303.006 826.141 296.954 819.274 294.27C812.406 291.587 804.707 291.795 797.423 292.835C788.698 293.754 780.331 296.797 773.054 301.696C766 306.854 760.756 315.029 760.756 323.765C760.756 332.501 766.999 341.299 775.51 342.859C781.045 343.878 786.664 341.965 792.283 341.694C797.902 341.424 804.561 343.774 805.83 349.224C807.287 355.651 800.337 360.893 793.948 362.494C787.559 364.096 780.255 364.366 775.572 369.005C774.303 370.051 773.252 371.337 772.48 372.789C771.708 374.241 771.229 375.831 771.072 377.468C770.914 379.105 771.081 380.757 771.562 382.329C772.043 383.902 772.83 385.364 773.876 386.633C775.99 389.195 779.036 390.813 782.343 391.131C783.981 391.289 785.634 391.122 787.207 390.641C788.78 390.16 790.244 389.374 791.513 388.328" stroke="#7489ED" stroke-linecap="round" stroke-linejoin="round"/>
<path d="M1039.61 843.661L1061.8 871.117C1062.54 872.043 1063.5 872.774 1064.58 873.246C1065.67 873.718 1066.86 873.916 1068.05 873.824C1069.23 873.732 1070.37 873.351 1071.38 872.716C1072.38 872.081 1073.21 871.211 1073.8 870.181L1090.06 841.934L1039.61 843.661Z" fill="#FEB6AA"/>
<path d="M389.273 843.661L411.436 871.117C412.18 872.042 413.139 872.772 414.23 873.242C415.32 873.712 416.509 873.909 417.693 873.814C418.877 873.72 420.02 873.338 421.022 872.701C422.025 872.064 422.856 871.192 423.444 870.16L439.696 841.914L389.273 843.661Z" fill="#FEB6AA"/>
<path d="M377.62 613.405L464.252 610.181L469.039 684.478L439.051 703.219L377.62 613.405Z" fill="#7489ED"/>
<path style="mix-blend-mode:multiply" opacity="0.53" d="M377.62 613.405L464.252 610.181L469.039 684.478L439.051 703.219L377.62 613.405Z" fill="url(#paint0_linear)"/>
<path d="M470.079 686.642C470.079 686.642 452.828 575.507 472.66 569.475C492.492 563.443 989.834 565.17 1014.85 571.202C1039.86 577.234 1026.04 688.368 1026.04 688.368C1026.04 688.368 469.226 685.789 470.079 686.642Z" fill="#7489ED"/>
<path style="mix-blend-mode:multiply" opacity="0.65" d="M470.079 686.642C470.079 686.642 452.828 575.507 472.66 569.475C492.492 563.443 989.834 565.17 1014.85 571.202C1039.86 577.234 1026.04 688.368 1026.04 688.368C1026.04 688.368 469.226 685.789 470.079 686.642Z" fill="url(#paint1_linear)"/>
<path d="M443.026 764.392H1023.78C1026.61 764.392 1029.32 765.516 1031.32 767.517C1033.33 769.518 1034.45 772.232 1034.45 775.062V848.819H442.173V765.141C442.172 765.033 442.194 764.926 442.238 764.828C442.282 764.73 442.347 764.642 442.428 764.571C442.509 764.5 442.604 764.447 442.707 764.416C442.811 764.385 442.919 764.377 443.026 764.392Z" fill="#7489ED"/>
<path style="mix-blend-mode:multiply" opacity="0.53" d="M442.173 764.829H1023.78C1026.61 764.829 1029.32 765.953 1031.32 767.954C1033.33 769.955 1034.45 772.669 1034.45 775.499V849.36H442.173V764.829Z" fill="url(#paint2_linear)"/>
<path d="M1035.7 753.347C1035.51 756.422 1034.15 759.308 1031.89 761.412C1029.64 763.516 1026.67 764.679 1023.59 764.662L442.693 766.514C441.325 766.536 439.966 766.288 438.694 765.784C437.422 765.28 436.261 764.531 435.279 763.578C434.297 762.626 433.513 761.489 432.971 760.233C432.429 758.977 432.141 757.627 432.122 756.259C431.955 740.347 431.747 711.123 432.226 706.443C432.892 699.995 469.039 684.478 469.039 684.478C468.061 683.522 1025.86 688.347 1025.86 688.347C1025.86 688.347 1034.49 696.293 1036.59 706.443C1036.83 707.51 1036.98 708.596 1037.03 709.688C1037.47 717.509 1036.43 739.682 1035.7 753.347Z" fill="#7489ED"/>
<g style="mix-blend-mode:multiply" opacity="0.34">
<path d="M1035.7 753.347C1035.51 756.422 1034.15 759.308 1031.89 761.412C1029.64 763.516 1026.67 764.679 1023.59 764.662L442.693 766.514C441.325 766.536 439.966 766.288 438.694 765.784C437.422 765.28 436.261 764.531 435.279 763.578C434.297 762.626 433.513 761.489 432.971 760.233C432.429 758.977 432.141 757.627 432.122 756.259C431.955 740.347 431.747 711.123 432.226 706.443H1036.59C1036.83 707.51 1036.98 708.596 1037.03 709.688C1037.47 717.509 1036.43 739.681 1035.7 753.347Z" fill="#7489ED"/>
</g>
<path d="M1025.86 685.768C1025.86 685.768 1024.75 623.742 1068.06 614.049C1111.37 604.357 1113.32 643.773 1113.32 643.773V826.958C1113.33 829.895 1112.77 832.806 1111.65 835.523C1110.54 838.24 1108.9 840.711 1106.82 842.792C1104.75 844.874 1102.29 846.526 1099.57 847.653C1096.86 848.78 1093.95 849.36 1091.01 849.36H1022.78L1025.86 685.768Z" fill="#7489ED"/>
<path d="M440.508 685.768C440.508 685.768 441.632 623.742 398.305 614.049C354.978 604.357 353.064 643.773 353.064 643.773V826.958C353.05 829.895 353.617 832.806 354.732 835.523C355.847 838.24 357.488 840.711 359.561 842.792C361.634 844.874 364.098 846.526 366.811 847.653C369.525 848.78 372.434 849.36 375.372 849.36H443.567L440.508 685.768Z" fill="#7489ED"/>
<path d="M614.523 681.629C613.964 683.361 612.84 684.855 611.331 685.874C609.822 686.892 608.015 687.375 606.199 687.245C591.403 686.122 552.259 683.48 533.613 685.56C516.632 687.453 487.518 689.554 473.014 690.573H472.764C472.328 690.626 471.888 690.626 471.453 690.573C469.594 690.329 467.897 689.387 466.706 687.938C465.516 686.49 464.922 684.643 465.043 682.773C466.084 666.008 459.945 649.326 455.762 633.144C452.912 620.711 449.035 608.536 444.171 596.744C439.155 585.429 429.167 578.565 420.572 570.058C420.236 569.729 419.985 569.323 419.841 568.875C419.697 568.427 419.665 567.951 419.747 567.488C419.829 567.024 420.023 566.588 420.312 566.217C420.601 565.846 420.976 565.55 421.404 565.357L422.195 565.024L423.444 564.4C428.306 562.371 433.342 560.784 438.49 559.658C446.866 558.213 455.415 558.065 463.836 559.221C473.082 559.953 482.38 559.716 491.576 558.514C508.224 556.558 524.706 553.73 541.167 550.755C556.4 548.03 572.819 542.872 588.385 543.683C589.122 543.71 589.842 543.908 590.489 544.262C591.136 544.615 591.692 545.115 592.112 545.72C592.532 546.326 592.805 547.021 592.91 547.751C593.014 548.48 592.947 549.224 592.714 549.923C584.868 572.803 599.269 593.27 607.988 613.675C616.978 634.662 621.806 659.165 614.523 681.629Z" fill="#FFE591"/>
<path d="M472.701 690.573C472.266 690.626 471.826 690.626 471.39 690.573L462.754 640.133C459.945 623.784 456.74 605.272 447.001 590.441C440.404 580.457 431.227 572.574 422.133 565.024L423.444 564.4C432.434 571.888 441.528 579.73 448.062 589.714C457.989 604.773 461.173 623.41 464.003 639.904L472.701 690.573Z" fill="#D7E0FC"/>
<path d="M886.928 685.518C887.486 687.25 888.61 688.745 890.119 689.763C891.628 690.781 893.436 691.264 895.252 691.134C910.048 689.99 949.191 687.37 967.858 689.429C984.818 691.342 1013.93 693.443 1028.44 694.442H1028.71C1029.14 694.483 1029.58 694.483 1030.02 694.442C1031.87 694.188 1033.56 693.244 1034.75 691.797C1035.94 690.351 1036.54 688.51 1036.43 686.642C1035.39 669.856 1041.51 653.174 1045.69 637.013C1048.55 624.575 1052.42 612.394 1057.28 600.592C1062.29 589.277 1072.3 582.413 1080.88 573.926C1081.22 573.598 1081.47 573.19 1081.62 572.74C1081.77 572.29 1081.8 571.811 1081.72 571.344C1081.64 570.878 1081.44 570.439 1081.15 570.066C1080.86 569.693 1080.48 569.397 1080.05 569.205L1079.25 568.872L1077.96 568.29C1073.11 566.258 1068.08 564.677 1062.94 563.568C1054.56 562.117 1046.02 561.962 1037.59 563.11C1028.35 563.812 1019.06 563.547 1009.87 562.32C993.226 560.365 976.765 557.536 960.304 554.582C945.05 551.837 928.652 546.678 913.065 547.49C912.33 547.521 911.612 547.721 910.967 548.076C910.323 548.431 909.769 548.93 909.35 549.535C908.93 550.139 908.657 550.832 908.55 551.56C908.444 552.288 908.508 553.03 908.737 553.73C916.603 576.61 902.181 597.077 893.483 617.482C884.493 638.552 879.623 663.034 886.928 685.518Z" fill="#FFE591"/>
<path d="M1028.75 694.442C1029.18 694.483 1029.62 694.483 1030.06 694.442L1038.7 644.002C1041.51 627.653 1044.69 609.12 1054.45 594.29C1061.03 584.326 1070.22 576.422 1079.3 568.872L1078.01 568.29C1069.02 575.798 1059.94 583.64 1053.41 593.603C1043.48 608.662 1040.28 627.32 1037.45 643.794L1028.75 694.442Z" fill="#D7E0FC"/>
<path style="mix-blend-mode:multiply" d="M802.584 704.509C882.323 704.509 946.965 699.88 946.965 694.171C946.965 688.462 882.323 683.834 802.584 683.834C722.845 683.834 658.203 688.462 658.203 694.171C658.203 699.88 722.845 704.509 802.584 704.509Z" fill="url(#paint3_linear)"/>
<path d="M743.691 826.958L746.168 847.509L713.829 851.149L711.186 830.931L743.691 826.958Z" fill="#FE9187"/>
<path d="M706.878 851.149C712.018 843.536 711.456 835.507 722.798 834.301C738.489 832.616 740.861 843.037 741.964 845.242C743.067 847.446 745.96 842.371 748.394 842.6C750.829 842.829 752.556 856.744 753.472 861.32C754.388 865.896 756.115 871.47 753.701 874.133C751.287 876.795 719.801 892.042 710.582 895.786C702.529 899.051 680.512 901.485 683.155 886.072C684.903 875.984 701.78 858.72 706.878 851.149Z" fill="#0B2C6F"/>
<path d="M884.472 831.326L882.495 851.211L912.337 850.546L913.336 831.971L884.472 831.326Z" fill="#FE9187"/>
<path d="M901.224 842.621C905.116 841.061 909.798 840.541 913.315 842.787C916.395 844.867 917.81 848.507 919.391 851.835C922.304 857.866 926.312 863.304 931.212 867.872C934.867 870.859 938.342 874.061 941.617 877.461C943.235 879.174 944.471 881.212 945.242 883.439C946.013 885.665 946.303 888.031 946.091 890.378C945.154 896.118 939.723 900.403 934 901.381C928.17 902.061 922.275 900.85 917.186 897.928C912.004 895.286 907.321 891.688 902.265 888.859C896.658 885.656 890.635 883.241 884.368 881.683C879.79 880.539 874.462 879.395 872.381 875.173C870.633 871.595 872.069 867.352 873.505 863.649C875.107 859.489 876.731 855.329 878.333 851.169C878.945 848.955 880.25 846.994 882.058 845.574C882.865 845.109 883.78 844.864 884.711 844.864C885.643 844.864 886.558 845.109 887.365 845.574C890.382 847.301 889.446 851.045 892.962 847.966C895.4 845.738 898.192 843.932 901.224 842.621Z" fill="#0B2C6F"/>
<path d="M923.283 550.526C923.283 550.526 919.974 542.206 909.361 507.762C897.457 469.094 859.854 439.288 818.254 443.448C733.994 434.962 723.609 458.362 709.355 474.274C693.102 496.488 682.822 564.774 682.822 564.774L728.604 564.525C732.891 595.434 737.261 630.856 737.261 630.856C737.261 630.856 745.585 630.419 797.86 616.296C850.135 602.173 899.996 607.976 899.996 607.976C899.996 607.976 889.591 587.717 879.373 564.982L923.283 550.526Z" fill="#FFCBC3"/>
<path d="M857.939 485.547C857.939 485.547 850.843 519.555 879.436 564.878" stroke="#071A42" stroke-width="0.27" stroke-linecap="round" stroke-linejoin="round"/>
<path d="M860.457 472.984C861.956 466.444 865.216 460.438 869.884 455.616" stroke="#071A42" stroke-width="0.27" stroke-linecap="round" stroke-linejoin="round"/>
<path d="M853.132 511.464C855.509 519.043 859.162 526.161 863.932 532.513L863.641 531.619" stroke="#071A42" stroke-width="0.27" stroke-linecap="round" stroke-linejoin="round"/>
<path d="M709.021 475.23C719.031 484.154 722.964 495.49 726.606 510.757" stroke="#071A42" stroke-width="0.27" stroke-linecap="round" stroke-linejoin="round"/>
<path d="M811.303 445.32C811.454 445.597 811.658 445.841 811.905 446.038C812.152 446.234 812.435 446.379 812.739 446.464C813.098 446.476 813.45 446.371 813.743 446.165C814.036 445.958 814.254 445.662 814.363 445.32C814.523 444.636 814.523 443.924 814.363 443.24L812.802 427.141C812.802 425.976 812.406 424.562 811.303 424.125C810.201 423.688 808.806 424.832 808.14 425.976C804.582 432.278 807.495 439.829 811.303 445.32Z" fill="#071A42"/>
<path d="M684.819 564.774C684.819 564.774 677.515 600.925 691.437 613.509C705.359 626.093 720.301 611.741 730.081 594.394L734.556 563.194L684.819 564.774Z" fill="#FE9187"/>
<path d="M937.226 659.144C932.356 624.242 919.974 609.64 901.848 608.33C901.467 608.309 901.085 608.309 900.704 608.33L900.08 607.914C900.08 607.914 855.858 601.674 792.179 613.675C781.338 615.645 770.629 618.277 760.111 621.558C744.113 618.087 727.696 616.952 711.373 618.189C666.902 621.933 676.329 678.197 678.972 698.539C681.615 718.882 707.274 834.675 707.274 834.675L747.083 832.013L742.651 704.28C756.922 706.043 771.373 705.749 785.561 703.406C806.788 699.413 812.094 697.645 823.144 697.645C832.426 697.645 859.75 700.765 871.965 701.243L872.236 702.512L879.311 838.211L916.02 838.648C916.02 838.648 942.074 694.067 937.226 659.144Z" fill="#0B2C6F"/>
<path d="M806.933 610.16L811.803 648.91C811.889 650.397 812.286 651.85 812.968 653.174C813.333 653.825 813.893 654.345 814.568 654.662C815.244 654.979 816.001 655.077 816.735 654.942C819.003 654.277 819.253 651.219 819.045 648.869C817.88 635.695 816.353 622.578 814.467 609.515" stroke="#D7E0FC" stroke-width="0.27" stroke-linecap="round" stroke-linejoin="round"/>
<path d="M818.67 698.061V695.814" stroke="#D7E0FC" stroke-width="0.27" stroke-linecap="round" stroke-linejoin="round"/>
<path d="M818.462 691.134C818.296 685.685 818.15 680.235 817.984 674.786" stroke="#D7E0FC" stroke-width="0.27" stroke-linecap="round" stroke-linejoin="round" stroke-dasharray="2.25 2.25"/>
<path d="M817.921 672.435V670.209" stroke="#D7E0FC" stroke-width="0.27" stroke-linecap="round" stroke-linejoin="round"/>
<path d="M882.495 651.968C882.495 651.968 871.216 665.446 872.215 702.47" stroke="#D7E0FC" stroke-width="0.27" stroke-linecap="round" stroke-linejoin="round"/>
<path d="M869.156 660.974C866.385 674.37 867.27 688.264 871.715 701.202" stroke="#D7E0FC" stroke-width="0.27" stroke-linecap="round" stroke-linejoin="round"/>
<path d="M759.861 621.163C768.955 622.245 777.341 622.681 786.061 624.741" stroke="#D7E0FC" stroke-width="0.27" stroke-linecap="round" stroke-linejoin="round"/>
<path d="M738.218 663.366C743.046 678.322 743.192 686.787 742.526 704.342" stroke="#D7E0FC" stroke-width="0.27" stroke-linecap="round" stroke-linejoin="round"/>
<path d="M879.623 564.899L902.285 620.373C902.285 620.373 926.821 618.043 930.15 605.813C933.48 593.582 922.617 550.797 922.617 550.797L879.623 564.899Z" fill="#FE9187"/>
<path d="M890.777 580.686C890.777 580.686 809.181 617.835 799.566 627.445L812.177 641.693C812.177 641.693 901.391 628.443 922.888 612.24L890.777 580.686Z" fill="#FE9187"/>
<path d="M799.629 627.611C799.629 627.611 784.042 643.398 776.738 654.006C769.433 664.614 765.292 672.581 764.418 677.656C763.544 682.731 762.587 709.709 764.751 710.27C766.915 710.832 778.507 710.603 779.318 706.11C780.13 701.618 781.753 690.864 781.753 690.864C781.753 690.864 780.858 699.704 782.627 699.933C784.396 700.162 789.037 679.362 789.037 679.362C789.037 679.362 801.315 671.853 804.852 662.347C808.39 652.842 812.157 641.797 812.157 641.797L799.629 627.611Z" fill="#FE9187"/>
<path d="M769.496 678.28C769.496 678.28 768.663 703.406 769.059 710.146" stroke="#071A42" stroke-width="0.27" stroke-linecap="round" stroke-linejoin="round"/>
<path d="M774.532 709.48C774.532 709.48 775.468 685.622 775.801 678.821" stroke="#071A42" stroke-width="0.27" stroke-linecap="round" stroke-linejoin="round"/>
<path d="M781.67 693.298L782.336 679.154" stroke="#071A42" stroke-width="0.27" stroke-linecap="round" stroke-linejoin="round"/>
<path d="M886.47 582.35C886.47 582.35 901.037 579.709 913.669 585.346" stroke="#071A42" stroke-width="0.27" stroke-linecap="round" stroke-linejoin="round"/>
<path d="M771.327 498.256C771.327 498.256 781.94 518.162 799.4 513.294C816.86 508.427 821.292 473.067 819.523 452.288L771.327 498.256Z" fill="#FE9187"/>
<path style="mix-blend-mode:multiply" opacity="0.46" d="M771.327 498.256C771.327 498.256 781.94 518.162 799.4 513.294C816.86 508.427 821.292 473.067 819.523 452.288L771.327 498.256Z" fill="url(#paint4_linear)"/>
<path d="M727.751 442.47C728.646 444.904 729.998 447.171 730.727 449.688C731.455 452.205 731.497 454.41 732.267 456.677C734.16 462.168 739.508 465.579 744.482 468.554C745.175 469.105 745.974 469.51 746.829 469.742C747.685 469.975 748.578 470.03 749.456 469.906C751.537 469.302 752.432 466.827 752.889 464.685C754.69 456.196 754.69 447.424 752.889 438.934C752.168 435.12 750.758 431.469 748.727 428.16C746.696 424.844 743.544 422.364 739.841 421.171C735.679 419.965 730.019 421.005 728.479 425.518C726.606 431.093 725.649 436.771 727.751 442.47Z" fill="#071A42"/>
<path d="M808.557 384.002C811.016 383.628 813.53 383.998 815.778 385.062C816.788 385.937 817.59 387.025 818.127 388.249C818.663 389.472 818.92 390.799 818.878 392.134C818.758 394.797 819.147 397.458 820.023 399.976C821.501 403.096 824.83 404.926 826.682 407.838C828.763 411.083 828.618 415.202 828.451 419.05C828.077 427.37 827.681 435.898 824.809 443.739C823.415 447.525 820.772 451.602 816.735 451.83C812.698 452.059 809.909 448.773 807.891 445.59C803.373 437.956 800.535 429.447 799.567 420.63C798.616 411.873 798.31 403.058 798.651 394.256C798.651 391.448 798.276 385.936 800.586 383.731C802.896 381.526 806.143 384.022 808.557 384.002Z" fill="#071A42"/>
<path d="M816.027 472.88C815.462 474.638 814.809 476.367 814.071 478.059C810.21 487.281 802.878 494.616 793.656 498.485C786.807 501.445 779.112 501.807 772.014 499.504C769.322 498.571 766.756 497.306 764.377 495.739C755.137 489.707 748.353 479.494 743.566 469.926C743.067 468.886 742.547 467.846 742.068 466.765C736.553 454.722 733.744 441.098 735.825 427.973C736.463 423.892 737.929 419.985 740.133 416.491C745.752 407.963 755.844 403.616 765.521 401.64C781.295 398.416 797.943 400.808 807.662 414.723C813.794 423.748 817.584 434.155 818.691 445.008C819.776 454.383 818.868 463.88 816.027 472.88Z" fill="#FE9187"/>
<path d="M751.141 443.323C752.371 442.309 753.784 441.539 755.303 441.056C756.081 440.834 756.907 440.844 757.679 441.085C758.452 441.325 759.138 441.785 759.653 442.408C759.99 443.008 760.167 443.685 760.167 444.374C760.167 445.062 759.99 445.739 759.653 446.339C759.003 447.55 758.085 448.596 756.968 449.397C754.7 451.248 743.005 458.653 740.611 454.68C738.218 450.707 749.081 444.821 751.141 443.323Z" fill="#071A42"/>
<path d="M782.19 433.568C780.573 433.583 778.975 433.915 777.487 434.546C776.746 434.873 776.118 435.41 775.678 436.09C775.238 436.77 775.006 437.563 775.011 438.373C775.121 439.051 775.402 439.689 775.828 440.228C776.254 440.766 776.811 441.187 777.445 441.451C778.718 441.967 780.091 442.188 781.462 442.096C784.396 442.096 798.11 440.224 797.402 435.648C796.695 431.072 784.729 433.36 782.19 433.568Z" fill="#071A42"/>
<path d="M752.827 458.59C752.945 459.418 753.388 460.164 754.057 460.666C754.727 461.167 755.568 461.382 756.396 461.263C757.224 461.145 757.971 460.702 758.472 460.033C758.974 459.364 759.189 458.523 759.07 457.696C758.951 456.868 758.509 456.122 757.839 455.621C757.17 455.119 756.329 454.905 755.501 455.023C754.673 455.142 753.926 455.584 753.425 456.253C752.923 456.922 752.708 457.763 752.827 458.59Z" fill="#071A42"/>
<path style="mix-blend-mode:multiply" opacity="0.46" d="M762.087 460.15L758.675 464.872C758.675 464.872 762.878 468.429 762.087 460.15Z" fill="url(#paint5_linear)"/>
<path d="M786.144 449.376C786.192 449.987 786.057 450.599 785.757 451.133C785.456 451.668 785.004 452.102 784.457 452.379C783.911 452.657 783.294 452.766 782.685 452.694C782.076 452.621 781.502 452.369 781.036 451.971C780.57 451.572 780.233 451.044 780.067 450.454C779.902 449.863 779.915 449.237 780.105 448.654C780.295 448.072 780.654 447.558 781.137 447.18C781.619 446.801 782.203 446.573 782.814 446.526C783.634 446.463 784.445 446.728 785.069 447.262C785.694 447.797 786.08 448.557 786.144 449.376Z" fill="#071A42"/>
<path style="mix-blend-mode:multiply" opacity="0.46" d="M777.445 452.912L781.795 456.802C781.795 456.802 778.465 461.19 777.445 452.912Z" fill="url(#paint6_linear)"/>
<path d="M765.251 448.357C765.381 451.249 765.679 454.131 766.145 456.989C766.604 459.832 767.358 462.621 768.393 465.309C768.917 466.629 769.565 467.897 770.328 469.094C771.033 470.278 771.918 471.344 772.95 472.256C773.945 473.166 775.167 473.792 776.488 474.066C777.832 474.273 779.204 473.952 780.317 473.171C780.368 473.123 780.435 473.096 780.504 473.096C780.574 473.096 780.641 473.123 780.692 473.171C780.715 473.194 780.733 473.222 780.746 473.252C780.759 473.283 780.765 473.315 780.765 473.348C780.765 473.381 780.759 473.413 780.746 473.444C780.733 473.474 780.715 473.502 780.692 473.525C780.13 474.083 779.454 474.513 778.711 474.786C777.967 475.059 777.174 475.168 776.384 475.106C774.802 474.94 773.311 474.285 772.118 473.234C769.83 471.214 768.109 468.633 767.123 465.746C765.154 460.157 764.34 454.227 764.73 448.315C764.736 448.242 764.769 448.173 764.823 448.123C764.877 448.072 764.948 448.045 765.022 448.045C765.057 448.05 765.092 448.062 765.123 448.08C765.154 448.099 765.181 448.123 765.202 448.153C765.223 448.182 765.238 448.215 765.247 448.25C765.255 448.285 765.256 448.321 765.251 448.357Z" fill="#071A42"/>
<path d="M783.043 469.635L785.374 470.301C785.873 469.926 785.665 468.824 785.374 468.075C785.36 468.062 785.349 468.045 785.342 468.027C785.334 468.01 785.33 467.99 785.33 467.971C785.33 467.952 785.334 467.933 785.342 467.915C785.349 467.897 785.36 467.881 785.374 467.867C785.388 467.853 785.404 467.842 785.422 467.835C785.439 467.827 785.459 467.823 785.478 467.823C785.497 467.823 785.517 467.827 785.534 467.835C785.552 467.842 785.568 467.853 785.582 467.867C785.835 468.293 786.018 468.756 786.123 469.24C786.207 469.513 786.217 469.803 786.151 470.081C786.085 470.359 785.946 470.615 785.749 470.821C785.712 470.873 785.661 470.913 785.602 470.935C785.542 470.957 785.477 470.961 785.416 470.946L783.543 470.384L783.813 471.153C783.83 471.196 783.837 471.241 783.835 471.286C783.834 471.331 783.823 471.376 783.803 471.417C783.784 471.458 783.756 471.494 783.722 471.524C783.688 471.554 783.648 471.576 783.605 471.59C783.55 471.628 783.485 471.648 783.418 471.648C783.351 471.648 783.286 471.628 783.231 471.59V471.466L782.731 470.072C782.698 470.019 782.68 469.958 782.68 469.895C782.68 469.833 782.698 469.771 782.731 469.718C782.772 469.679 782.822 469.651 782.876 469.636C782.931 469.622 782.988 469.621 783.043 469.635Z" fill="#071A42"/>
<path d="M778.902 482.656L778.715 482.76C782.786 478.408 788.023 475.318 793.802 473.858" stroke="#071A42" stroke-width="0.27" stroke-linecap="round" stroke-linejoin="round"/>
<path d="M785.041 482.594C786.763 482.131 788.347 481.261 789.661 480.056" stroke="#071A42" stroke-width="0.27" stroke-linecap="round" stroke-linejoin="round"/>
<path style="mix-blend-mode:multiply" opacity="0.46" d="M816.027 472.88C813.686 474.524 810.991 475.596 808.16 476.011C805.329 476.425 802.44 476.171 799.725 475.269C797.01 474.366 794.544 472.84 792.525 470.813C790.506 468.786 788.991 466.315 788.1 463.597C787.21 460.879 786.969 457.99 787.397 455.162C787.825 452.335 788.91 449.646 790.565 447.313C792.22 444.98 794.399 443.067 796.927 441.728C799.455 440.388 802.262 439.659 805.123 439.6C807.648 439.518 810.161 439.966 812.502 440.916C814.843 441.865 816.958 443.295 818.712 445.112C819.775 454.454 818.86 463.915 816.027 472.88Z" fill="url(#paint7_linear)"/>
<path style="mix-blend-mode:multiply" opacity="0.46" d="M771.556 480.722C771.606 483.282 771.124 485.824 770.141 488.189C770.09 488.402 770.006 488.605 769.891 488.792C768.66 491.53 766.764 493.918 764.377 495.739C755.137 489.707 748.353 479.494 743.566 469.926C743.067 468.886 742.547 467.846 742.068 466.765C745.117 464.349 748.874 462.997 752.765 462.917C757.615 462.799 762.315 464.606 765.837 467.943C769.358 471.279 771.415 475.874 771.556 480.722Z" fill="url(#paint8_linear)"/>
<path d="M813.842 422.71C815.424 420.402 818.004 418.197 820.71 418.717C823.415 419.237 824.872 421.878 825.787 424.416C827.091 428.349 827.528 432.518 827.068 436.636C826.609 440.754 825.263 444.724 823.124 448.274C821.521 450.894 818.753 453.494 815.778 452.725C813.239 452.059 811.949 449.251 811.22 446.714C808.848 438.602 808.848 429.949 813.842 422.71Z" fill="#FE9187"/>
<path d="M819.544 425.29C818.244 429.717 818.244 434.424 819.544 438.851" stroke="#071A42" stroke-width="0.27" stroke-linecap="round" stroke-linejoin="round"/>
<path d="M818.691 430.448C820.019 430.932 821.144 431.851 821.881 433.056C822.618 434.262 822.924 435.681 822.749 437.083" stroke="#071A42" stroke-width="0.27" stroke-linecap="round" stroke-linejoin="round"/>
<path d="M821.396 409.856C820.33 407.044 818.56 404.552 816.256 402.618C813.566 400.576 811.14 398.207 809.035 395.566C807.376 392.444 806.058 389.153 805.102 385.749C803.021 380.299 798.713 375.349 793.011 374.038C788.454 373.019 783.751 374.475 779.131 375.12C771.723 376.139 764.189 375.12 756.739 375.598C751.418 376.104 746.261 377.718 741.601 380.337C736.942 382.955 732.883 386.521 729.686 390.803C724.712 397.147 720.259 405.925 719.989 414.099C719.82 415.858 720.205 417.625 721.091 419.154C722.402 421.234 724.837 422.003 726.606 423.605C729.311 426.038 729.707 429.99 732.058 432.694C734.034 434.762 736.668 436.079 739.508 436.418C744.503 437.166 751.558 437.562 755.407 433.589C759.257 429.616 758.654 419.341 767.207 423.376C769.054 424.53 771.039 425.446 773.117 426.101C779.048 427.286 782.211 421.046 785.27 417.219C786.697 415.261 788.707 413.804 791.014 413.059C796.508 411.686 798.589 417.219 798.734 421.67C798.859 425.29 798.734 429.075 800.503 432.382C801.835 434.899 808.827 444.488 811.637 444.862C814.446 445.237 813.052 435.773 813.572 432.965C814.092 430.157 812.302 427.474 813.114 424.874C814.05 421.795 817.9 420.714 820.023 418.384C820.97 417.202 821.594 415.796 821.835 414.301C822.076 412.806 821.925 411.275 821.396 409.856Z" fill="#071A42"/>
<path d="M685.319 590.754C685.319 590.754 686.297 575.174 703.216 545.326C720.883 514.126 734.722 494.949 734.722 494.949C734.722 494.949 728.479 481.013 727.438 472.402C726.398 463.79 726.252 437.042 730.081 436.272C733.91 435.502 736.054 444.592 737.053 448.752C737.744 452.252 738.189 455.797 738.385 459.36C738.385 459.36 748.665 447.109 755.615 440.474C762.566 433.838 769.558 428.534 772.534 429.533C775.51 430.531 769.558 438.477 767.56 441.139C765.563 443.802 757.28 455.054 757.28 455.054C757.28 455.054 781.503 432.174 786.144 433.506C786.733 433.632 787.286 433.894 787.757 434.269C788.229 434.644 788.608 435.123 788.863 435.669C789.119 436.215 789.246 436.812 789.232 437.415C789.219 438.017 789.066 438.608 788.787 439.142C788.787 439.142 793.427 440.141 793.095 443.781C792.762 447.421 778.84 463.686 778.84 463.686C778.84 463.686 786.144 457.717 788.787 458.715C791.43 459.714 787.788 467.659 784.479 471.632C781.17 475.605 775.198 490.872 771.535 495.843C768.465 499.461 764.764 502.492 760.61 504.787C760.61 504.787 738.718 578.378 730.081 594.227C721.445 610.077 706.878 625.427 694.267 615.776C679.409 604.606 685.319 590.754 685.319 590.754Z" fill="#FE9187"/>
<path style="mix-blend-mode:multiply" opacity="0.6" d="M685.319 590.754C685.319 590.754 686.297 575.174 703.216 545.326C720.883 514.126 734.722 494.949 734.722 494.949C734.722 494.949 728.479 481.013 727.438 472.402C726.398 463.79 726.252 437.042 730.081 436.272C733.91 435.502 736.054 444.592 737.053 448.752C737.744 452.252 738.189 455.797 738.385 459.36C738.385 459.36 748.665 447.109 755.615 440.474C762.566 433.838 769.558 428.534 772.534 429.533C775.51 430.531 769.558 438.477 767.56 441.139C765.563 443.802 757.28 455.054 757.28 455.054C757.28 455.054 781.503 432.174 786.144 433.506C786.733 433.632 787.286 433.894 787.757 434.269C788.229 434.644 788.608 435.123 788.863 435.669C789.119 436.215 789.246 436.812 789.232 437.415C789.219 438.017 789.066 438.608 788.787 439.142C788.787 439.142 793.427 440.141 793.095 443.781C792.762 447.421 778.84 463.686 778.84 463.686C778.84 463.686 786.144 457.717 788.787 458.715C791.43 459.714 787.788 467.659 784.479 471.632C781.17 475.605 775.198 490.872 771.535 495.843C768.465 499.461 764.764 502.492 760.61 504.787C760.61 504.787 738.718 578.378 730.081 594.227C721.445 610.077 706.878 625.427 694.267 615.776C679.409 604.606 685.319 590.754 685.319 590.754Z" fill="url(#paint9_linear)"/>
<path d="M788.787 439.246L763.419 464.123" stroke="#071A42" stroke-width="0.27" stroke-linecap="round" stroke-linejoin="round"/>
<path d="M779.672 462.625C779.672 462.792 771.223 472.402 771.223 472.402" stroke="#071A42" stroke-width="0.27" stroke-linecap="round" stroke-linejoin="round"/>
<path d="M693.539 564.4C689.7 569.633 687.128 575.685 686.026 582.08" stroke="#071A42" stroke-width="0.27" stroke-linecap="round" stroke-linejoin="round"/>
<path d="M442.943 916.69L442.006 929.024L465.439 929.939L466.042 916.378L442.943 916.69Z" fill="#FEB6AA"/>
<path d="M534.404 967.92C533.842 975.907 492.138 975.949 481.192 973.827C470.246 971.706 441.153 973.931 438.947 973.661C437.803 973.515 436.138 972.33 434.785 969.501C434.693 969.313 434.616 969.118 434.556 968.918C433.272 965.506 432.692 961.869 432.85 958.227C432.85 947.141 442.152 928.171 442.152 928.171L465.293 928.026C465.293 928.026 474.054 933.454 481.566 937.074L482.149 937.365C483.231 937.864 484.23 938.342 485.271 938.738L488.33 940.027L488.933 940.277L494.823 942.835L495.384 943.106C509.223 949.346 531.074 959.912 534.008 966.318C534.092 966.5 534.162 966.687 534.216 966.88C534.35 967.21 534.414 967.564 534.404 967.92Z" fill="#071A42"/>
<path d="M534.279 966.942C526.614 970.465 518.238 972.167 509.806 971.914C507.933 971.914 506.039 971.914 504.062 971.747C498.527 971.394 492.95 970.645 487.539 969.938C482.524 969.251 477.321 968.544 472.16 968.211C459.707 967.63 447.226 968.082 434.848 969.563C434.755 969.376 434.679 969.181 434.619 968.981C447.093 967.472 459.672 967.012 472.223 967.608C477.384 967.982 482.628 968.648 487.643 969.334C493.033 970.042 498.568 970.79 504.083 971.144C516.278 971.893 526.1 970.312 534.071 966.381C534.155 966.562 534.224 966.75 534.279 966.942Z" fill="#FFF6ED"/>
<path d="M482.212 937.427C477.922 941.41 474.353 946.104 471.661 951.301L471.141 951.03C473.782 945.834 477.302 941.133 481.546 937.136L482.212 937.427Z" fill="#FFF6ED"/>
<path d="M488.996 940.339C485.58 943.86 482.698 947.861 480.443 952.216L479.923 951.946C482.151 947.601 485.004 943.606 488.392 940.09L488.996 940.339Z" fill="#FFF6ED"/>
<path d="M495.447 943.168C492.894 946.122 490.7 949.369 488.913 952.84L488.392 952.549C490.176 949.091 492.354 945.853 494.885 942.898L495.447 943.168Z" fill="#FFF6ED"/>
<path d="M243.769 690.011C233.92 724.4 231.676 760.52 237.193 795.862C243.956 836.734 326.156 822.133 352.023 816.662C377.89 811.192 445.669 799.398 445.669 799.398C445.669 799.398 430.269 871.47 440.737 917.688L467.79 918.291C475.844 891.251 483.315 864.211 489.974 836.755C496.217 811.067 504.791 783.382 504.187 756.758C503.688 734.877 488.101 722.958 467.416 719.318C446.73 715.678 425.566 719.963 404.985 720.92C401.406 721.086 351.565 724.747 351.357 723.562L344.989 685.768L243.769 690.011Z" fill="#071A42"/>
<path d="M256.109 689.2C258.065 705.84 256.109 722.896 257.961 739.598C259.814 756.301 266.722 773.835 281.269 782.28C292.548 788.811 306.241 788.77 319.351 788.354C359.737 787.078 400.018 783.986 440.196 779.077C446.897 778.266 455.2 778.141 458.592 783.965C460.673 787.418 460.007 791.723 459.383 795.675C453 835.956 450.907 876.8 453.14 917.521" stroke="#FFF6ED" stroke-width="0.25" stroke-miterlimit="10"/>
<path d="M349.443 432.091C349.175 433.176 348.702 434.2 348.049 435.107C347.79 435.522 347.395 435.832 346.93 435.984C346.466 436.136 345.963 436.12 345.51 435.939C344.771 435.43 344.211 434.703 343.907 433.859C340.395 428.077 337.87 421.75 336.436 415.139C335.667 410.542 336.561 393.986 343.179 397.355C348.361 400.08 350.608 412.56 350.941 418.8C351.193 423.283 350.687 427.777 349.443 432.091Z" fill="#FE9187"/>
<path d="M326.302 492.681C326.068 493.446 325.881 494.224 325.74 495.011C324.949 498.797 323.659 506.305 322.827 513.606C322.037 518.734 321.911 523.942 322.452 529.102C323.597 535.342 292.777 532.971 286.118 527.75C278.876 522.093 277.294 520.949 277.294 520.949L286.097 470.946L287.345 463.749L326.302 492.681Z" fill="#FEB6AA"/>
<path style="mix-blend-mode:multiply" opacity="0.46" d="M325.74 495.011C324.949 498.797 323.659 506.306 322.827 513.606C312.422 509.696 304.098 494.554 299.935 485.859C298.25 482.157 297.293 479.619 297.293 479.619C302.474 486.379 324.346 494.47 325.594 494.97L325.74 495.011Z" fill="url(#paint10_linear)"/>
<path d="M360.181 460.546C358.995 462.501 356.518 463.354 355.228 465.246C354.725 465.892 354.292 466.589 353.938 467.326C353.769 467.749 353.643 468.188 353.563 468.637C353.563 469.074 353.563 469.76 353.105 470.093C352.891 470.193 352.656 470.243 352.419 470.238C351.919 470.238 351.399 470.342 350.9 470.363C349.422 470.467 347.924 470.509 346.446 470.613C345.551 470.613 344.656 470.613 343.762 470.779L342.097 470.925H341.244C341.077 470.925 340.869 470.925 340.786 471.112C340.703 471.299 340.786 471.112 340.786 471.112C340.786 471.549 341.577 472.152 341.847 472.381C342.118 472.61 342.596 473.088 342.992 473.421C343.781 474.098 344.608 474.729 345.468 475.314C347.071 476.361 348.74 477.306 350.463 478.142C350.698 478.25 350.889 478.434 351.007 478.664C351.124 478.895 351.159 479.158 351.108 479.411C350.92 480.347 350.733 481.283 350.504 482.24C350.171 483.758 349.838 485.256 349.464 486.754C348.34 491.434 347.383 495.302 341.889 495.968C337.016 496.374 332.111 496.079 327.322 495.094L325.886 494.824C317.083 493.593 308.603 490.669 300.914 486.213C294.841 482.281 289.768 476.99 286.097 470.758C284.314 467.795 282.836 464.659 281.685 461.398C278.827 452.689 277.8 443.483 278.667 434.358C279.085 426.718 281.441 419.31 285.514 412.83C289.459 407.118 294.901 402.601 301.244 399.776C307.587 396.951 314.587 395.926 321.474 396.814C326.7 397.581 331.682 399.531 336.041 402.514C339.273 404.743 341.985 407.645 343.991 411.021C346.756 416.316 348.185 422.207 348.153 428.181C347.919 432.018 348.312 435.868 349.318 439.579C350.9 443.947 354.541 447.171 357.642 450.666C359.973 453.453 362.095 457.426 360.181 460.546Z" fill="#FEB6AA"/>
<path d="M337.623 445.466C337.703 446.032 337.949 446.562 338.33 446.989C338.711 447.415 339.211 447.719 339.765 447.862C340.319 448.005 340.903 447.98 341.443 447.791C341.984 447.602 342.456 447.257 342.799 446.799C343.143 446.342 343.344 445.793 343.375 445.222C343.407 444.651 343.268 444.083 342.977 443.591C342.686 443.098 342.255 442.703 341.739 442.456C341.223 442.208 340.645 442.119 340.078 442.2C339.32 442.308 338.635 442.713 338.175 443.325C337.714 443.937 337.516 444.707 337.623 445.466Z" fill="#071A42"/>
<path style="mix-blend-mode:multiply" opacity="0.46" d="M346.238 446.922L343.075 451.31C343.075 451.31 346.966 454.618 346.238 446.922Z" fill="url(#paint11_linear)"/>
<path d="M327.717 439.205C327.947 437.555 328.715 436.027 329.902 434.858C331.052 433.709 332.436 432.822 333.96 432.258C335.533 431.7 337.218 431.529 338.871 431.758C339.73 431.867 340.557 432.148 341.305 432.584C342.052 433.02 342.704 433.602 343.221 434.296C343.255 434.349 343.279 434.409 343.29 434.471C343.302 434.533 343.301 434.597 343.287 434.659C343.274 434.721 343.248 434.78 343.211 434.832C343.175 434.884 343.129 434.928 343.075 434.962H342.888C341.581 435.185 340.293 435.512 339.038 435.939L335.75 437.083L332.379 438.331L328.487 439.683C328.419 439.709 328.346 439.722 328.273 439.719C328.2 439.716 328.128 439.699 328.062 439.668C327.996 439.637 327.937 439.593 327.888 439.538C327.84 439.483 327.803 439.42 327.78 439.35C327.751 439.305 327.73 439.256 327.717 439.205Z" fill="#071A42"/>
<path style="mix-blend-mode:multiply" opacity="0.46" d="M339.059 462.626C339.126 465.212 338.651 467.784 337.664 470.176C337.664 470.384 337.477 470.592 337.394 470.779C335.507 474.911 332.164 478.203 328.004 480.03C323.844 481.856 319.157 482.088 314.836 480.682C310.516 479.276 306.864 476.33 304.578 472.405C302.291 468.481 301.529 463.852 302.438 459.402C303.346 454.952 305.862 450.992 309.504 448.277C313.146 445.562 317.661 444.281 322.187 444.68C326.714 445.078 330.935 447.128 334.046 450.437C337.158 453.747 338.942 458.085 339.059 462.626Z" fill="url(#paint12_linear)"/>
<path d="M353.917 460.525H350.733C350.234 459.859 350.9 458.445 351.586 457.696C351.616 457.656 351.631 457.606 351.627 457.556C351.624 457.506 351.602 457.459 351.567 457.424C351.532 457.389 351.485 457.367 351.435 457.364C351.385 457.36 351.335 457.375 351.295 457.405C350.81 457.84 350.402 458.353 350.088 458.923C349.905 459.239 349.809 459.598 349.809 459.963C349.809 460.328 349.905 460.687 350.088 461.003C350.117 461.08 350.168 461.147 350.234 461.195C350.301 461.243 350.38 461.27 350.463 461.274H353.043L352.419 462.126C352.334 462.212 352.286 462.328 352.286 462.449C352.286 462.569 352.334 462.685 352.419 462.771C352.494 462.817 352.58 462.841 352.668 462.841C352.757 462.841 352.843 462.817 352.918 462.771L353.043 462.646L354.208 461.066C354.259 460.997 354.289 460.916 354.295 460.831C354.302 460.746 354.285 460.661 354.246 460.586C354.207 460.51 354.148 460.447 354.075 460.403C354.002 460.359 353.919 460.337 353.834 460.338L353.917 460.525Z" fill="#071A42"/>
<path d="M307.864 448.627C307.864 448.627 329.236 436.147 336.624 417.219C344.011 398.291 343.824 394.339 343.824 394.339C342.846 392.03 338.726 390.637 336.749 389.285C318.852 377.221 289.718 371.542 272.529 386.539C265.142 393.54 259.086 401.82 254.653 410.979C248.347 424.751 245.998 440.004 247.869 455.034C249.658 467.722 258.627 474.856 268.179 482.074C270.403 483.828 272.794 485.361 275.317 486.65C276.17 487.066 282.164 490.477 282.809 489.395C282.809 489.395 287.47 487.19 291.487 478.662C297.667 465.642 307.864 448.627 307.864 448.627Z" fill="#FE9187"/>
<path d="M228.806 427.869C225.225 425.549 222.298 422.35 220.305 418.577C218.312 414.805 217.32 410.585 217.423 406.32C217.777 396.482 223.895 387.87 230.159 380.278C234.925 374.496 240.439 368.568 247.785 366.966C256.317 365.115 265.411 369.982 270.01 377.366C274.61 384.75 275.255 394.131 273.402 402.659C271.321 411.978 265.536 424.832 256.63 429.533C249.075 433.547 235.736 432.237 228.806 427.869Z" fill="#FE9187"/>
<path d="M307.053 450C307.053 450 293.172 430.323 282.288 439.309C271.405 448.294 277.793 475.293 296.856 468.429L307.053 450Z" fill="#FEB6AA"/>
<path d="M286.222 446.526C289.174 447.345 291.849 448.951 293.96 451.171C296.071 453.391 297.54 456.142 298.208 459.131" stroke="#071A42" stroke-width="0.25" stroke-linecap="round" stroke-linejoin="round"/>
<path d="M292.569 450C290.523 452.934 289.54 456.478 289.78 460.046" stroke="#071A42" stroke-width="0.25" stroke-linecap="round" stroke-linejoin="round"/>
<path d="M305.513 460.608C306.241 460.899 306.928 460.088 307.323 459.402L314.96 446.194C315.83 444.85 316.529 443.404 317.041 441.888C317.507 440.346 317.358 438.684 316.625 437.25C315.904 436.179 314.836 435.388 313.602 435.009C312.367 434.631 311.039 434.687 309.841 435.17C305.679 436.813 303.598 442.491 303.598 446.755C303.452 449.085 303.723 459.922 305.513 460.608Z" fill="#FE9187"/>
<path d="M485.604 638.656C485.604 638.656 496.154 642.816 498.402 644.126C500.649 645.437 507.787 649.722 508.537 648.162C509.286 646.602 503.063 641.422 501.69 640.341C500.316 639.259 492.325 634.33 492.325 634.33L485.604 638.656Z" fill="#FEB6AA"/>
<path style="mix-blend-mode:multiply" opacity="0.37" d="M485.604 638.656C485.604 638.656 496.154 642.816 498.402 644.126C500.649 645.437 507.787 649.722 508.537 648.162C509.286 646.602 503.063 641.422 501.69 640.341C500.316 639.259 492.325 634.33 492.325 634.33L485.604 638.656Z" fill="url(#paint13_linear)"/>
<path d="M489.079 634.038C492.022 634.076 494.962 633.839 497.861 633.331C500.108 632.603 509.806 628.922 511.429 629.774C513.052 630.627 506.809 635.307 505.04 636.43C501.011 638.161 496.832 639.519 492.554 640.486C491.014 640.694 482.586 638.24 482.565 637.2C482.545 636.16 489.079 634.038 489.079 634.038Z" fill="#FEB6AA"/>
<path style="mix-blend-mode:multiply" opacity="0.23" d="M489.079 634.038C492.022 634.076 494.962 633.839 497.861 633.331C500.108 632.603 509.806 628.922 511.429 629.774C513.052 630.627 506.809 635.307 505.04 636.43C501.011 638.161 496.832 639.519 492.554 640.486C491.014 640.694 482.586 638.24 482.565 637.2C482.545 636.16 489.079 634.038 489.079 634.038Z" fill="url(#paint14_linear)"/>
<path d="M484.855 634.558C484.855 634.558 493.949 627.174 495.634 623.784C497.32 620.394 499.339 614.694 500.878 615.006C502.418 615.318 500.441 624.72 499.796 626.8C499.151 628.88 493.865 635.12 492.325 637.034C491.197 638.001 489.833 638.653 488.371 638.923C486.909 639.194 485.401 639.073 484.001 638.573C482.732 637.616 484.855 634.558 484.855 634.558Z" fill="#FEB6AA"/>
<path opacity="0.35" d="M484.855 634.558C484.855 634.558 493.949 627.174 495.634 623.784C497.32 620.394 499.339 614.694 500.878 615.006C502.418 615.318 500.441 624.72 499.796 626.8C499.151 628.88 493.865 635.12 492.325 637.034C491.197 638.001 489.833 638.653 488.371 638.923C486.909 639.194 485.401 639.073 484.001 638.573C482.732 637.616 484.855 634.558 484.855 634.558Z" fill="url(#paint15_linear)"/>
<path d="M380.075 624.408C380.075 624.408 442.319 607.144 443.859 606.541C445.399 605.938 464.814 605.605 469.434 605.605C474.054 605.605 494.406 606.853 495.322 609.619C496.238 612.386 483.002 613.925 478.674 614.549C474.345 615.173 443.838 625.947 443.838 625.947L384.674 655.192L380.075 624.408Z" fill="#FEB6AA"/>
<path d="M441.195 626.238C441.195 626.238 460.507 636.638 464.606 637.741C468.706 638.843 484.334 639.821 485.562 638.781C486.79 637.741 490.453 626.945 490.931 624.928C491.555 622.39 492.138 614.341 490.494 614.944C488.85 615.547 485.146 626.051 485.146 626.051L470.766 611.865L441.195 626.238Z" fill="#FEB6AA"/>
<path d="M469.226 612.698L474.845 615.693C473.47 617.399 471.85 618.892 470.038 620.123C465.543 623.16 461.048 623.68 455.824 624.283" stroke="#071A42" stroke-width="0.15" stroke-linecap="round" stroke-linejoin="round"/>
<path d="M476.635 634.059C478.448 633.6 480.228 633.016 481.962 632.312C483.206 630.33 484.271 628.242 485.146 626.072" stroke="#071A42" stroke-width="0.15" stroke-linecap="round" stroke-linejoin="round"/>
<path d="M474.866 615.589C474.762 614.382 474.678 613.176 474.574 611.969" stroke="#071A42" stroke-width="0.15" stroke-linecap="round" stroke-linejoin="round"/>
<path d="M349.256 621.33L383.78 620.082L385.32 657.043L347.404 670.605L349.256 621.33Z" fill="#D7E0FC"/>
<path opacity="0.35" d="M349.256 621.33L383.78 620.082L385.32 657.043L347.404 670.605L349.256 621.33Z" fill="url(#paint16_linear)"/>
<path style="mix-blend-mode:multiply" opacity="0.46" d="M351.066 479.598C350.879 480.534 350.691 481.47 350.463 482.427C350.112 482.465 349.758 482.43 349.422 482.323C348.756 482.076 348.136 481.718 347.591 481.262C345.793 479.972 344.177 478.447 342.784 476.728C342.097 475.813 340.328 473.504 340.536 472.256C340.557 472.115 340.614 471.981 340.701 471.868C340.789 471.755 340.904 471.667 341.036 471.611C341.036 471.611 341.036 471.715 341.036 471.757C343.752 474.512 346.955 476.74 350.483 478.33C350.707 478.447 350.885 478.635 350.991 478.865C351.096 479.094 351.123 479.352 351.066 479.598Z" fill="url(#paint17_linear)"/>
<path style="mix-blend-mode:multiply" opacity="0.46" d="M353.938 467.389C353.769 467.812 353.644 468.251 353.563 468.699C353.563 469.136 353.563 469.822 353.106 470.155C352.891 470.255 352.656 470.305 352.419 470.301C351.919 470.301 351.399 470.405 350.9 470.426C349.422 470.53 347.924 470.571 346.446 470.675C345.551 470.675 344.657 470.675 343.762 470.842L342.097 470.987H341.244C341.077 470.987 340.869 470.987 340.786 471.174C340.773 471.127 340.773 471.076 340.786 471.029C342.496 470.327 344.247 469.73 346.03 469.24L351.357 467.43C351.843 467.233 352.355 467.107 352.877 467.056C353.254 467.069 353.621 467.184 353.938 467.389Z" fill="url(#paint18_linear)"/>
<path d="M281.539 496.509C281.311 497.559 281.144 498.622 281.04 499.691C281.04 501.771 309.82 513.939 322.827 513.627L323.472 507.762C323.472 507.762 333.232 510.736 334.46 517.829C335.687 524.922 331.692 543.392 331.692 543.392C318.499 546.604 304.642 545.749 291.944 540.938C270.073 532.93 260.209 524.298 260.209 524.298C260.209 524.298 262.748 493.118 281.539 496.509Z" fill="#D7E0FC"/>
<path d="M266.993 519.992C259.689 515.728 246.453 543.246 244.248 547.531C237.2 561.73 232.96 577.154 231.761 592.958C230.305 609.286 229.056 625.344 231.366 641.693C232.24 647.933 239.045 689.845 243.061 692.466L344.365 689.075C344.365 689.075 357.933 627.07 357.517 613.925C357.101 600.779 331.629 543.392 331.629 543.392L266.993 519.992Z" fill="#D7E0FC"/>
<path d="M389.315 710.645L417.971 680.464H528.306L548.013 710.645H389.315Z" fill="#FFE591"/>
<path d="M403.903 708.773L429.229 682.107L527.224 682.003L544.122 708.773H403.903Z" fill="white"/>
<path d="M527.89 686.309L535.278 699.35C535.278 699.35 541.708 696.501 538.462 690.406C535.819 685.393 527.89 686.309 527.89 686.309Z" fill="#0B2C6F"/>
<path d="M520.752 683.688L532.302 705.715" stroke="#99B4F9" stroke-width="0.25" stroke-linecap="round" stroke-linejoin="round"/>
<path d="M516.257 683.688L525.975 705.507" stroke="#99B4F9" stroke-width="0.25" stroke-linecap="round" stroke-linejoin="round"/>
<path d="M511.762 683.709L519.628 705.299" stroke="#99B4F9" stroke-width="0.25" stroke-linecap="round" stroke-linejoin="round"/>
<path d="M507.267 683.709L513.302 705.091" stroke="#99B4F9" stroke-width="0.25" stroke-linecap="round" stroke-linejoin="round"/>
<path d="M502.772 683.729L506.976 704.883" stroke="#99B4F9" stroke-width="0.25" stroke-linecap="round" stroke-linejoin="round"/>
<path d="M498.277 683.729L500.629 704.675" stroke="#99B4F9" stroke-width="0.25" stroke-linecap="round" stroke-linejoin="round"/>
<path d="M493.782 683.75L494.302 704.488" stroke="#99B4F9" stroke-width="0.25" stroke-linecap="round" stroke-linejoin="round"/>
<path d="M253.633 531.786C253.633 531.786 277.044 521.531 292.257 543.704C307.469 565.877 318.352 677.781 318.352 677.781L374.436 690.718L371.543 723.998C371.543 723.998 282.393 732.214 273.735 711.269C265.078 690.323 233.072 598.762 235.528 577.816C237.984 556.87 253.633 531.786 253.633 531.786Z" fill="#D7E0FC"/>
<path d="M244.476 582.829C244.955 620.269 249.97 658.998 266.764 693.069" stroke="#99B4F9" stroke-width="0.25" stroke-linecap="round" stroke-linejoin="round"/>
<path d="M240.627 603.296C242.056 608.176 243.922 612.916 246.204 617.461" stroke="#99B4F9" stroke-width="0.25" stroke-linecap="round" stroke-linejoin="round"/>
<path d="M286.097 540.001C286.097 540.001 303.952 551.4 306.74 586.822C309.529 622.245 315.98 678.342 315.98 678.342L374.436 690.822" stroke="#99B4F9" stroke-width="0.25" stroke-linecap="round" stroke-linejoin="round"/>
<path d="M316.292 678.176C309.489 679.289 303.362 682.939 299.145 688.389" stroke="#99B4F9" stroke-width="0.25" stroke-linecap="round" stroke-linejoin="round"/>
<path d="M260.833 521.718C267.086 526.513 274.129 530.181 281.643 532.555" stroke="#99B4F9" stroke-width="0.25" stroke-linecap="round" stroke-linejoin="round"/>
<path d="M312.005 541.52C318.518 543.034 325.194 543.733 331.879 543.6" stroke="#99B4F9" stroke-width="0.25" stroke-linecap="round" stroke-linejoin="round"/>
<path d="M367.797 689.699C364.65 700.707 363.246 712.14 363.635 723.582" stroke="#99B4F9" stroke-width="0.25" stroke-linecap="round" stroke-linejoin="round"/>
<path d="M278.896 497.84C278.896 497.84 296.106 512.525 326.448 513.773" stroke="#99B4F9" stroke-width="0.25" stroke-linecap="round" stroke-linejoin="round"/>
<path d="M373.916 699.849L417.617 706.63C417.617 706.63 431.789 702.949 437.324 703.24C442.86 703.531 470.308 692.153 473.388 694.629C476.468 697.104 452.744 712.184 452.744 712.184L443.193 721.731L371.481 723.978L373.916 699.849Z" fill="#FEB6AA"/>
<path d="M452.578 710.853L485.874 710.437C481.274 713.725 476.401 716.613 471.307 719.069C466.375 720.899 443.38 721.731 443.38 721.731L452.578 710.853Z" fill="#FEB6AA"/>
<path d="M371.148 947.494L378.993 978.195C379.183 978.914 379.601 979.552 380.183 980.015C380.765 980.478 381.481 980.741 382.225 980.764C382.968 980.787 383.699 980.57 384.309 980.145C384.92 979.72 385.376 979.109 385.611 978.403L395.475 948.118L371.148 947.494Z" fill="#7489ED"/>
<path d="M439.53 812.315L419.282 949.054C419.282 949.054 410.333 948.826 395.6 948.514H395.412L383.134 948.243H381.907L371.356 948.035C308.426 946.6 200.713 944.333 156.075 943.875H155.596C148.854 943.875 143.61 943.875 140.197 943.875C138.722 943.8 137.244 943.876 135.785 944.104L22.7442 527.771L22.3904 526.419L22.224 525.795C21.4167 522.817 21.3027 519.694 21.8906 516.666C22.4786 513.637 23.753 510.783 25.616 508.323C44.6989 483.01 80.9502 463.936 113.144 469.989C154.993 477.872 161.735 525.421 156.387 560.76C152.391 587.01 143.443 612.531 141.945 639.051C140.155 670.147 152.995 704.53 184.439 715.762C201.503 721.877 219.629 720.566 237.567 717.426C244.102 716.282 250.615 714.867 257.067 713.515C262.56 712.371 268.034 711.206 273.361 710.27C273.437 710.28 273.514 710.28 273.59 710.27C297.854 705.965 322.431 701.16 347.029 697.603C353.494 696.674 359.966 695.842 366.445 695.107C369.004 694.816 371.564 694.546 374.124 694.317C376.205 694.088 378.515 693.88 380.7 693.714C388.67 692.736 397.826 691.8 405.818 693.339C409.158 693.915 412.362 695.107 415.265 696.854C418.575 698.935 421.224 701.915 422.903 705.445C423.427 706.537 423.879 707.663 424.255 708.814C424.463 709.438 424.651 710.062 424.838 710.686C425.585 713.518 426.052 716.416 426.232 719.339C426.232 720.317 426.357 721.315 426.378 722.293C426.649 732.693 424.297 743.592 423.236 753.493C422.195 762.811 420.898 772.102 419.344 781.365C418.096 788.832 416.701 796.278 415.182 803.662H415.494L419.448 803.933L433.516 804.827C434.417 804.886 435.297 805.131 436.099 805.548C436.9 805.965 437.606 806.544 438.172 807.248C438.737 807.952 439.15 808.767 439.384 809.639C439.618 810.511 439.668 811.423 439.53 812.315Z" fill="#99B4F9"/>
<path d="M405.089 771.506C404.715 775.042 404.361 778.432 404.09 781.698C404.09 782.114 404.09 782.509 404.09 782.904C403.424 790.642 402.654 798.587 401.718 807.136C400.781 815.685 399.637 825.128 398.305 835.237C396.411 849.942 394.289 864.814 392.229 879.229C389.273 899.779 386.256 921.016 383.8 941.962C383.509 944.374 383.488 944.77 383.467 945.186L383.176 947.786C383.176 947.931 383.176 948.077 383.176 948.243C383.176 948.41 383.176 948.368 383.176 948.451L381.969 948.306V948.202C381.969 948.035 381.969 947.91 381.969 947.765L382.26 945.102C382.26 944.686 382.26 944.27 382.593 941.816C385.049 920.85 388.108 899.613 390.917 879.062C392.999 864.648 395.08 849.776 397.015 835.091C398.326 825.107 399.408 815.934 400.386 807.344C401.364 798.754 402.093 790.704 402.738 783.029C402.738 782.55 402.738 782.093 402.863 781.614C403.133 778.307 403.487 774.958 403.882 771.381C405.318 757.549 406.858 743.28 403.757 730.758C403.111 728.054 402.051 725.465 400.615 723.083C400.261 722.456 399.857 721.858 399.408 721.294C398.526 720.122 397.514 719.055 396.391 718.112C390.314 713.016 381.823 711.685 372.625 712.288C372.603 712.277 372.578 712.271 372.553 712.271C372.527 712.271 372.502 712.277 372.48 712.288C369.551 712.481 366.634 712.821 363.739 713.307C359.203 714.056 354.604 715.096 350.088 716.198C346.592 717.093 343.158 718.008 339.87 718.902C334.293 720.421 329.007 721.856 324.616 722.667L313.15 724.893L301.101 727.326C286.846 730.197 272.3 733.13 257.587 735.293C250.116 736.395 242.604 737.373 235.091 737.872L230.284 738.184C209.078 739.39 191.494 737.477 176.594 732.318C157.865 725.829 143.006 714.035 134.849 699.038C118.013 668.171 126.296 631.667 134.307 596.37C138.469 577.837 142.465 560.344 142.964 543.787C143.443 527.75 141.008 515.894 135.306 506.493C127.815 494.138 117.493 487.253 104.632 486.046C76.8922 483.488 42.6179 507.866 22.7442 527.771L22.3904 526.419C42.4306 506.43 76.7882 482.261 104.695 484.819C117.971 486.046 128.626 493.139 136.326 505.806C142.132 515.416 144.65 527.48 144.151 543.746C143.651 560.386 139.676 577.982 135.452 596.557C127.503 631.646 119.283 667.942 135.889 698.477C143.901 713.182 158.489 724.789 176.947 731.174C191.723 736.27 209.141 738.184 230.201 736.978C231.865 736.874 233.509 736.79 235.174 736.645C242.624 736.083 250.074 735.189 257.483 734.107C272.05 732.027 286.617 729.011 300.83 726.141L308.863 724.518C314.066 723.458 319.268 722.438 324.491 721.482C328.82 720.67 334.064 719.235 339.641 717.738C342.971 716.843 346.446 715.907 350.046 715.034C354.625 713.89 359.328 712.829 363.968 712.08C366.868 711.589 369.793 711.256 372.729 711.082H372.896C382.344 710.52 391.001 711.934 397.306 717.218C398.681 718.392 399.905 719.734 400.948 721.211C401.364 721.814 401.739 722.438 402.072 723.042C403.387 725.377 404.374 727.883 405.006 730.488C408.086 743.28 406.546 757.57 405.089 771.506Z" fill="#EFEFFF"/>
<path d="M439.53 812.315L419.282 949.054C419.282 949.054 410.313 948.826 395.6 948.514L415.411 803.6L433.495 804.765C434.406 804.817 435.295 805.06 436.106 805.478C436.916 805.896 437.63 806.481 438.199 807.193C438.768 807.906 439.181 808.73 439.411 809.612C439.64 810.495 439.681 811.416 439.53 812.315Z" fill="url(#paint19_linear)"/>
<path d="M140.03 943.501L147.876 974.16C148.066 974.879 148.483 975.517 149.065 975.98C149.647 976.443 150.363 976.706 151.107 976.729C151.851 976.752 152.582 976.535 153.192 976.11C153.802 975.684 154.258 975.074 154.493 974.368L164.357 944.083L140.03 943.501Z" fill="#7489ED"/>
<path d="M380.388 470.405L410.604 424.52C403.82 403.99 409.043 380.424 422.778 363.722C436.513 347.019 457.427 336.994 478.965 334.352C496.715 331.974 514.768 335.058 530.72 343.192C546.695 351.47 558.812 365.647 564.495 382.712C567.187 391.203 567.853 400.206 566.44 409.001C565.027 417.796 561.575 426.138 556.358 433.36C545.558 447.629 527.994 455.366 510.409 458.715C483.189 463.818 455.044 459.835 430.311 447.379C414.371 456.822 397.473 463.312 380.388 470.405Z" fill="#EFEFFF"/>
<path d="M464.669 397.709C464.673 398.85 464.338 399.967 463.706 400.918C463.074 401.868 462.174 402.61 461.12 403.049C460.066 403.487 458.905 403.603 457.785 403.381C456.665 403.16 455.636 402.611 454.828 401.804C454.021 400.997 453.471 399.968 453.25 398.848C453.028 397.729 453.144 396.569 453.583 395.515C454.022 394.461 454.764 393.562 455.715 392.93C456.666 392.299 457.783 391.964 458.925 391.968C459.68 391.965 460.428 392.112 461.126 392.399C461.824 392.687 462.459 393.11 462.993 393.643C463.526 394.177 463.949 394.811 464.237 395.509C464.525 396.206 464.671 396.954 464.669 397.709Z" fill="#071A42"/>
<path d="M495.156 397.709C495.16 398.85 494.825 399.967 494.193 400.918C493.561 401.868 492.661 402.61 491.607 403.049C490.553 403.487 489.392 403.603 488.272 403.381C487.152 403.16 486.123 402.611 485.315 401.804C484.508 400.997 483.958 399.968 483.737 398.848C483.515 397.729 483.631 396.569 484.07 395.515C484.508 394.461 485.25 393.562 486.202 392.93C487.153 392.299 488.27 391.964 489.412 391.968C490.935 391.968 492.396 392.573 493.473 393.649C494.551 394.726 495.156 396.186 495.156 397.709Z" fill="#071A42"/>
<path d="M523.915 397.709C523.919 398.85 523.584 399.967 522.952 400.918C522.321 401.868 521.421 402.61 520.366 403.049C519.312 403.487 518.152 403.603 517.031 403.381C515.911 403.16 514.882 402.611 514.075 401.804C513.267 400.997 512.718 399.968 512.496 398.848C512.274 397.729 512.39 396.569 512.829 395.515C513.268 394.461 514.01 393.562 514.961 392.93C515.912 392.299 517.03 391.964 518.172 391.968C518.927 391.965 519.675 392.112 520.373 392.399C521.071 392.687 521.705 393.11 522.239 393.643C522.773 394.177 523.196 394.811 523.484 395.509C523.771 396.206 523.918 396.954 523.915 397.709Z" fill="#071A42"/>
<g style="mix-blend-mode:multiply" opacity="0.38">
<path d="M1455.92 977.509C1455.92 981.669 1426.58 984.976 1390.37 984.976C1354.16 984.976 1324.84 981.627 1324.84 977.509C1324.84 973.391 1354.18 970.042 1390.37 970.042C1426.56 970.042 1455.92 973.37 1455.92 977.509Z" fill="#FFCBC3"/>
</g>
<path d="M1323.03 812.981C1321.09 809.57 1319.34 805.68 1320.09 801.832C1320.84 797.984 1325.21 794.677 1328.73 796.424C1319.26 784.013 1312.02 770.059 1307.31 755.178C1305.68 751.092 1305.22 746.637 1305.96 742.302C1307.06 738.142 1312.2 733.504 1316.6 734.19C1314.91 728.45 1313.68 723.416 1311.81 718.195C1309.81 713.251 1308.99 707.91 1309.42 702.595C1309.98 697.062 1314.01 691.446 1319.55 691.155C1323.46 690.947 1327.02 693.339 1329.96 695.96C1337.58 702.902 1342.86 712.048 1345.04 722.126C1346.17 715.096 1356.3 712.912 1362.17 716.947C1368.04 720.982 1370.33 728.429 1371.68 735.397C1374.45 749.718 1374.86 764.395 1372.89 778.848C1377.78 776.144 1384.29 778.994 1387.25 783.715C1390.2 788.437 1390.39 794.386 1389.89 799.939C1388.76 812.419 1384.17 842.018 1371.28 845.346C1356.05 849.36 1329.66 824.629 1323.03 812.981Z" fill="#FE9187"/>
<path d="M1321.96 703.053C1321.96 703.053 1358.36 768.053 1382.46 897.345" stroke="#071A42" stroke-width="0.29" stroke-linecap="round" stroke-linejoin="round"/>
<path d="M1316.7 723.811C1324.36 729.136 1331.77 734.766 1338.95 740.701V740.264C1339.78 732.36 1340.65 724.602 1340.88 716.656" stroke="#071A42" stroke-width="0.29" stroke-linecap="round" stroke-linejoin="round"/>
<path d="M1316.2 752.848C1328.09 758.816 1339.6 765.513 1350.66 772.899C1353.32 762.499 1356.2 751.995 1358.86 741.574" stroke="#071A42" stroke-width="0.29" stroke-linecap="round" stroke-linejoin="round"/>
<path d="M1331.22 784.069C1341.48 788.927 1351.18 794.883 1360.15 801.832C1363.14 793.99 1365.51 785.93 1367.27 777.725" stroke="#071A42" stroke-width="0.29" stroke-linecap="round" stroke-linejoin="round"/>
<path d="M1338.3 817.619C1349.06 822.845 1359.34 828.99 1369.04 835.986C1373.17 827.358 1376.31 818.286 1378.38 808.946" stroke="#071A42" stroke-width="0.29" stroke-linecap="round" stroke-linejoin="round"/>
<path d="M1455.63 800.75C1457.56 797.339 1459.31 793.47 1458.54 789.602C1457.77 785.733 1453.44 782.467 1449.9 784.194C1459.39 771.793 1466.64 757.835 1471.34 742.947C1472.97 738.87 1473.43 734.418 1472.67 730.093C1471.59 725.933 1466.43 721.274 1462.06 721.96C1463.72 716.24 1464.95 711.206 1466.82 705.986C1468.84 701.039 1469.67 695.689 1469.24 690.365C1468.68 684.853 1464.64 679.237 1459.1 678.925C1455.19 678.717 1451.63 681.109 1448.7 683.75C1441.06 690.716 1435.79 699.894 1433.63 710C1432.49 702.99 1422.35 700.806 1416.5 704.821C1410.66 708.835 1408.33 716.302 1406.99 723.291C1404.22 737.605 1403.81 752.276 1405.79 766.722C1400.9 764.018 1394.38 766.888 1391.43 771.61C1388.47 776.331 1388.26 782.259 1388.79 787.813C1389.91 800.293 1394.49 829.891 1407.39 833.24C1422.56 837.067 1448.95 812.419 1455.63 800.75Z" fill="#FE9187"/>
<path d="M1456.67 690.822C1456.67 690.822 1420.25 755.76 1396.17 885.136" stroke="#071A42" stroke-width="0.29" stroke-linecap="round" stroke-linejoin="round"/>
<path d="M1461.87 711.601C1454.24 716.912 1446.82 722.542 1439.62 728.491V728.054C1438.81 720.129 1437.94 712.392 1437.69 704.426" stroke="#071A42" stroke-width="0.29" stroke-linecap="round" stroke-linejoin="round"/>
<path d="M1462.43 740.618C1450.54 746.588 1439.03 753.292 1427.97 760.69C1425.29 750.29 1422.44 739.786 1419.65 729.344" stroke="#071A42" stroke-width="0.29" stroke-linecap="round" stroke-linejoin="round"/>
<path d="M1447.41 771.838C1437.15 776.712 1427.46 782.674 1418.48 789.622C1415.49 781.773 1413.1 773.707 1411.34 765.494" stroke="#071A42" stroke-width="0.29" stroke-linecap="round" stroke-linejoin="round"/>
<path d="M1440.33 805.389C1429.57 810.609 1419.28 816.762 1409.6 823.776C1405.46 815.149 1402.32 806.077 1400.25 796.736" stroke="#071A42" stroke-width="0.29" stroke-linecap="round" stroke-linejoin="round"/>
<path d="M1445.58 864.648L1443.29 884.99V885.76L1434.96 960.432C1434.38 965.582 1431.91 970.336 1428.04 973.788C1424.18 977.24 1419.17 979.15 1413.99 979.152H1366.14C1361.05 979.126 1356.13 977.255 1352.3 973.887C1348.48 970.518 1346 965.879 1345.33 960.827L1335.7 888.88V888.11L1332.58 864.71L1445.58 864.648Z" fill="#FFE591"/>
<path d="M1437.23 884.866C1434.97 884.276 1432.93 883.065 1431.32 881.371C1432.56 879.604 1433.35 877.563 1433.63 875.422C1433.76 874.512 1433.68 873.585 1433.41 872.708C1433.13 871.831 1432.67 871.025 1432.05 870.347C1431.74 870.05 1431.35 869.836 1430.93 869.727C1430.52 869.618 1430.08 869.617 1429.66 869.723C1427.68 870.222 1426.99 872.656 1427.33 874.861C1427.71 877.306 1428.8 879.588 1430.45 881.434C1429.24 883.21 1427.63 884.673 1425.74 885.699C1423.85 886.726 1421.75 887.287 1419.6 887.336C1417.45 887.385 1415.32 886.92 1413.39 885.98C1411.46 885.04 1409.78 883.653 1408.49 881.933C1409.63 881.033 1410.6 879.942 1411.36 878.709C1412.45 877.099 1412.85 875.125 1412.49 873.218C1412.24 872.25 1411.66 871.403 1410.84 870.83C1410.02 870.257 1409.03 869.997 1408.03 870.098C1407.16 870.325 1406.42 870.885 1405.95 871.658C1405.1 873.258 1404.86 875.115 1405.29 876.878C1405.73 878.656 1406.51 880.33 1407.6 881.808C1405.4 883.463 1402.71 884.315 1399.96 884.22C1397.22 884.126 1394.58 883.09 1392.51 881.288C1393.57 879.806 1394.28 878.108 1394.59 876.317C1394.74 875.43 1394.7 874.521 1394.47 873.652C1394.23 872.783 1393.81 871.975 1393.24 871.283C1392.94 870.949 1392.56 870.692 1392.15 870.534C1391.73 870.375 1391.27 870.32 1390.83 870.373C1390.38 870.426 1389.96 870.586 1389.59 870.838C1389.22 871.091 1388.91 871.429 1388.7 871.824C1388.31 872.654 1388.11 873.559 1388.11 874.476C1388.11 875.393 1388.31 876.298 1388.7 877.128C1389.41 878.709 1390.44 880.126 1391.72 881.288C1390.74 882.67 1389.47 883.822 1388 884.665C1386.53 885.508 1384.89 886.021 1383.2 886.169C1381.52 886.318 1379.82 886.098 1378.22 885.524C1376.63 884.951 1375.18 884.038 1373.97 882.848C1375.24 881.339 1376.18 879.582 1376.74 877.69C1377.3 875.96 1377.16 874.08 1376.36 872.448C1376.15 872.05 1375.85 871.702 1375.49 871.426C1375.13 871.15 1374.72 870.953 1374.28 870.846C1373.42 870.731 1372.54 870.906 1371.79 871.343C1371.03 871.779 1370.45 872.453 1370.12 873.259C1369.54 874.852 1369.54 876.596 1370.12 878.189C1370.72 879.955 1371.7 881.567 1372.99 882.91C1371.75 884.275 1370.2 885.329 1368.47 885.989C1366.66 886.665 1364.7 886.815 1362.8 886.421C1360.91 886.027 1359.17 885.106 1357.78 883.763C1358.37 883.255 1358.91 882.675 1359.36 882.037C1359.97 881.252 1360.42 880.352 1360.68 879.391C1360.93 878.43 1361 877.427 1360.86 876.442C1360.71 875.423 1360.24 874.48 1359.51 873.753C1358.78 873.025 1357.84 872.553 1356.82 872.406C1356.76 872.398 1356.7 872.405 1356.65 872.427C1356.59 872.449 1356.55 872.485 1356.51 872.531C1355.31 874.162 1354.69 876.141 1354.74 878.162C1354.79 880.183 1355.51 882.13 1356.78 883.701C1355.37 884.803 1353.71 885.541 1351.94 885.849C1350.18 886.157 1348.37 886.027 1346.67 885.469C1345.07 884.91 1343.64 883.967 1342.5 882.723C1343.79 880.629 1344.46 878.214 1344.44 875.755C1344.44 875.024 1344.28 874.301 1343.98 873.636C1343.67 872.972 1343.23 872.382 1342.67 871.907C1342.4 871.704 1342.08 871.569 1341.75 871.515C1341.42 871.46 1341.08 871.488 1340.76 871.595C1339.24 872.136 1338.97 874.029 1338.9 874.84C1338.78 877.731 1339.75 880.561 1341.63 882.765C1340.92 883.837 1340.08 884.81 1339.11 885.656C1338.27 886.42 1337.33 887.077 1336.32 887.611L1336.43 888.381C1337.56 887.788 1338.62 887.054 1339.57 886.197C1340.54 885.351 1341.4 884.379 1342.11 883.306C1343.26 884.558 1344.68 885.527 1346.27 886.134C1348.09 886.735 1350.03 886.875 1351.92 886.541C1353.81 886.207 1355.59 885.41 1357.09 884.221C1358.55 885.67 1360.39 886.681 1362.39 887.137C1364.4 887.593 1366.49 887.476 1368.43 886.8C1370.27 886.118 1371.91 885.005 1373.22 883.555C1374.5 884.789 1376.03 885.734 1377.71 886.327C1379.39 886.92 1381.18 887.147 1382.95 886.993C1384.73 886.84 1386.45 886.309 1388 885.436C1389.55 884.563 1390.9 883.369 1391.95 881.933C1394.03 883.706 1396.61 884.776 1399.34 884.99C1402.4 885.161 1405.42 884.264 1407.89 882.453C1409.23 884.239 1410.98 885.682 1412.98 886.664C1414.99 887.645 1417.2 888.136 1419.44 888.098C1421.67 888.059 1423.86 887.492 1425.83 886.442C1427.81 885.392 1429.5 883.889 1430.78 882.058C1432.38 883.772 1434.42 885.004 1436.69 885.61C1438.95 886.217 1441.34 886.175 1443.58 885.49V884.741C1441.51 885.347 1439.32 885.39 1437.23 884.866ZM1341.78 882.224C1340.12 880.176 1339.27 877.595 1339.38 874.965C1339.38 874.445 1339.61 872.739 1340.76 872.344C1340.91 872.313 1341.08 872.313 1341.23 872.344C1341.53 872.347 1341.81 872.441 1342.05 872.614C1342.51 873.029 1342.88 873.536 1343.13 874.102C1343.39 874.667 1343.52 875.28 1343.52 875.901C1343.53 878.129 1342.93 880.317 1341.78 882.224ZM1356.68 873.176C1357.5 873.355 1358.24 873.779 1358.82 874.392C1359.4 875.005 1359.77 875.777 1359.9 876.608C1360.08 878.424 1359.58 880.243 1358.49 881.704C1358.06 882.291 1357.57 882.828 1357.03 883.306C1355.88 881.883 1355.23 880.126 1355.16 878.3C1355.1 876.473 1355.63 874.675 1356.68 873.176ZM1373.2 882.411C1371.99 881.166 1371.08 879.666 1370.53 878.022C1369.99 876.595 1369.99 875.019 1370.53 873.592C1370.77 873.014 1371.16 872.514 1371.66 872.146C1372.17 871.779 1372.76 871.559 1373.39 871.512C1373.57 871.491 1373.76 871.491 1373.95 871.512C1374.29 871.594 1374.61 871.747 1374.89 871.962C1375.17 872.177 1375.4 872.449 1375.57 872.76C1376.26 874.234 1376.37 875.91 1375.88 877.461C1375.35 879.284 1374.44 880.972 1373.2 882.411ZM1391.93 880.789C1390.73 879.688 1389.78 878.349 1389.14 876.858C1388.8 876.119 1388.63 875.318 1388.63 874.507C1388.63 873.696 1388.8 872.895 1389.14 872.157C1389.31 871.863 1389.54 871.613 1389.82 871.425C1390.1 871.237 1390.43 871.117 1390.76 871.075H1391.12C1391.41 871.076 1391.7 871.139 1391.97 871.261C1392.24 871.383 1392.48 871.561 1392.68 871.782C1393.17 872.405 1393.52 873.122 1393.72 873.888C1393.91 874.654 1393.95 875.453 1393.82 876.234C1393.51 877.874 1392.85 879.428 1391.89 880.789H1391.93ZM1405.95 876.629C1405.53 875.054 1405.74 873.379 1406.52 871.949C1406.7 871.632 1406.95 871.358 1407.25 871.143C1407.55 870.928 1407.88 870.778 1408.24 870.701C1408.41 870.679 1408.58 870.679 1408.74 870.701C1409.48 870.767 1410.17 871.061 1410.73 871.542C1411.29 872.023 1411.69 872.667 1411.86 873.384C1412.02 874.235 1412.01 875.109 1411.83 875.955C1411.65 876.802 1411.3 877.603 1410.8 878.314C1410.09 879.474 1409.18 880.502 1408.12 881.35C1407.06 879.98 1406.31 878.398 1405.91 876.712L1405.95 876.629ZM1430.93 880.789C1429.43 879.052 1428.45 876.935 1428.1 874.674C1427.87 873.176 1428.1 870.763 1429.89 870.347H1430.36C1430.84 870.357 1431.3 870.542 1431.65 870.867C1432.19 871.464 1432.6 872.172 1432.83 872.941C1433.07 873.71 1433.14 874.521 1433.03 875.318C1432.74 877.307 1431.99 879.2 1430.84 880.851L1430.93 880.789Z" fill="#7489ED"/>
</g>
<defs>
<linearGradient id="paint0_linear" x1="377.62" y1="656.71" x2="469.039" y2="656.71" gradientUnits="userSpaceOnUse">
<stop stop-color="#99B4F9" stop-opacity="0"/>
<stop offset="1" stop-color="#7489ED" stop-opacity="0.5"/>
</linearGradient>
<linearGradient id="paint1_linear" x1="204740" y1="31621.9" x2="204773" y2="40667" gradientUnits="userSpaceOnUse">
<stop stop-color="#99B4F9" stop-opacity="0"/>
<stop offset="1" stop-color="#7489ED" stop-opacity="0.5"/>
</linearGradient>
<linearGradient id="paint2_linear" x1="232603" y1="33094.7" x2="232588" y2="39400.7" gradientUnits="userSpaceOnUse">
<stop stop-color="#99B4F9" stop-opacity="0"/>
<stop offset="1" stop-color="#7489ED" stop-opacity="0.5"/>
</linearGradient>
<linearGradient id="paint3_linear" x1="122490" y1="7802.27" x2="122490" y2="8513.19" gradientUnits="userSpaceOnUse">
<stop stop-color="#99B4F9" stop-opacity="0"/>
<stop offset="1" stop-color="#7489ED" stop-opacity="0.5"/>
</linearGradient>
<linearGradient id="paint4_linear" x1="809.951" y1="519.888" x2="791.405" y2="462.87" gradientUnits="userSpaceOnUse">
<stop stop-color="#FEB6AA" stop-opacity="0"/>
<stop offset="1" stop-color="#FE9187"/>
</linearGradient>
<linearGradient id="paint5_linear" x1="-207.803" y1="1711.99" x2="-233.152" y2="1690.61" gradientUnits="userSpaceOnUse">
<stop stop-color="#FEB6AA" stop-opacity="0"/>
<stop offset="1" stop-color="#FE9187"/>
</linearGradient>
<linearGradient id="paint6_linear" x1="1436.22" y1="1377.82" x2="1453.4" y2="1346.71" gradientUnits="userSpaceOnUse">
<stop stop-color="#FEB6AA" stop-opacity="0"/>
<stop offset="1" stop-color="#FE9187"/>
</linearGradient>
<linearGradient id="paint7_linear" x1="826.079" y1="463.125" x2="761.779" y2="446.366" gradientUnits="userSpaceOnUse">
<stop stop-color="#FEB6AA" stop-opacity="0"/>
<stop offset="1" stop-color="#FE9187" stop-opacity="0.5"/>
</linearGradient>
<linearGradient id="paint8_linear" x1="11433.4" y1="8437.45" x2="11681.7" y2="7721.85" gradientUnits="userSpaceOnUse">
<stop stop-color="#FEB6AA" stop-opacity="0"/>
<stop offset="1" stop-color="#FE9187" stop-opacity="0.5"/>
</linearGradient>
<linearGradient id="paint9_linear" x1="685.714" y1="610.264" x2="783.152" y2="400.376" gradientUnits="userSpaceOnUse">
<stop stop-color="#FEB6AA" stop-opacity="0"/>
<stop offset="1" stop-color="#FE9187" stop-opacity="0.6"/>
</linearGradient>
<linearGradient id="paint10_linear" x1="4626.14" y1="8968.6" x2="4630.2" y2="8354.46" gradientUnits="userSpaceOnUse">
<stop stop-color="#FEB6AA" stop-opacity="0"/>
<stop offset="1" stop-color="#FE9187"/>
</linearGradient>
<linearGradient id="paint11_linear" x1="-405.094" y1="1576.57" x2="-426.98" y2="1558.17" gradientUnits="userSpaceOnUse">
<stop stop-color="#FEB6AA" stop-opacity="0"/>
<stop offset="1" stop-color="#FE9187"/>
</linearGradient>
<linearGradient id="paint12_linear" x1="5784.81" y1="9079.28" x2="6513.37" y2="8367.01" gradientUnits="userSpaceOnUse">
<stop stop-color="#FEB6AA" stop-opacity="0"/>
<stop offset="1" stop-color="#FE9187" stop-opacity="0.5"/>
</linearGradient>
<linearGradient id="paint13_linear" x1="507.954" y1="650.075" x2="497.282" y2="642.166" gradientUnits="userSpaceOnUse">
<stop offset="0.01" stop-color="#FEB6AA" stop-opacity="0"/>
<stop offset="1" stop-color="#FE9187"/>
</linearGradient>
<linearGradient id="paint14_linear" x1="7745.67" y1="3928.4" x2="7589" y2="4137.62" gradientUnits="userSpaceOnUse">
<stop offset="0.01" stop-color="#FEB6AA" stop-opacity="0"/>
<stop offset="1" stop-color="#FE9187"/>
</linearGradient>
<linearGradient id="paint15_linear" x1="4837.12" y1="7736.59" x2="4647.88" y2="8031.98" gradientUnits="userSpaceOnUse">
<stop offset="0.01" stop-color="#FEB6AA" stop-opacity="0"/>
<stop offset="1" stop-color="#FE9187"/>
</linearGradient>
<linearGradient id="paint16_linear" x1="8882.68" y1="17992.5" x2="7787.66" y2="17996.8" gradientUnits="userSpaceOnUse">
<stop stop-color="#99B4F9" stop-opacity="0"/>
<stop offset="1" stop-color="#7489ED" stop-opacity="0.5"/>
</linearGradient>
<linearGradient id="paint17_linear" x1="2097.82" y1="2984.24" x2="2151.54" y2="2984.24" gradientUnits="userSpaceOnUse">
<stop stop-color="#FEB6AA" stop-opacity="0"/>
<stop offset="1" stop-color="#FE9187"/>
</linearGradient>
<linearGradient id="paint18_linear" x1="2528.97" y1="1406.96" x2="2612.55" y2="1406.96" gradientUnits="userSpaceOnUse">
<stop stop-color="#FEB6AA" stop-opacity="0"/>
<stop offset="1" stop-color="#FE9187"/>
</linearGradient>
<linearGradient id="paint19_linear" x1="9975.96" y1="62802.1" x2="8723.79" y2="62751.8" gradientUnits="userSpaceOnUse">
<stop stop-color="#99B4F9" stop-opacity="0"/>
<stop offset="1" stop-color="#7489ED" stop-opacity="0.5"/>
</linearGradient>
<clipPath id="clip0">
<rect width="1721" height="1196" fill="white" transform="translate(-76 -70)"/>
</clipPath>
</defs>
</svg>
